<svg xmlns="http://www.w3.org/2000/svg" preserveAspectRatio="xMidYMid" width="40" height="40" viewBox="0 0 40 40"><defs><style>.analyz-i{fill:#f90;fill-rule:evenodd}</style></defs><path d="M8 5c0-.551.449-1 1-1 .55 0 1 .449 1 1 0 .55-.45 1-1 1-.551 0-1-.45-1-1zm4 0c0-.551.449-1 1-1 .551 0 1 .449 1 1 0 .55-.449 1-1 1-.551 0-1-.45-1-1zm4 0c0-.551.449-1 1-1 .55 0 1 .449 1 1 0 .55-.45 1-1 1-.551 0-1-.45-1-1zm22 31.002H23.208a14.132 14.132 0 0 0 2.586-2H38V1.999H5.998V8H38v2H5.998v4.207a14.038 14.038 0 0 0-2 2.585V2c0-1.096.9-2 2-2H38c1.1 0 2 .9 2 2v32.002c0 1.1-.905 2-2 2zM4.002 23.998c0-6.627 5.373-12 12-12s12 5.373 12 12-5.373 12-12 12c-1.719 0-3.353-.362-4.831-1.013l-4.301 3.8C6.153 39.545 5.041 40 4 40a4 4 0 0 1-4-4c0-1.042.435-2.092 1.171-2.828.018.017 3.622-3.154 4.167-3.667a11.953 11.953 0 0 1-1.336-5.507zm12 10c5.523 0 10-4.477 10-10s-4.477-10-10-10-10 4.477-10 10 4.477 10 10 10zm-13.416.587C2.224 34.947 2 35.172 2 36c0 .828 1.172 2 2 2 .828 0 1.052-.224 1.414-.586l3.922-3.437a12.057 12.057 0 0 1-2.911-2.749c-2.575 2.423-1.355.867-3.839 3.357z" class="seopult-icon analyz-i"/></svg>