<svg xmlns="http://www.w3.org/2000/svg" preserveAspectRatio="xMidYMid" width="40" height="40" viewBox="0 0 40 40"><defs><style>.analytics-i{fill:#f90;fill-rule:evenodd}</style></defs><path d="M3 2.001h2v4.77A19.933 19.933 0 0 1 20 0a19.933 19.933 0 0 1 14.142 5.858A19.938 19.938 0 0 1 40 20h-2c0-4.971-2.015-9.471-5.272-12.728A17.944 17.944 0 0 0 20 2 17.944 17.944 0 0 0 6.583 8h4.416v2H3V2.001zm8.901 21.137a3 3 0 1 0 1.594 1.195l2.604-3.471a3.01 3.01 0 0 0 2.702-.463l1.291.86a3 3 0 1 0 5.403-.925l2.604-3.472a3 3 0 1 0-1.594-1.196l-2.604 3.472a2.985 2.985 0 0 0-.902-.138c-.676 0-1.299.223-1.801.601l-1.29-.861a3 3 0 1 0-5.403.926l-2.604 3.472zM23 21a1 1 0 1 1 0 2 1 1 0 0 1 0-2zm6-8a1 1 0 1 0 0 2 1 1 0 0 0 0-2zm-12 3.999A1 1 0 1 0 17.001 19 1 1 0 0 0 17 17zM11 25a1 1 0 1 1 0 2 1 1 0 0 1 0-2zm26 12.999V30h-7.999v2h4.416A17.943 17.943 0 0 1 20 37.999a17.943 17.943 0 0 1-12.728-5.271A17.946 17.946 0 0 1 2 20H0a19.938 19.938 0 0 0 5.858 14.142A19.938 19.938 0 0 0 20 40a19.938 19.938 0 0 0 15-6.772v4.771h2z" class="seopult-icon analytics-i"/></svg>