<svg xmlns="http://www.w3.org/2000/svg" preserveAspectRatio="xMidYMid" width="40" height="36" viewBox="0 0 40 36"><defs><style>.attention-i{fill:#f90;fill-rule:evenodd}</style></defs><path d="M.263 33.02L18.247 1.019C18.611.372 19.247 0 19.989 0c.741 0 1.377.372 1.741 1.019L39.714 33.02a1.952 1.952 0 0 1-.017 1.99 1.95 1.95 0 0 1-1.724.99H2.004a1.95 1.95 0 0 1-1.724-.99 1.952 1.952 0 0 1-.017-1.99zM18.989 28v2h1.999v-2h-1.999zm0-14v12h1.999V14h-1.999zM2.004 34h35.969L19.989 2 2.004 34z" class="seopult-icon attention-i"/></svg>