<svg xmlns="http://www.w3.org/2000/svg" preserveAspectRatio="xMidYMid" width="34" height="40" viewBox="0 0 34 40"><defs><style>.award-i{fill:#f90;fill-rule:evenodd}</style></defs><path d="M3.99-.01h26.009c1.1 0 2 .908 2 2v6.001a2.016 2.016 0 0 1-2 1.999H19.141l3.682 7.648 9.417 1.155a1.96 1.96 0 0 1 1.661 1.375 1.961 1.961 0 0 1-.554 2.084l-6.892 6.308 1.774 9.042a1.96 1.96 0 0 1-.776 1.993 1.962 1.962 0 0 1-2.134.153l-8.325-4.473-8.324 4.473a1.962 1.962 0 0 1-2.134-.153 1.959 1.959 0 0 1-.776-1.993l1.774-9.042-6.892-6.308a1.96 1.96 0 0 1-.554-2.084 1.96 1.96 0 0 1 1.661-1.375l9.417-1.155 3.682-7.648H3.99c-1.092 0-2-.9-2-1.999V1.99c0-1.1.9-2 2-2zm13.004 10.153l-4.5 9.346-10.501 1.288 7.719 7.066-1.989 10.143 9.271-4.981 9.272 4.981-1.989-10.143 7.719-7.066-10.501-1.288-4.501-9.346zM3.992 1.99v6.001h26.005V1.99H3.992z" class="seopult-icon award-i"/></svg>