<svg xmlns="http://www.w3.org/2000/svg" preserveAspectRatio="xMidYMid" width="40" height="40" viewBox="0 0 40 40"><defs><style>.bag-i{fill:#f90;fill-rule:evenodd}</style></defs><path d="M40 20v17.999c0 1.1-.9 2-2 2H2c-1.1 0-2-.9-2-2v-30c0-1.1.9-2 2-2h12V2a2 2 0 0 1 2-2.001h8A2 2 0 0 1 26 2v3.999h12c1.1 0 2 .9 2 2V20zm-2 17.999V20h-6v2a2 2 0 0 1-2 1.999h-4A2 2 0 0 1 24 22v-2h-8v2a2 2 0 0 1-2 1.999h-4A2 2 0 0 1 8 22v-2H2v17.999h36zM30 18v-2.001h-4V22h4v-4zm-16 0v-2.001h-4V22h4v-4zM24 2h-8v3.999h8V2zm14 5.999H2V18h6v-2.001A2 2 0 0 1 10 14h4a2 2 0 0 1 2 1.999V18h8v-2.001A2 2 0 0 1 26 14h4a2 2 0 0 1 2 1.999V18h6V7.999z" class="seopult-icon bag-i"/></svg>