<svg xmlns="http://www.w3.org/2000/svg" preserveAspectRatio="xMidYMid" width="40" height="40" viewBox="0 0 40 40"><defs><style>.block-i{fill:#f90;fill-rule:evenodd}</style></defs><path d="M25 40c-8.284 0-15-6.716-15-15 0-8.284 6.716-15 15-15 8.284 0 15 6.716 15 15 0 8.284-6.716 15-15 15zm0-2c3.23 0 6.184-1.178 8.458-3.128L25 26.414l-8.458 8.458A12.948 12.948 0 0 0 25 38zM12 25c0 3.23 1.178 6.185 3.128 8.458L23.586 25l-8.458-8.458A12.946 12.946 0 0 0 12 25zm13-13c-3.23 0-6.184 1.178-8.458 3.128L25 23.586l8.458-8.458A12.948 12.948 0 0 0 25 12zm9.872 4.542L26.414 25l8.458 8.458A12.946 12.946 0 0 0 38 25c0-3.23-1.178-6.184-3.128-8.458zM8.012 12a6.001 6.001 0 1 1 0-12.003 6.001 6.001 0 0 1 0 12.003zm0-10.001a4.001 4.001 0 1 0 0 8.002 4.001 4.001 0 0 0 0-8.002zM4.011 14.007v-.008h8.002c.012 0 .022.006.033.007A16.964 16.964 0 0 0 10.597 16H4.011l-2 11h3.001l1 11h4.001l.392-4.315a17.054 17.054 0 0 0 1.778 2.459l-.185 2.035a1.994 1.994 0 0 1-1.985 1.813V40H6.012a2.001 2.001 0 0 1-2.001-1.991L3.192 29H2.011a2 2 0 0 1-1.928-2.535L2.05 15.648a1.993 1.993 0 0 1 1.961-1.641z" class="seopult-icon block-i"/></svg>