<svg xmlns="http://www.w3.org/2000/svg" preserveAspectRatio="xMidYMid" width="40" height="40" viewBox="0 0 40 40"><defs><style>.code-i{fill:#f90;fill-rule:evenodd}</style></defs><path d="M38 40H2c-1.1 0-2-.9-2-2V2C0 .9.9 0 2 0h36c1.1 0 2 .9 2 2v36c0 1.1-.9 2-2 2zm0-38H2v6h36V2zm0 8H2v28h36V10zm-23.293 9.707L10.414 24l4.293 4.293-1.414 1.414L7.586 24l5.707-5.707 1.414 1.414zm8.262-3.465l-4.001 16-1.938-.484 4.001-16 1.938.484zm2.324 3.465l1.414-1.414L32.413 24l-5.706 5.707-1.414-1.414L29.586 24l-4.293-4.293zM6 6H4V4h2v2zm4 0H8V4h2v2zm4 0h-2V4h2v2z" class="seopult-icon code-i"/></svg>