<svg xmlns="http://www.w3.org/2000/svg" preserveAspectRatio="xMidYMid" width="40" height="40" viewBox="0 0 40 40"><defs><style>.controls-i{fill:#f90;fill-rule:evenodd}</style></defs><path d="M38 39.999H2c-1.1 0-2-.899-2-1.999V2C0 .9.9 0 2 0h36c1.1 0 2 .9 2 2v36c0 1.1-.9 1.999-2 1.999zM38 2H2v36h36V2zM20 6a3.99 3.99 0 0 1 3.858 3H32v2h-8.142A3.99 3.99 0 0 1 20 14a3.991 3.991 0 0 1-3.859-3H8V9h8.141A3.991 3.991 0 0 1 20 6zm0 6a2 2 0 1 0 .001-3.999A2 2 0 0 0 20 12zm-6 4a3.99 3.99 0 0 1 3.858 3H32v2H17.858A3.99 3.99 0 0 1 14 24a3.991 3.991 0 0 1-3.859-3H8v-2h2.141A3.991 3.991 0 0 1 14 16zm0 6a2 2 0 1 0 0-4 2 2 0 0 0 0 4zm12 4c1.862 0 3.412 1.278 3.859 3H32v2h-2.141c-.447 1.722-1.997 3-3.859 3a3.991 3.991 0 0 1-3.859-3H8v-2h14.141A3.991 3.991 0 0 1 26 26zm0 6a2 2 0 1 0 0-4 2 2 0 0 0 0 4z" class="seopult-icon controls-i"/></svg>