<svg xmlns="http://www.w3.org/2000/svg" preserveAspectRatio="xMidYMid" width="40" height="40" viewBox="0 0 40 40"><defs><style>.dictionary-i{fill:#f90;fill-rule:evenodd}</style></defs><path d="M38 40H2a2 2 0 0 1-2-2V2a2 2 0 0 1 2-2h36a2 2 0 0 1 2 2v36a2 2 0 0 1-2 2zM19 2H2v36h17V2zm19 0H21v36h17V2zM25 18a4 4 0 0 1 4-4h5v12h-2v-4h-2.125l-2.4 4h-2.467l2.564-4.274A3.992 3.992 0 0 1 25 18zm4 2h3v-4h-3a2 2 0 1 0 0 4zM9.579 14h2.08l4.345 12h-2.08l-1.086-3H8.162l-1.086 3h-2.08l4.345-12h.238zm2.535 7L10.5 16.543 8.886 21h3.228z" class="seopult-icon dictionary-i"/></svg>