<svg xmlns="http://www.w3.org/2000/svg" preserveAspectRatio="xMidYMid" width="40" height="40" viewBox="0 0 40 40"><defs><style>.education-i{fill:#f90;fill-rule:evenodd}</style></defs><path d="M38 36H24v-2h14V2H2v34a2 2 0 0 1-2-2V2a2 2 0 0 1 2-2h36a2 2 0 0 1 2 2v32a2 2 0 0 1-2 2zM6 13a7 7 0 1 1 14 0 7 7 0 0 1-14 0zm12 0a5 5 0 1 0-10.001.001A5 5 0 0 0 18 13zM6 22h25a3 3 0 1 1 0 6h-9v10a2 2 0 0 1-2 2H6a2 2 0 0 1-2-2V24a2 2 0 0 1 2-2zm0 6v10h14V28a2 2 0 0 1 2-2h9a1 1 0 0 0 0-2H6v4z" class="seopult-icon education-i"/></svg>