<svg xmlns="http://www.w3.org/2000/svg" preserveAspectRatio="xMidYMid" width="40" height="40" viewBox="0 0 40 40"><defs><style>.gift-i{fill:#ff9b06;fill-rule:evenodd}</style></defs><path d="M2 8.001h5.001a5.084 5.084 0 0 1-.618-1.088 4.978 4.978 0 0 1 1.082-5.444l.003-.004A4.98 4.98 0 0 1 12.913.381a5.035 5.035 0 0 1 1.622 1.084L20 6.93l5.465-5.465A5.003 5.003 0 0 1 29 0c1.377 0 2.627.56 3.532 1.465l.003.004a4.978 4.978 0 0 1 1.082 5.444 5.084 5.084 0 0 1-.618 1.088H38c1.1 0 2 .9 2 2v6c0 1.1-.9 2-1.999 2V38c0 1.098-.902 2-2 2H4c-1.099 0-2-.9-2-2V18.001c-1.1 0-2-.9-2-2v-6c0-1.1.9-2 2-2zm19.757 0h8.486l.878-.879c.281-.28.505-.61.654-.971v-.004C31.919 5.798 32 5.41 32 5a2.997 2.997 0 0 0-3-3c-.41 0-.798.081-1.147.225h-.004c-.36.149-.69.373-.971.654l-5.121 5.122zm-12 0h8.486l-5.122-5.122a2.988 2.988 0 0 0-.97-.654h-.004A3.007 3.007 0 0 0 11 2a2.997 2.997 0 0 0-3 3c0 .41.08.798.225 1.147v.004c.149.361.373.691.654.971l.878.879zm16.249 2v6H38v-6H26.006zm0 8.001V38h9.995V18.002h-9.995zM14 38V18.002H4V38h10zm0-21.999v-6H2v6h12zm2 21.997h8.006V18.002H16v19.996zm8.006-21.997v-6H16v6h8.006z" class="seopult-icon gift-i"/></svg>