<svg xmlns="http://www.w3.org/2000/svg" preserveAspectRatio="xMidYMid" width="40" height="40" viewBox="0 0 40 40"><defs><style>.hand-i{fill:#f90;fill-rule:evenodd}</style></defs><path d="M26.795 39.998H2.003c-1.101 0-2-.898-2-2V14.996c0-1.101.899-2 2-2h6.819l6.016-10.054a6.02 6.02 0 0 1 5.166-2.947 6 6 0 0 1 5.838 7.388l-1.316 5.613h9.478c2.112 0 3.926.996 5.061 2.777 1.134 1.781 1.269 3.847.376 5.761l-7 15.001c-1.045 2.24-3.261 3.559-5.646 3.463zm.209-1.997a3.959 3.959 0 0 0 3.625-2.312l7-15.001c.595-1.276.505-2.653-.251-3.84-.756-1.188-1.966-1.852-3.374-1.852H22.003l1.892-8.069a4 4 0 0 0-7.341-2.957l-6.551 10.946v23.082l17.001.003zM4.003 35.998h2v-2h-2v2zm4 2V14.996h-6v23.002h6z" class="seopult-icon hand-i"/></svg>