<svg xmlns="http://www.w3.org/2000/svg" preserveAspectRatio="xMidYMid" width="40" height="40" viewBox="0 0 40 40"><defs><style>.lamp-i{fill:#f90;fill-rule:evenodd}</style></defs><path d="M16 40h8c1.1 0 2-.9 2-2v-7.608c3.587-2.075 6-5.951 6-10.393C32 13.372 26.628 8 20 8 13.373 8 8 13.372 8 19.999c0 4.442 2.414 8.318 6 10.393V38c0 1.097.9 2 2 2zm0-4.001h8V38h-8v-2.001zm8-2h-8v-2h8v2zm0-4h-8v-.833a10 10 0 0 1-6-9.167C10 14.477 14.477 10 20 10s10 4.477 10 9.999a10 10 0 0 1-6 9.167v.833zm9.435 4.849l-2.828-2.828 1.414-1.414 2.828 2.828-1.414 1.414zM7.979 9.393L5.151 6.565l1.414-1.414 2.828 2.828-1.414 1.414zM5.151 33.434l2.828-2.828 1.414 1.414-2.828 2.828-1.414-1.414zM30.607 7.979l2.828-2.828 1.414 1.414-2.828 2.828-1.414-1.414zM19 4V0h2v4h-2zM0 18.999h4v2H0v-2zm36 0h4v2h-4v-2z" class="seopult-icon lamp-i"/></svg>