<svg xmlns="http://www.w3.org/2000/svg" preserveAspectRatio="xMidYMid" width="40" height="40" viewBox="0 0 40 40"><defs><style>.links-i{fill:#f90;fill-rule:evenodd}</style></defs><path d="M17.448 12.111l5.996 2.998a9.04 9.04 0 0 1 1.192-1.473A8.976 8.976 0 0 1 31 11a8.972 8.972 0 0 1 6.364 2.637A8.973 8.973 0 0 1 40 20a8.976 8.976 0 0 1-2.636 6.364A8.972 8.972 0 0 1 31 29a8.972 8.972 0 0 1-6.364-2.636 9.05 9.05 0 0 1-1.192-1.473l-5.996 2.999A8.98 8.98 0 0 1 18 31a8.976 8.976 0 0 1-2.636 6.364A8.975 8.975 0 0 1 9.001 40a8.974 8.974 0 0 1-6.364-2.636A8.972 8.972 0 0 1 .001 31a8.972 8.972 0 0 1 2.636-6.364A8.974 8.974 0 0 1 9.001 22a8.975 8.975 0 0 1 6.363 2.636c.446.447.846.941 1.192 1.473l5.996-2.998A8.99 8.99 0 0 1 22 20a8.98 8.98 0 0 1 .552-3.11l-5.996-2.999a9.04 9.04 0 0 1-1.192 1.473A8.972 8.972 0 0 1 9 18a8.972 8.972 0 0 1-6.364-2.636A8.974 8.974 0 0 1 0 9a8.976 8.976 0 0 1 2.636-6.364A8.976 8.976 0 0 1 9 0a8.976 8.976 0 0 1 6.364 2.636A8.976 8.976 0 0 1 18 9a8.985 8.985 0 0 1-.552 3.111zm18.502 2.94A6.979 6.979 0 0 0 31 13a6.98 6.98 0 0 0-4.95 2.05A6.982 6.982 0 0 0 24 20a6.98 6.98 0 0 0 2.05 4.95A6.976 6.976 0 0 0 31 27a6.978 6.978 0 0 0 4.95-2.05A6.98 6.98 0 0 0 38 20a6.978 6.978 0 0 0-2.05-4.949zm-22-11.001A6.98 6.98 0 0 0 9 2a6.982 6.982 0 0 0-4.95 2.05A6.982 6.982 0 0 0 2 9a6.98 6.98 0 0 0 2.05 4.95A6.982 6.982 0 0 0 9 16a6.98 6.98 0 0 0 4.95-2.05A6.98 6.98 0 0 0 16 9a6.982 6.982 0 0 0-2.05-4.95zm0 22A6.98 6.98 0 0 0 9.001 24a6.98 6.98 0 0 0-4.95 2.05A6.978 6.978 0 0 0 2.001 31c0 1.933.783 3.684 2.05 4.95A6.98 6.98 0 0 0 9.001 38a6.98 6.98 0 0 0 4.949-2.05A6.98 6.98 0 0 0 16 31a6.982 6.982 0 0 0-2.05-4.95z" class="seopult-icon links-i"/></svg>