<svg xmlns="http://www.w3.org/2000/svg" preserveAspectRatio="xMidYMid" width="40" height="40" viewBox="0 0 40 40"><defs><style>.loupe-i{fill:#f90;fill-rule:evenodd}</style></defs><path d="M34.715 30.727A17.947 17.947 0 0 1 21.985 36a17.895 17.895 0 0 1-9.572-2.775L6.81 38.829a4.002 4.002 0 0 1-5.657-5.658l5.603-5.603a17.894 17.894 0 0 1-2.774-9.572c0-4.971 2.015-9.472 5.273-12.73a17.947 17.947 0 0 1 12.73-5.273c4.971 0 9.472 2.015 12.73 5.273a17.947 17.947 0 0 1 5.273 12.73c0 4.972-2.015 9.473-5.273 12.731zM2.567 34.586a2 2 0 1 0 2.829 2.828l5.359-5.359a18.197 18.197 0 0 1-1.5-1.328c-.473-.473-.91-.978-1.328-1.501l-5.36 5.36zM33.301 6.68a15.957 15.957 0 0 0-11.316-4.687c-4.419 0-8.42 1.792-11.316 4.687a15.957 15.957 0 0 0-4.687 11.316c0 4.42 1.792 8.421 4.687 11.317A15.957 15.957 0 0 0 21.985 34c4.419 0 8.42-1.792 11.316-4.687a15.958 15.958 0 0 0 4.687-11.317c0-4.419-1.792-8.42-4.687-11.316z" class="seopult-icon loupe-i"/></svg>