<svg xmlns="http://www.w3.org/2000/svg" preserveAspectRatio="xMidYMid" width="40" height="40" viewBox="0 0 40 40"><defs><style>.megaphone-i{fill:#f90;fill-rule:evenodd}</style></defs><path d="M38.944 37.757a1.958 1.958 0 0 1-2.053-.099l-14.497-9.656H17v8.001a4 4 0 0 1-7.999 0v-8H9c-4.97 0-9-4.03-9-8.996 0-4.967 4.03-8.994 9-8.994l13.393-.002L36.891.356a1.956 1.956 0 0 1 2.053-.099A1.954 1.954 0 0 1 40 2.019v33.976c0 .756-.389 1.405-1.056 1.762zm-27.943-1.754a1.999 1.999 0 0 0 3.999 0v-7.996h-3.999v7.996zM21 12.01l-12 .001c-3.866 0-7 3.132-7 6.996a7 7 0 0 0 7 6.997h12V12.01zm17-9.991l-15 9.99v13.996l15 9.99V2.019z" class="seopult-icon megaphone-i"/></svg>