<svg xmlns="http://www.w3.org/2000/svg" preserveAspectRatio="xMidYMid" width="40" height="40" viewBox="0 0 40 40"><defs><style>.microchip-i{fill:#f90;fill-rule:evenodd}</style></defs><path d="M36 31v-2h4v2h-4zm0-7h4v2h-4v-2zm0-5h4v2h-4v-2zm0-5h4v2h-4v-2zm0-5h4v2h-4V9zm-2 26.999H6c-1.1 0-2-.899-2-1.999v-3H0v-2h4v-3H0v-2h4v-3H0v-2h4v-3H0v-2h4v-3H0V9h4V6c0-1.1.9-2 2-2h3V0h2v4h3V0h2v4h3V0h2v4h3V0h2v4h3V0h2v4h3c1.1 0 2 .9 2 2v28c0 1.1-.9 1.999-2 1.999zM34 6H6v28h28V6zM11 40H9v-4h2v4zm5 0h-2v-4h2v4zm5 0h-2v-4h2v4zm5 0h-2v-4h2v4zm5 0h-2v-4h2v4z" class="seopult-icon microchip-i"/></svg>