<svg xmlns="http://www.w3.org/2000/svg" preserveAspectRatio="xMidYMid" width="40" height="40" viewBox="0 0 40 40"><defs><style>.people-i{fill:#f90;fill-rule:evenodd}</style></defs><path d="M39.415 39.413a1.93 1.93 0 0 1-1.414.587H1.999a1.93 1.93 0 0 1-1.414-.587A1.931 1.931 0 0 1 0 37.998l.008-7a1.964 1.964 0 0 1 1.172-1.819l10.996-5a1.969 1.969 0 0 1 2.241.407L20 30.172l5.583-5.586a1.969 1.969 0 0 1 2.241-.407l10.996 5a1.964 1.964 0 0 1 1.172 1.819l.008 7c0 .551-.195 1.025-.585 1.415zM37.992 31l-10.995-5L20 33l-6.997-7-10.996 5-.008 7h36.002l-.009-7zM20 23.999c-4.951 0-8.996-4.046-8.996-8.999V9c0-4.954 4.044-9 8.996-9 4.951 0 8.996 4.046 8.996 9v6c0 4.952-4.046 8.999-8.996 8.999zM26.997 9c0-3.849-3.149-7-6.997-7-3.849 0-6.997 3.15-6.997 7v6c0 3.85 3.15 7 6.997 7s6.997-3.152 6.997-7V9z" class="seopult-icon people-i"/></svg>