<svg xmlns="http://www.w3.org/2000/svg" preserveAspectRatio="xMidYMid" width="40" height="40" viewBox="0 0 40 40"><defs><style>.piggy-i{fill:#f90;fill-rule:evenodd}</style></defs><path d="M38 25h-1.215C33.879 31.96 26.449 36 19 36c-7.334 0-14.649-3.882-17.68-10.759A15.437 15.437 0 0 1 0 19c0-2.155.451-4.269 1.32-6.241C4.351 5.882 11.666 2.001 19 2.001c2.346 0 4.681.382 6.894 1.153L29.85.627c.793-.506 1.182-.626 2.149-.626C34.332 0 35 2.089 35 3.994c.007 1.954.02 3.908.022 5.862A16.18 16.18 0 0 1 37.165 14H38c1.102 0 2 .899 2 2v7c0 1.101-.898 2-2 2zm0-9h-2.34c-.46-2-1.372-3.856-2.637-5.481C33.023 8.338 33 4 33 4c0-.646 0-2-1-1.999-.75 0-.763.114-1.073.312l-4.801 3.065A18.859 18.859 0 0 0 19 4C9.611 4 2 10.716 2 19c0 8.284 7.611 15 17 15 7.819 0 14.404-4.658 16.388-11H38v-7zM15 8h-1V6h10v2h-9zm-5 30h8c0 1.1-.9 2-2 2h-6c-1.101 0-2-.901-2-2v-2.813a21.81 21.81 0 0 0 2 .983V38zm18-1.83a21.315 21.315 0 0 0 2-.984V38c0 1.1-.899 2-2 2h-6c-1.1 0-2-.9-2-2h8v-1.83z" class="seopult-icon piggy-i"/></svg>