<svg xmlns="http://www.w3.org/2000/svg" preserveAspectRatio="xMidYMid" width="40" height="40" viewBox="0 0 40 40"><defs><style>.question-i{fill:#f90;fill-rule:evenodd}</style></defs><path d="M9.605 37.088l-5.275.885a1.948 1.948 0 0 1-1.745-.558 1.948 1.948 0 0 1-.558-1.745l.885-5.275A19.917 19.917 0 0 1 0 20C0 8.955 8.955 0 20 0s20 8.955 20 20-8.955 20-20 20a19.917 19.917 0 0 1-10.395-2.912zM13 17h2a4.98 4.98 0 0 1 1.461-3.536l.003-.004A4.984 4.984 0 0 1 20 12c1.383 0 2.634.558 3.536 1.46l.003.004A4.98 4.98 0 0 1 25 17a4.979 4.979 0 0 1-1.461 3.535l-.003.004A4.985 4.985 0 0 1 20 22h-1v4h2v-2.071a6.989 6.989 0 0 0 3.946-1.98l.004-.003A6.98 6.98 0 0 0 27 17a6.979 6.979 0 0 0-2.05-4.946l-.004-.004A6.98 6.98 0 0 0 20 10a6.98 6.98 0 0 0-4.946 2.05l-.004.004A6.979 6.979 0 0 0 13 17zm6 11v2h2v-2h-2zm1-26C10.059 2 2 10.058 2 20c0 3.687 1.109 7.115 3.011 9.969l-1.012 6.032 6.032-1.012A17.916 17.916 0 0 0 20 38c9.941 0 18-8.059 18-18 0-9.942-8.059-18-18-18z" class="seopult-icon question-i"/></svg>