<svg xmlns="http://www.w3.org/2000/svg" preserveAspectRatio="xMidYMid" width="40" height="40" viewBox="0 0 40 40"><defs><style>.rep-i{fill:#f90;fill-rule:evenodd}</style></defs><path d="M20 36.486l14.778-14.211A10.951 10.951 0 0 0 38 14.503c0-6.071-4.925-10.992-11-10.992-2.659 0-5.098.943-7 2.513a10.959 10.959 0 0 0-7-2.513c-6.075 0-11 4.921-11 10.992 0 3.035 1.231 5.783 3.222 7.772l1.025.948-1.457 1.372-.982-.907A13.025 13.025 0 0 1 0 14.503C0 7.329 5.821 1.512 13 1.512c2.471 0 4.918.721 7 2.048a13.082 13.082 0 0 1 7-2.048c7.179 0 13 5.817 13 12.991 0 3.433-1.378 6.757-3.808 9.185L21.414 37.899c-.781.78-2.047.78-2.828 0l-5.147-4.987 1.457-1.372L20 36.486zm-3.541-11.952a6.966 6.966 0 0 0 3.541.96 6.997 6.997 0 0 0 6.929-7.993l-4.304 4.015a3.999 3.999 0 0 1-5.454-5.842l4.304-4.014A7.097 7.097 0 0 0 20 11.505a6.998 6.998 0 0 0-6.269 10.11l-8.561 8.05c-.846.789-1.772 1.597-2.584 2.41-.362.362-.586.585-.586 1.413 0 .828 1.172 1.999 2 1.999.829 0 1.052-.224 1.414-.586l2.484-2.316 8.561-8.051zm.374 2.379a9.06 9.06 0 0 0 3.167.58c4.97 0 9-4.027 9-8.993a9.119 9.119 0 0 0-.094-1.28c-.234-1.64-2.238-2.275-3.385-1.133l-4.052 3.779c-.43.401-.877.633-1.469.633-1.124 0-2-.882-2-1.999 0-.669.253-1.108.734-1.556l4.1-3.824c.807-.75.852-2.012.101-2.818-.659-.708-1.997-.796-2.935-.796-4.97 0-9 4.027-9 8.994 0 .864.132 1.753.38 2.579l-7.569 7.126c-.219.204-2.633 2.463-2.639 2.457A4.067 4.067 0 0 0 0 33.488a3.999 3.999 0 0 0 4 3.997c1.042 0 2.153-.454 2.87-1.214l2.387-2.226 7.576-7.132z" class="seopult-icon rep-i"/></svg>