<svg xmlns="http://www.w3.org/2000/svg" preserveAspectRatio="xMidYMid" width="40" height="40" viewBox="0 0 40 40"><defs><style>.target-i{fill:#f90;fill-rule:evenodd}</style></defs><path d="M19.989 39.985c-1.478 0-2.918-.162-4.305-.466l.831-1.869c1.125.219 2.285.335 3.474.335 9.943 0 18.003-8.054 18.003-17.989S29.932 2.007 19.989 2.007c-9.944 0-18.004 8.054-18.004 17.989 0 1.187.116 2.347.336 3.471l-1.871.83a20.043 20.043 0 0 1-.465-4.301C-.015 8.957 8.941.008 19.989.008c11.047 0 20.004 8.949 20.004 19.988s-8.957 19.989-20.004 19.989zm3.087-22.532l-.001-.001a3.952 3.952 0 0 0-.12-.138l-.012-.013-.048-.051-.011-.012-.012-.013-.055-.056-.055-.054-.013-.012-.012-.011-.052-.048-.012-.012a3.785 3.785 0 0 0-.138-.119l-.002-.002-.001-.001a3.986 3.986 0 0 0-3.35-.83l-.018.004-.031.007a3.976 3.976 0 0 0-.846.286l-4.012 1.782A6.001 6.001 0 0 1 19.989 14a5.998 5.998 0 0 1 6.001 5.996 5.998 5.998 0 0 1-4.163 5.709l1.783-4.009c.126-.267.223-.55.287-.845l.007-.031.004-.018a3.977 3.977 0 0 0-.831-3.347l-.001-.002zm-16.018 3.91a13.126 13.126 0 0 1-.072-1.367c0-7.175 5.822-12.992 13.003-12.992 7.18 0 13.002 5.817 13.002 12.992 0 7.176-5.822 12.992-13.002 12.992-.463 0-.919-.024-1.369-.071l.862-1.939c.168.007.337.012.507.012 6.076 0 11.002-4.922 11.002-10.994 0-6.071-4.926-10.993-11.002-10.993-6.077 0-11.003 4.922-11.003 10.993 0 .17.005.338.012.506l-1.94.861zm-7.073 6.64a1.963 1.963 0 0 1 1.188-1.84l18.003-7.993a1.968 1.968 0 0 1 2.227.413c.597.596.756 1.454.413 2.225l-7.999 17.989a1.966 1.966 0 0 1-1.841 1.187 1.966 1.966 0 0 1-1.826-1.211l-.989-2.306-2.347 2.346a4.004 4.004 0 0 1-5.657 0 3.997 3.997 0 0 1 0-5.653l2.347-2.345-2.307-.988a1.964 1.964 0 0 1-1.212-1.824zm7.023 2.138l-4.437 4.433A1.999 1.999 0 1 0 5.4 37.4l4.436-4.433 2.153 5.018 8-17.989L1.986 27.99l5.022 2.151z" class="seopult-icon target-i"/></svg>