<svg xmlns="http://www.w3.org/2000/svg" preserveAspectRatio="xMidYMid" width="40" height="40" viewBox="0 0 40 40"><defs><style>.text-i{fill:#f90;fill-rule:evenodd}</style></defs><path d="M37 15l-1.793-1.793-15.5 15.5-1.414-1.414 15.5-15.5L32 10 15 26.999V29l3 3h2l17-17zM2 0h30c1.1 0 2 .9 2 2v4.171l-2-1.999V2H2v36h30V25.828l2-2V38c0 1.099-.9 2-2 2H2c-1.1 0-2-.9-2-2V2C0 .9.9 0 2 0zm4 32h7v-6L32 7l8 8-19 19H6v-2zm0-4v2h5v-2H6zm0-4v2h5v-.829L12.172 24H6zm0-4h10.172l-2 2H6v-2zM6 6h22v2.171l-2 2V8H8v8h12.171l-1.999 2H6V6z" class="seopult-icon text-i"/></svg>