<svg xmlns="http://www.w3.org/2000/svg" preserveAspectRatio="xMidYMid" width="36" height="40" viewBox="0 0 36 40"><defs><style>.time-i{fill:#ff9b06;fill-rule:evenodd}</style></defs><path d="M36 22c0 9.941-8.059 18-18 18S0 31.941 0 22C0 12.396 7.527 4.572 17 4.05V2h-3V0h8v2h-3v2.05a17.95 17.95 0 0 1 10.987 4.549l2.862-2.862 1.414 1.414-2.866 2.866C34.251 13.197 36 17.388 36 22zM18 6C9.163 6 2 13.163 2 22s7.163 16 16 16c8.836 0 16-7.163 16-16S26.836 6 18 6zm1 17.723V26h-2v-2.277c-.595-.347-1-.985-1-1.723 0-.738.405-1.376 1-1.723V10h2v10.277c.595.347 1 .985 1 1.723 0 .738-.405 1.376-1 1.723z" class="seopult-icon time-i"/></svg>