<svg xmlns="http://www.w3.org/2000/svg" preserveAspectRatio="xMidYMid" width="40" height="40" viewBox="0 0 40 40"><defs><style>.traf-i{fill:#f90;fill-rule:evenodd}</style></defs><path d="M27.987 16l-2.001 11h3.001l1 11h4.001l1-11h3.001l-2-11h-8.002zM3.981 16l-2 11h3l1.001 11h3.992l.032.36a3.99 3.99 0 0 0 .484 1.575 2.019 2.019 0 0 1-.507.065H5.982v-.008a1.992 1.992 0 0 1-1.985-1.813L3.162 29H1.981v-.008a1.993 1.993 0 0 1-1.962-2.344l1.97-10.831a2 2 0 0 1 1.992-1.818h4.536c-.265.46-.443.978-.508 1.533L7.924 16H3.981zM7.982 1.999c.345 0 .68.044 1 .127A8.035 8.035 0 0 1 10.234.437a6 6 0 1 0 0 11.126 8.017 8.017 0 0 1-1.252-1.689 4 4 0 1 1-1-7.875zM11.983 16h3.943l.085-.468a3.98 3.98 0 0 1 .508-1.533h-4.536a2 2 0 0 0-1.992 1.818l-1.97 10.831a1.993 1.993 0 0 0 1.961 2.344V29h1.182l.835 9.179a1.992 1.992 0 0 0 1.984 1.813V40h4.001c.176 0 .346-.023.508-.065a3.99 3.99 0 0 1-.484-1.575l-.033-.36h-3.992l-1-11H9.982l2.001-11zm4.001-14.001a4 4 0 1 0 1 7.875 8.017 8.017 0 0 0 1.252 1.689 6 6 0 1 1 0-11.126 8.035 8.035 0 0 0-1.252 1.689 3.978 3.978 0 0 0-1-.127zM19.985 16l-2.001 11h3.001l1.001 11h3.991l.033.36a3.99 3.99 0 0 0 .484 1.575 2.02 2.02 0 0 1-.508.065h-4v-.008A1.994 1.994 0 0 1 20 38.179L19.166 29h-1.182v-.008a1.992 1.992 0 0 1-1.961-2.344l1.97-10.831a2 2 0 0 1 1.992-1.818h4.536a3.98 3.98 0 0 0-.508 1.533l-.085.468h-3.943zm4.001-14.001c.345 0 .68.044 1 .127A8 8 0 0 1 26.238.437a6 6 0 1 0 0 11.126 8.017 8.017 0 0 1-1.252-1.689 4 4 0 1 1-1-7.875zm8.002 0a4.001 4.001 0 1 1 0 8.002 4.001 4.001 0 0 1 0-8.002zm-6.002 4A6 6 0 0 1 31.988 0a6 6 0 1 1 0 12 6 6 0 0 1-6.002-6.001zm-1.961 20.649l1.97-10.831a2 2 0 0 1 1.992-1.818h8.002v.008a1.993 1.993 0 0 1 1.961 1.641l1.967 10.817A2 2 0 0 1 37.989 29h-1.181l-.819 9.009A2.001 2.001 0 0 1 33.988 40h-4.001v-.008a1.994 1.994 0 0 1-1.985-1.813L27.168 29h-1.182v-.008a1.992 1.992 0 0 1-1.961-2.344z" class="seopult-icon traf-i"/></svg>