<svg xmlns="http://www.w3.org/2000/svg" preserveAspectRatio="xMidYMid" width="40" height="40" viewBox="0 0 40 40"><defs><style>.university-i{fill:#f90;fill-rule:evenodd}</style></defs><path d="M40 36v2a2 2 0 0 1-2 2H2a2 2 0 0 1-2-2v-2a2 2 0 0 1 2-2h2V11.999H2a2 2 0 0 1-2-2v-2c0-1.104.895-1.375 2-2l18-6 18 6c1.167.5 2 .896 2 2v2a2 2 0 0 1-2 2h-2V34h2a2 2 0 0 1 2 2zM2 38h36v-2H2v2zm19-26.001h-2v22h2v-22zM17 34V11.999h-7V34h7zm-11-.001h2v-22H6v22zm32-24v-2l-18-6-18 6v2h36zm-6 2v22h2v-22h-2zm-2 22v-22h-7V34h7v-.001z" class="seopult-icon university-i"/></svg>