<svg xmlns="http://www.w3.org/2000/svg" preserveAspectRatio="xMidYMid" width="40" height="40" viewBox="0 0 40 40"><defs><style>.video-i{fill:#f90;fill-rule:evenodd}</style></defs><path d="M38 40H2a2 2 0 0 1-2-2V2a2 2 0 0 1 2-2h36a2 2 0 0 1 2 2v36a2 2 0 0 1-2 2zm0-38H2v36h36V2zM7 6H5V4h2v2zm0 30H5v-2h2v2zm7-30h-2V4h2v2zm0 30h-2v-2h2v2zm0-20.976c0-.745.377-1.384 1.03-1.745a1.96 1.96 0 0 1 2.03.054l8 4.988c.602.375.94.983.94 1.691 0 .708-.338 1.317-.94 1.692l-8 4.986a1.96 1.96 0 0 1-2.03.053c-.653-.361-1.03-1-1.03-1.745v-9.974zm2 9.974l8-4.986-8-4.988v9.974zM21 36h-2v-2h2v2zm7 0h-2v-2h2v2zm7-30h-2V4h2v2zm0 30h-2v-2h2v2zM26 4h2v2h-2V4zm-7 0h2v2h-2V4z" class="seopult-icon video-i"/></svg>