<svg xmlns="http://www.w3.org/2000/svg" preserveAspectRatio="xMidYMid" width="40" height="40" viewBox="0 0 40 40"><defs><style>.wallet-i{fill:#f90;fill-rule:evenodd}</style></defs><path d="M38 40H2a2 2 0 0 1-2-2.001v-30a2 2 0 0 1 2-2h10.138L28.071.119a1.988 1.988 0 0 1 2.557 1.209l1.677 4.671H38a2 2 0 0 1 2 2v30A2 2 0 0 1 38 40zM28.753 2.02L17.97 5.999h12.212L28.753 2.02zM38 18.999h-8v8h8v-8zm0 10h-8a2 2 0 0 1-2-2v-8a2 2 0 0 1 2-2h8v-9H2v30h36v-9zm-4-7A1 1 0 1 1 33.999 24 1 1 0 0 1 34 22z" class="seopult-icon wallet-i"/></svg>