<svg xmlns="http://www.w3.org/2000/svg" xmlns:xlink="http://www.w3.org/1999/xlink" preserveAspectRatio="xMidYMid" width="16" height="14" viewBox="0 0 16 14">
  <defs>
    <style>
      .twitter-i {
        fill: #babcc2;
        fill-rule: evenodd;
      }
    </style>
  </defs>
  <path d="M16.004,1.657 C15.416,1.938 14.783,2.128 14.119,2.213 C14.797,1.776 15.317,1.084 15.562,0.259 C14.928,0.664 14.226,0.958 13.477,1.116 C12.879,0.429 12.025,0.001 11.081,0.001 C9.268,0.001 7.798,1.583 7.798,3.534 C7.798,3.810 7.827,4.079 7.883,4.339 C5.155,4.192 2.735,2.785 1.116,0.647 C0.833,1.170 0.672,1.776 0.672,2.423 C0.672,3.649 1.251,4.731 2.132,5.364 C1.594,5.346 1.088,5.187 0.645,4.922 C0.645,4.937 0.645,4.952 0.645,4.967 C0.645,6.678 1.776,8.106 3.278,8.431 C3.003,8.512 2.713,8.555 2.413,8.555 C2.202,8.555 1.996,8.533 1.796,8.492 C2.214,9.895 3.426,10.917 4.863,10.945 C3.739,11.893 2.324,12.458 0.785,12.458 C0.520,12.458 0.259,12.441 0.002,12.408 C1.455,13.410 3.181,13.996 5.035,13.996 C11.073,13.996 14.376,8.612 14.376,3.943 C14.376,3.789 14.373,3.638 14.366,3.486 C15.008,2.988 15.564,2.366 16.004,1.657 Z" class="social-i twitter-i"/>
</svg>
