<svg xmlns="http://www.w3.org/2000/svg" xmlns:xlink="http://www.w3.org/1999/xlink" preserveAspectRatio="xMidYMid" width="13" height="16" viewBox="0 0 13 16">
  <defs>
    <style>
      .vk-i {
        fill: #babcc2;
        fill-rule: evenodd;
      }
    </style>
  </defs>
  <path d="M3.872,9.587 L6.103,9.587 C7.074,9.587 8.141,9.954 8.141,11.190 C8.141,12.403 7.022,12.793 6.268,12.793 L3.872,12.793 L3.872,9.587 L3.872,9.587 ZM7.271,-0.002 L-0.003,-0.002 L-0.003,16.000 L7.628,16.000 C10.024,16.000 11.168,15.190 11.900,14.256 C12.632,13.322 12.998,12.261 12.998,11.073 C12.998,9.089 11.517,7.702 9.443,7.201 C10.335,6.959 11.006,6.692 11.456,6.047 C11.906,5.403 12.131,4.681 12.131,3.884 C12.131,2.790 11.744,2.128 10.969,1.276 C10.194,0.424 8.961,-0.002 7.271,-0.002 L7.271,-0.002 ZM3.872,3.174 L5.862,3.163 C6.957,3.163 7.512,3.976 7.503,4.777 C7.492,5.723 7.178,6.381 5.944,6.381 L3.872,6.381 L3.872,3.174 Z" class="social-i vk-i"/>
</svg>
