<svg xmlns="http://www.w3.org/2000/svg" preserveAspectRatio="xMidYMid" width="16" height="14" viewBox="0 0 16 14"><defs><style>.twitter-i{fill:#babcc2;fill-rule:evenodd}</style></defs><path d="M16.004 1.657a6.185 6.185 0 0 1-1.885.556A3.506 3.506 0 0 0 15.562.259a6.274 6.274 0 0 1-2.085.857C12.879.429 12.025.001 11.081.001c-1.813 0-3.283 1.582-3.283 3.533 0 .276.029.545.085.805C5.155 4.192 2.735 2.785 1.116.647a3.723 3.723 0 0 0-.444 1.776c0 1.226.579 2.308 1.46 2.941a3.09 3.09 0 0 1-1.487-.442v.045c0 1.711 1.131 3.139 2.633 3.464a3.055 3.055 0 0 1-1.482.061c.418 1.403 1.63 2.425 3.067 2.453-1.124.948-2.539 1.513-4.078 1.513-.265 0-.526-.017-.783-.05a8.827 8.827 0 0 0 5.033 1.588c6.038 0 9.341-5.384 9.341-10.053 0-.154-.003-.305-.01-.457a6.954 6.954 0 0 0 1.638-1.829z" class="social-i twitter-i"/></svg>