<svg xmlns="http://www.w3.org/2000/svg" preserveAspectRatio="xMidYMid" width="13" height="16" viewBox="0 0 13 16"><defs><style>.vk-i{fill:#babcc2;fill-rule:evenodd}</style></defs><path d="M3.872 9.587h2.231c.971 0 2.038.367 2.038 1.603 0 1.213-1.119 1.603-1.873 1.603H3.872V9.587zM7.271-.002H-.003V16h7.631c2.396 0 3.54-.81 4.272-1.744a5.023 5.023 0 0 0 1.098-3.183c0-1.984-1.481-3.371-3.555-3.872.892-.242 1.563-.509 2.013-1.154a3.69 3.69 0 0 0 .675-2.163c0-1.094-.387-1.756-1.162-2.608C10.194.424 8.961-.002 7.271-.002zM3.872 3.174l1.99-.011c1.095 0 1.65.813 1.641 1.614-.011.946-.325 1.604-1.559 1.604H3.872V3.174z" class="social-i vk-i"/></svg>