<svg xmlns="http://www.w3.org/2000/svg" width="2000" height="1400" viewBox="0 0 2000 1400">
  <defs>
    <style>
      .headline-bg {
        fill: #383d42;
        fill-rule: evenodd;
      }
    </style>
  </defs>
  <path id="back" fill="#383d42" class="headline-bg" d="M2240.78,562.921a5,5,0,0,1,1.92,9.618q4.1,21.254,7.3,42.827v14.267q-3.84-28.608-9.26-56.712a5,5,0,0,1,.04-10h0ZM2250,914.528C2218.55,1126.66,2121.21,1317.31,1979.45,1465h-2.78C2122,1314.17,2220.8,1118.2,2250,900.2v14.331h0ZM520.553,1465C378.791,1317.31,281.451,1126.66,250,914.529V900.2c29.2,218,128,413.972,273.332,564.8h-2.779ZM250,615.365q3.2-21.57,7.3-42.827a5,5,0,1,1,1.961.381q-5.415,28.1-9.26,56.712V615.365h0Zm1991.39-44.338a2.071,2.071,0,0,1,.54-0.334,3,3,0,1,0-1.17.228,2,2,0,0,1,.63.106h0ZM1923.56,312a3,3,0,1,1-3,3,3,3,0,0,1,3-3h0ZM376.866,1345.5a3,3,0,1,0,3,3,3,3,0,0,0-3-3h0ZM1388.91,554a3,3,0,1,1-3,3,3,3,0,0,1,3-3h0Zm-1130.3,17.025a2.028,2.028,0,0,1,.632-0.106,3,3,0,1,0-1.176-.228,2.055,2.055,0,0,1,.544.334h0Zm274.674,54.637a2.04,2.04,0,0,1,.633-0.107,2.994,2.994,0,1,0-1.176-.226,2.006,2.006,0,0,1,.543.333h0ZM703.3,222.779a2.038,2.038,0,0,1,.587.263,2.994,2.994,0,1,0-.857-0.846,1.987,1.987,0,0,1,.27.583h0ZM2154.63,156.742a2.126,2.126,0,0,1-.38.521,3.015,3.015,0,1,0,1-.672,2.141,2.141,0,0,1-.62.151h0ZM278.469,1164a2.047,2.047,0,0,1-.467.43,3,3,0,1,0,1.671-.51,2.708,2.708,0,0,0-.566.06,2.286,2.286,0,0,1-.638.02h0Zm39.394-788.53a2,2,0,0,1-.635-0.025,3.073,3.073,0,0,0-.59-0.058,3,3,0,1,0,1.69.521,2.025,2.025,0,0,1-.465-0.438h0ZM2088.1,201.192a1.837,1.837,0,0,1-.37.52,2.985,2.985,0,1,0,.99-0.67,2.023,2.023,0,0,1-.62.15h0ZM2202.15,951.17a2.06,2.06,0,0,1-.63.105,3,3,0,1,0,1.17.228,2.1,2.1,0,0,1-.54-0.333h0ZM2147.6,396.625a2.142,2.142,0,0,1,.47-0.434,3,3,0,1,0-1.67.508,2.954,2.954,0,0,0,.56-0.053,2.063,2.063,0,0,1,.64-0.021h0Zm-92.76,909.955a2.247,2.247,0,0,1,.62.15,3,3,0,1,0-1.85-2.77,2.991,2.991,0,0,0,.86,2.1,2.061,2.061,0,0,1,.37.52h0ZM566.351,1453.12a1.993,1.993,0,0,1,.264-0.58,3.008,3.008,0,1,0-.849.85,2.243,2.243,0,0,1,.585-0.27h0ZM352.4,1133.37a1.883,1.883,0,0,1-.467.44,3,3,0,1,0,1.671-.51,3.588,3.588,0,0,0-.567.05,1.714,1.714,0,0,1-.637.02h0Zm0-736.745a2.038,2.038,0,0,1,.636.021,3.084,3.084,0,0,0,.567.053,3,3,0,1,0-1.671-.508,2.046,2.046,0,0,1,.468.434h0ZM566.351,76.876a2.019,2.019,0,0,1-.584-0.268,3,3,0,1,0,.849.854,2.03,2.03,0,0,1-.265-0.585h0ZM338.328,949.569a2.018,2.018,0,0,1,.541-0.338,3,3,0,1,0-1.174.238,2.036,2.036,0,0,1,.633.1h0Zm0-369.139a2.036,2.036,0,0,1-.633.1,2.995,2.995,0,1,0,1.174.237,2.031,2.031,0,0,1-.541-0.337h0ZM2139.98,768.165a2.058,2.058,0,0,1,.6-0.222,3,3,0,1,0-1.2-.007,1.994,1.994,0,0,1,.6.229h0ZM508.165,1256.88a2.012,2.012,0,0,1-.376.51,3,3,0,1,0,2.126-.88,2.924,2.924,0,0,0-1.13.22,2.291,2.291,0,0,1-.62.15h0ZM2071.24,421.405a2.1,2.1,0,0,1-.46.437,2.972,2.972,0,1,0,1.1-.463,2.067,2.067,0,0,1-.64.026h0ZM465.723,1093.28a2.032,2.032,0,0,1,.464-0.43,3,3,0,1,0-1.69.52,2.924,2.924,0,0,0,.59-0.06,2.28,2.28,0,0,1,.636-0.03h0ZM1958.57,1234.65a2.075,2.075,0,0,1-.62-0.15,3.113,3.113,0,0,0-1.13-.22,3,3,0,1,0,2.13.89,2.1,2.1,0,0,1-.38-0.52h0ZM400.02,761.836a2.009,2.009,0,0,1-.6.22,3,3,0,1,0,1.2.007,2.024,2.024,0,0,1-.6-0.227h0ZM500.259,457.871a2.042,2.042,0,0,1,.637.02,3,3,0,1,0-1.1-.454,2.041,2.041,0,0,1,.467.434h0ZM679.488,190.013a2.037,2.037,0,0,1-.584-0.268,2.995,2.995,0,1,0,.849.853,2.021,2.021,0,0,1-.265-0.585h0ZM1697.42,89.69a1.966,1.966,0,0,1-.14.621,2.916,2.916,0,0,0-.22,1.129,2.995,2.995,0,1,0,.88-2.126,1.886,1.886,0,0,1-.52.376h0ZM824.8,122.953a2.033,2.033,0,0,1-.518-0.376,2.989,2.989,0,1,0,.663,1,2.061,2.061,0,0,1-.145-0.621h0ZM2019.98,761.836a1.965,1.965,0,0,1-.6.227,3,3,0,1,0,1.2-.007,1.954,1.954,0,0,1-.6-0.22h0Zm-59.63,300.824a1.922,1.922,0,0,1,.63.03,3.915,3.915,0,0,0,.59.05,3,3,0,1,0-1.69-.52,2.474,2.474,0,0,1,.47.44h0ZM819.542,1403.53a1.993,1.993,0,0,1-.149.62,3,3,0,1,0,2.773-1.85,2.961,2.961,0,0,0-2.1.86,2.065,2.065,0,0,1-.521.37h0ZM611.414,1195.56a2.009,2.009,0,0,1,.343-0.55,3,3,0,1,0-5.257-1.97,3,3,0,0,0,3,3,2.941,2.941,0,0,0,1.3-.3,1.731,1.731,0,0,1,.612-0.18h0Zm1355.3-569.9a1.97,1.97,0,0,1,.55-0.333,3,3,0,1,0-1.18.227,2.03,2.03,0,0,1,.63.106h0ZM1768.42,1278.94a1.935,1.935,0,0,1-.59-0.26,3,3,0,1,0,1.36,2.51,2.947,2.947,0,0,0-.5-1.66,1.838,1.838,0,0,1-.27-0.59h0Zm-1032.362,4.48a2,2,0,0,1,.264-0.59,2.976,2.976,0,1,0-.848.86,1.727,1.727,0,0,1,.584-0.27h0ZM1855.27,356.768a2.089,2.089,0,0,1-.38.521,3.019,3.019,0,1,0,1-.671,2.106,2.106,0,0,1-.62.15h0ZM576.617,482.65a2.041,2.041,0,0,1-.636-0.025,3,3,0,1,0,1.1.463,2.069,2.069,0,0,1-.465-0.438h0ZM1740.13,279.343a2.251,2.251,0,0,1,.27-0.584,2.982,2.982,0,1,0-.85.848,1.993,1.993,0,0,1,.58-0.264h0ZM613.582,1032.04a2.05,2.05,0,0,1,.464-0.44,3,3,0,1,0-1.69.52,2.924,2.924,0,0,0,.59-0.06,1.949,1.949,0,0,1,.636-0.02h0Zm-53.569-270.2a2.008,2.008,0,0,1-.6.222,3,3,0,1,0,1.2,0,2.021,2.021,0,0,1-.6-0.227h0ZM863.993,193a2.038,2.038,0,0,1,.521.371,2.985,2.985,0,1,0-.671-0.991,2.029,2.029,0,0,1,.15.62h0ZM1118.47,87.526a2.089,2.089,0,0,1-.34-0.544,3,3,0,1,0,.23,1.177,1.9,1.9,0,0,1,.11-0.633h0Zm392.72,38.631a1.956,1.956,0,0,1-.02.637,3.54,3.54,0,0,0-.05.564,3.008,3.008,0,1,0,.51-1.669,2.114,2.114,0,0,1-.44.468h0Zm-718.563,177a2.049,2.049,0,0,1-.583-0.269,3,3,0,1,0,.848.855,2.026,2.026,0,0,1-.265-0.586h0ZM744.52,423.445a2.059,2.059,0,0,1-.619-0.15,3.006,3.006,0,1,0,.991.671,2.042,2.042,0,0,1-.372-0.521h0ZM707.74,1123.52a2.061,2.061,0,0,1-.376.52,3,3,0,1,0,2.125-.88,2.91,2.91,0,0,0-1.128.22,1.966,1.966,0,0,1-.621.14h0ZM1888.23,888.727a1.954,1.954,0,0,1-.63.107,2.994,2.994,0,1,0,1.18.227,2.157,2.157,0,0,1-.55-0.334h0Zm-99.49,240.053a2.247,2.247,0,0,1,.62.15,3.064,3.064,0,0,0,1.15.23,3,3,0,1,0-2.14-.9,1.837,1.837,0,0,1,.37.52h0Zm-174.96,174.96a2.061,2.061,0,0,1-.52-0.37,3,3,0,1,0,.9,2.14,3.064,3.064,0,0,0-.23-1.15,2.247,2.247,0,0,1-.15-0.62h0Zm-240.05,99.5a1.954,1.954,0,0,1,.33.54,3,3,0,1,0-.23-1.18,2.254,2.254,0,0,1-.1.64h0Zm-369.61-36.36a1.975,1.975,0,0,1,.02-0.64,3.43,3.43,0,0,0,.05-0.56,3,3,0,1,0-.51,1.67,1.98,1.98,0,0,1,.44-0.47h0Zm565.21-1074.1a1.972,1.972,0,0,1,.15-0.62,3.031,3.031,0,0,0,.23-1.151,3,3,0,1,0-.9,2.143,2.02,2.02,0,0,1,.52-0.372h0Zm85.95,873.016a1.935,1.935,0,0,1-.59-0.26,2.984,2.984,0,1,0,.86.85,1.838,1.838,0,0,1-.27-0.59h0Zm-190.02,127.15a1.944,1.944,0,0,1,.43.47,3.009,3.009,0,1,0-.5-1.67,2.594,2.594,0,0,0,.05.56,1.975,1.975,0,0,1,.02.64h0Zm-323.38,31.81a2.254,2.254,0,0,1-.1-0.64,3,3,0,1,0-.23,1.18,1.954,1.954,0,0,1,.33-0.54h0Zm-211.21-87.54a2.141,2.141,0,0,1-.151.62,2.95,2.95,0,0,0-.228,1.15,2.987,2.987,0,1,0,.9-2.15,2.089,2.089,0,0,1-.521.38h0ZM1358.12,205.245a2.182,2.182,0,0,1,.1.632,3.007,3.007,0,1,0,.23-1.177,2.06,2.06,0,0,1-.33.545h0ZM811.047,1062.1a2.23,2.23,0,0,1,.371-0.52,3,3,0,1,0-2.143.9,2.856,2.856,0,0,0,1.152-.23,2.291,2.291,0,0,1,.62-0.15h0ZM1779.98,768.165a2.058,2.058,0,0,1,.6-0.222,3,3,0,1,0-1.2-.007,1.994,1.994,0,0,1,.6.229h0Zm-1059.965-6.33a2.031,2.031,0,0,1-.6.222,3,3,0,1,0,1.205.006,2.023,2.023,0,0,1-.6-0.228h0Zm324.2-485.393a2.011,2.011,0,0,1,.43.464,3,3,0,1,0-.52-1.69,2.924,2.924,0,0,0,.06.59,2.28,2.28,0,0,1,.03.636h0Zm208.95-41.425a2.36,2.36,0,0,1-.22-0.6,2.986,2.986,0,1,0,0,1.2,2.013,2.013,0,0,1,.22-0.6h0ZM1688.95,467.9a1.846,1.846,0,0,1-.37.522,2.983,2.983,0,1,0,.99-0.672,1.994,1.994,0,0,1-.62.15h0ZM1524.88,1170.69a1.9,1.9,0,0,1-.52-0.37,3,3,0,1,0,.9,2.14,3.064,3.064,0,0,0-.23-1.15,1.94,1.94,0,0,1-.15-0.62h0Zm130.81-130.81a1.708,1.708,0,0,1,.62.15,3.064,3.064,0,0,0,1.15.23,3,3,0,1,0-2.14-.9,1.9,1.9,0,0,1,.37.52h0Zm-408.86,215.1a2.074,2.074,0,0,1,.23.6,2.98,2.98,0,1,0,0-1.2,1.742,1.742,0,0,1-.23.6h0ZM813.272,987.275a1.955,1.955,0,0,1,.755-0.643,38.011,38.011,0,0,0-29.048-70.067,1.936,1.936,0,0,1-.987.081,1.987,1.987,0,0,1-.8.575A38.009,38.009,0,1,0,812.3,987.434a1.993,1.993,0,0,1,.969-0.159h0ZM768.724,672.493a2.064,2.064,0,0,1,.633-0.107,3,3,0,1,0-1.177-.225,2.034,2.034,0,0,1,.544.332h0Zm137.043-256.2a2.022,2.022,0,0,1-.583-0.269,3,3,0,1,0,.847.856,2.041,2.041,0,0,1-.264-0.587h0ZM1686.73,542.725a1.963,1.963,0,0,1-.76.643,38.01,38.01,0,0,0,29.05,70.066,1.95,1.95,0,0,1,.99-0.08,1.92,1.92,0,0,1,.79-0.575,38.007,38.007,0,1,0-29.1-70.213,2,2,0,0,1-.97.159h0Zm44.55,314.781a2.1,2.1,0,0,1-.64.108,3,3,0,1,0,1.18.225,1.939,1.939,0,0,1-.54-0.333h0ZM1334.7,1207.03a2.011,2.011,0,0,1,.33.55,3,3,0,0,0,5.78-1.14v-0.01a0.906,0.906,0,0,0-.24-1.17,3,3,0,0,0-5.76,1.14,2.191,2.191,0,0,1-.11.63h0ZM1649.63,971.9a1.962,1.962,0,0,1,.97.163,38.008,38.008,0,1,0,29.11-70.206,2.023,2.023,0,0,1-.8-0.571,1.929,1.929,0,0,1-.98-0.077,38.008,38.008,0,0,0-29.05,70.046,1.875,1.875,0,0,1,.75.645h0Zm42.41-291.6a1.913,1.913,0,0,1,.54-0.332,3,3,0,1,0-1.18.224,2.1,2.1,0,0,1,.64.108h0ZM1166.9,1166.56a2.254,2.254,0,0,1,.1.64,2.995,2.995,0,1,0,.24-1.18,2.072,2.072,0,0,1-.34.54h0ZM850.365,558.1a1.992,1.992,0,0,1-.968-0.163,38.008,38.008,0,1,0-29.11,70.206,2.016,2.016,0,0,1,.8.571,1.947,1.947,0,0,1,.987.078,38.009,38.009,0,0,0,29.044-70.048,1.944,1.944,0,0,1-.753-0.644h0Zm772.055-45.749a1.846,1.846,0,0,1-.37.522,3,3,0,1,0,2.15-.9,3.019,3.019,0,0,0-1.16.23,1.969,1.969,0,0,1-.62.151h0ZM807.964,849.7a2.029,2.029,0,0,1-.545.332,3,3,0,1,0,1.177-.224,2.034,2.034,0,0,1-.632-0.108h0Zm729.7,207.44a1.838,1.838,0,0,1,.59.27,3,3,0,0,0,4.66-2.5,3,3,0,1,0-5.51,1.64,1.935,1.935,0,0,1,.26.59h0ZM1333.1,1166.56a2.072,2.072,0,0,1-.34-0.54,3,3,0,1,0,.24,1.18,2.254,2.254,0,0,1,.1-0.64h0ZM847.205,688.1a2.059,2.059,0,0,1,.632-0.108,2.993,2.993,0,1,0-1.177-.223,2.052,2.052,0,0,1,.545.331h0Zm60.114,302.064a2.05,2.05,0,0,1-.377.517,2.989,2.989,0,1,0,1-.66,2.022,2.022,0,0,1-.62.143h0Zm3.518-455.595a2,2,0,0,1-.62-0.151,3.006,3.006,0,1,0,.99.673,2.021,2.021,0,0,1-.37-0.522h0ZM1166.9,363.436a2.343,2.343,0,0,1,.34.541,3,3,0,1,0-.24-1.174,2.195,2.195,0,0,1-.1.633h0Zm166.2,0a2.195,2.195,0,0,1-.1-0.633,3,3,0,1,0-.24,1.175,2.371,2.371,0,0,1,.34-0.542h0Zm326.88,398.4a1.994,1.994,0,0,1-.6.229,3,3,0,1,0,1.2-.008,2.028,2.028,0,0,1-.6-0.221h0ZM887.678,689.7a2.019,2.019,0,0,1-.631.1H887.04a3,3,0,1,0,1.178.24,2.031,2.031,0,0,1-.54-0.339h0Zm621.7-188.555a1.964,1.964,0,0,1-.27.586,3.024,3.024,0,1,0,.85-0.856,2.011,2.011,0,0,1-.58.27h0Zm70.6,260.687a2.19,2.19,0,0,1-.6.23,3,3,0,0,0,0,5.87,2.223,2.223,0,0,1,.6.23,1.929,1.929,0,0,1,.6-0.22,3,3,0,0,0,0-5.889,1.956,1.956,0,0,1-.6-0.221h0Zm-144.01,275.8a2.206,2.206,0,0,1-.52-0.36,2.991,2.991,0,1,0,.91,2.14,3.026,3.026,0,0,0-.23-1.15,2.088,2.088,0,0,1-.16-0.63h0Zm-124.69,51.68a1.791,1.791,0,0,1,.33.55,3.01,3.01,0,1,0-.22-1.18,1.9,1.9,0,0,1-.11.63h0ZM1041.8,1070.9a2.247,2.247,0,0,1-.15.62,2.894,2.894,0,0,0-.23,1.16,2.987,2.987,0,1,0,.9-2.15,2.061,2.061,0,0,1-.52.37h0ZM909.306,909.545a2.045,2.045,0,0,1,.464-0.439,3,3,0,1,0-1.695.525,3.075,3.075,0,0,0,.6-0.059,2.028,2.028,0,0,1,.634-0.027h0Zm526.664-417.18a1.992,1.992,0,0,1,.16-0.62,3.066,3.066,0,0,0,.23-1.158,3.007,3.007,0,1,0-.91,2.148,2.225,2.225,0,0,1,.52-0.37h0Zm45.12,37.069a1.935,1.935,0,0,1-.26.586,2.985,2.985,0,1,0,.84-0.856,2.011,2.011,0,0,1-.58.27h0ZM922.284,726.818a2.01,2.01,0,0,1-.962.208C920.881,727.01,920.441,727,920,727a38,38,0,0,0,0,76c0.441,0,.882-0.01,1.323-0.026a2,2,0,0,1,.962.208,1.957,1.957,0,0,1,.939-0.32,38,38,0,0,0,0-75.725,1.939,1.939,0,0,1-.937-0.319h0ZM1064.03,1037.64a2.1,2.1,0,0,1-.16.62,3,3,0,1,0,2.77-1.85,2.985,2.985,0,0,0-2.09.86,2.6,2.6,0,0,1-.52.37h0ZM966.159,705.314a2.023,2.023,0,0,1-.659.1,3,3,0,1,0,1.2.241,2.016,2.016,0,0,1-.539-0.339h0ZM1136.08,498.242a2.04,2.04,0,0,1,.44.462,2.968,2.968,0,1,0-.47-1.1,1.962,1.962,0,0,1,.03.637h0Zm175.2-57.554a1.9,1.9,0,0,1,.11.632,2.99,2.99,0,1,0,.22-1.178,1.832,1.832,0,0,1-.33.546h0Zm106.05,294.253a2.107,2.107,0,0,1,.55-0.327,3.007,3.007,0,1,0-1.18.213,1.984,1.984,0,0,1,.63.114h0Zm-99.35,185.906a1.852,1.852,0,0,1-.44-0.46,3.009,3.009,0,1,0,.53,1.714,3.2,3.2,0,0,0-.06-0.618,1.956,1.956,0,0,1-.03-0.636h0ZM1083.9,801.266a1.911,1.911,0,0,1,.53-0.343,3,3,0,0,0-1.13-5.75,2.13,2.13,0,0,1-.64-0.114,2.05,2.05,0,0,1-.54.327,3,3,0,0,0,1.09,5.786h0.04a2.062,2.062,0,0,1,.65.094h0Zm22.11-126.3a1.931,1.931,0,0,1,.92.389,38,38,0,0,0,53.17-53.268,2.039,2.039,0,0,1-.39-0.916,1.985,1.985,0,0,1-.8-0.581,38,38,0,1,0-53.48,53.573,1.986,1.986,0,0,1,.58.8h0Zm283.56-7.024a2.1,2.1,0,0,1-.37.525,3,3,0,1,0,2.16-.922,2.952,2.952,0,0,0-1.17.24,2.191,2.191,0,0,1-.62.157h0Zm-253.6,273.415a1.984,1.984,0,0,1,.14-0.623,3.021,3.021,0,1,0-.66,1,2.077,2.077,0,0,1,.52-0.38h0ZM966.159,824.686a2.045,2.045,0,0,1,.539-0.34,3,3,0,1,0-1.223.242h0.013a1.991,1.991,0,0,1,.671.1h0Zm40.951,98.8a1.845,1.845,0,0,1-.38.516,3,3,0,1,0,2.12-.871,3.052,3.052,0,0,0-1.12.213,1.981,1.981,0,0,1-.62.142h0Zm388.14-409.416a1.953,1.953,0,0,1,.19-0.968,38.011,38.011,0,1,0-70.16-29.08,1.941,1.941,0,0,1-.55.815,1.969,1.969,0,0,1-.05.99,38,38,0,0,0,69.9,28.979,1.964,1.964,0,0,1,.67-0.736h0Zm-99.58,5.1a1.9,1.9,0,0,1,.11.632,3,3,0,1,0,.22-1.178,1.844,1.844,0,0,1-.33.546h0Zm200.16,200.155a2.059,2.059,0,0,1,.54-0.33,3,3,0,1,0-1.17.22,2,2,0,0,1,.63.11h0ZM1391.52,971.1a1.869,1.869,0,0,1-.52-0.368,3,3,0,1,0,.91,2.153,2.921,2.921,0,0,0-.24-1.165,2.291,2.291,0,0,1-.15-0.62h0Zm3.73,44.826a1.968,1.968,0,0,1-.67-0.73,38.005,38.005,0,0,0-69.9,28.97,1.971,1.971,0,0,1,.05.99,2.049,2.049,0,0,1,.55.82,38.009,38.009,0,1,0,70.15-29.09,2.028,2.028,0,0,1-.18-0.96h0Zm-303.74-8.04a2.229,2.229,0,0,1,.14-0.62,2.9,2.9,0,0,0,.22-1.12,2.988,2.988,0,1,0-.87,2.12,1.834,1.834,0,0,1,.51-0.38h0Zm59.88-472.679a1.844,1.844,0,0,1,.44.462,3,3,0,1,0-.53-1.7,3.09,3.09,0,0,0,.06.606,1.707,1.707,0,0,1,.03.635h0ZM1048.51,912.805a2,2,0,0,1-.56.817,38,38,0,1,0,53.68,53.61,1.981,1.981,0,0,1,.82-0.554,1.9,1.9,0,0,1,.41-0.9,38,38,0,0,0-53.45-53.387,1.977,1.977,0,0,1-.9.416h0Zm247.16,98.025a1.866,1.866,0,0,1,.33.54,3,3,0,1,0-.22-1.17,1.9,1.9,0,0,1-.11.63h0ZM1456.1,623.481a2.052,2.052,0,0,1-.36.523,3,3,0,1,0,2.15-.912,3.018,3.018,0,0,0-1.17.235,2.03,2.03,0,0,1-.62.154h0Zm-0.76,98.105a2.042,2.042,0,0,1,.83-0.531,38.006,38.006,0,1,0-28.9-70.11,2,2,0,0,1-.97.209,1.911,1.911,0,0,1-.72.683,38.011,38.011,0,0,0,28.77,69.775,1.939,1.939,0,0,1,.99-0.026h0ZM1253.16,974.962a2.314,2.314,0,0,1-.23-0.6,2.986,2.986,0,1,0,.02,1.2,2.015,2.015,0,0,1,.21-0.6h0Zm116.13-382.8a1.991,1.991,0,0,1,.16-0.621,3.128,3.128,0,0,0,.23-1.171,3,3,0,0,0-3-3,2.958,2.958,0,0,0-2.13.893,2.057,2.057,0,0,1-.52.381,1.983,1.983,0,0,1-.14.624,3,3,0,0,0,4.87,3.262,2.048,2.048,0,0,1,.53-0.367h0Zm-233.32-3.521a2.049,2.049,0,0,1-.52-0.379,2.96,2.96,0,1,0,.66,1,1.965,1.965,0,0,1-.14-0.622h0Zm-62.32,290.387a2.339,2.339,0,0,1-.38.515,2.971,2.971,0,0,0-.9,2.136,3,3,0,1,0,3-3,2.947,2.947,0,0,0-1.1.21,2.11,2.11,0,0,1-.62.14h0Zm0-228.064a2.11,2.11,0,0,1,.62.14,2.947,2.947,0,0,0,1.1.21,3.013,3.013,0,1,0-2.1-.865,2.339,2.339,0,0,1,.38.515h0ZM702.8,224.716a5,5,0,1,0-1.422-1.406C563.883,362.55,479,553.859,479,765a774.756,774.756,0,0,0,14.733,150.756,765.389,765.389,0,0,0,43.772,144.374l0.381,0.92,14.877-6.17a5,5,0,0,0,9.055-3.75l14.878-6.16-0.382-.92a723.406,723.406,0,0,1-41.384-136.5A732.572,732.572,0,0,1,521,765q0-36.287,3.471-71.625,3.251-33.348,9.466-65.82a4.994,4.994,0,1,0-1.962-.379q-6.2,32.495-9.489,66.011Q519.027,728.661,519,765a734.522,734.522,0,0,0,13.969,142.934,725.281,725.281,0,0,0,41.12,135.956l-13.034,5.4a5,5,0,0,0-9.054,3.75l-13.032,5.4a763.076,763.076,0,0,1-43.275-143.067A772.806,772.806,0,0,1,481,765c0-210.593,84.663-401.406,221.795-540.284h0ZM250,83.544l0.824,0.563q-0.413.606-.824,1.213V83.544h0Zm0,1361.136v1.78l0.824-.57c-0.275-.4-0.549-0.81-0.824-1.21h0ZM2238.3,65q5.925,8.349,11.7,16.811v3.541Q2243.025,75.106,2235.86,65h2.44ZM2250,1448.19v-3.54q-6.975,10.245-14.14,20.35h2.44q5.925-8.355,11.7-16.81h0ZM262.916,1465h1.227c-0.137-.19-0.277-0.38-0.414-0.58l-0.813.58h0ZM264.143,65c-0.137.193-.277,0.385-0.414,0.578L262.916,65h1.227ZM250,155.407v3.825Q279.578,110.511,313.67,65h-2.5Q278.554,108.678,250,155.407h0ZM2188.83,65h-2.5q34.035,45.46,63.67,94.232v-3.824Q2221.485,108.727,2188.83,65h0ZM2250,1374.59v-3.82q-29.58,48.72-63.67,94.23h2.5q32.61-43.68,61.17-90.41h0ZM312.416,1465h1.251c-0.149-.2-0.3-0.4-0.45-0.6l-0.8.6h0ZM250,1370.77v1.93l0.852-.52q-0.427-.705-0.852-1.41h0ZM250,330.6l0.914,0.4q-0.459,1.054-.914,2.111V330.6h0Zm0,866.289v2.51l0.914-.4c-0.306-.7-0.609-1.41-0.914-2.11h0ZM2086.84,65a1095.452,1095.452,0,0,1,67.64,89.744,5,5,0,1,1-3.08,4.62,4.964,4.964,0,0,1,1.43-3.5A1094.029,1094.029,0,0,0,2084.24,65h2.6ZM415.75,65c-0.18.214-.361,0.426-0.541,0.641L414.443,65h1.307ZM2250,333.111c-0.3-.7-0.61-1.408-0.91-2.111l0.91-.4v2.51h0ZM276.885,1162.77a5,5,0,1,0,2.788-.85,4.877,4.877,0,0,0-.942.09q-15.9-38.85-28.731-79.22v6.54q12.107,37.35,26.885,73.44h0ZM250,440.67A1049.836,1049.836,0,0,1,466.043,65h2.687A1047.763,1047.763,0,0,0,250,447.274v-6.6h0ZM2033.96,65A1049.823,1049.823,0,0,1,2250,440.671v6.6A1047.685,1047.685,0,0,0,2031.27,65h2.69ZM2250,1089.33v-6.61A1047.683,1047.683,0,0,1,2031.27,1465h2.69A1049.8,1049.8,0,0,0,2250,1089.33h0ZM466.041,1465h2.668a1053.764,1053.764,0,0,1-88.275-113.09,5,5,0,1,0-3.568,1.5,4.893,4.893,0,0,0,1.916-.38A1055.988,1055.988,0,0,0,466.041,1465h0ZM317.616,373.483A1012.275,1012.275,0,0,1,520.546,65h2.774A1010.337,1010.337,0,0,0,319.457,374.257a5,5,0,1,1-2.819-.87,5.076,5.076,0,0,1,.978.1h0ZM1979.45,65A1016.639,1016.639,0,0,1,2087.96,199.2a4.95,4.95,0,0,1,1.91-.381,5,5,0,1,1-3.57,1.5A1012.92,1012.92,0,0,0,1976.68,65h2.77Zm169.73,332.85a4.994,4.994,0,1,0-2.78.849,5.075,5.075,0,0,0,.94-0.089,961.761,961.761,0,0,1,53.14,176.911A973.454,973.454,0,0,1,2219,765q0,48.219-4.61,95.2-4.41,45.149-12.89,89.072a4.994,4.994,0,1,0,1.96.381q8.46-43.936,12.91-89.265,4.59-47.109,4.63-95.391a975.094,975.094,0,0,0-18.56-189.862,962.682,962.682,0,0,0-53.26-177.288h0Zm-94.49,910.73a5.1,5.1,0,0,0,1.92.38,5,5,0,1,0-3.57-1.5,973.287,973.287,0,0,1-133,157.54h2.88a975.713,975.713,0,0,0,131.77-156.42h0ZM577.074,1465q-5.135-4.935-10.2-9.94a5,5,0,1,1,1.41-1.42q5.788,5.73,11.674,11.36h-2.886ZM350.815,1132.15a5,5,0,1,0,2.788-.85,4.867,4.867,0,0,0-.941.09,961.487,961.487,0,0,1-53.146-176.91,978.762,978.762,0,0,1,0-378.96,961.611,961.611,0,0,1,53.146-176.91,5,5,0,1,0-1.846-.76,963.688,963.688,0,0,0-53.261,177.288,980.654,980.654,0,0,0,0,379.725,963.56,963.56,0,0,0,53.26,177.287h0ZM566.877,74.944q5.06-5.011,10.2-9.944h2.886q-5.883,5.633-11.674,11.362a5,5,0,1,1-1.409-1.418h0ZM337.694,578.53C378.96,375.557,486.257,196.577,636.189,65h3.021c-150.5,131.433-258.225,310.619-299.558,513.927a5,5,0,1,1-1.958-.4h0ZM1863.8,65h-3.03q23.79,20.773,46.13,43.1C2075.02,276.213,2179,508.464,2179,765s-103.98,488.79-272.1,656.9q-22.32,22.32-46.13,43.1h3.03q22.935-20.115,44.52-41.68C2076.79,1254.84,2181,1022.09,2181,765s-104.21-489.838-272.68-658.316Q1886.75,85.122,1863.8,65h0ZM636.189,1465h3.021c-150.5-131.43-258.225-310.62-299.558-513.929a5,5,0,1,0-1.958.4C378.96,1154.44,486.256,1333.42,636.189,1465h0ZM2140.97,769.906a5,5,0,1,0-2-.013c-1.32,243.547-100.55,463.917-260.35,623.727a894.944,894.944,0,0,1-80.55,71.38h3.23a895.325,895.325,0,0,0,78.73-69.97c160.17-160.16,259.62-381.03,260.94-625.124h0ZM506.372,1255.98a5,5,0,1,0,3.543-1.47,4.92,4.92,0,0,0-1.883.37A884.786,884.786,0,0,1,361,765c0-245.491,99.5-467.741,260.381-628.618A894.324,894.324,0,0,1,701.931,65H698.7a895.933,895.933,0,0,0-78.732,69.969C458.729,296.207,359,518.957,359,765a886.912,886.912,0,0,0,147.372,490.98h0ZM1801.29,65h-3.22a891.892,891.892,0,0,1,271.58,355.191,4.991,4.991,0,1,0,1.84-.773A893.7,893.7,0,0,0,1801.29,65h0ZM765.934,1465h3.519a852.106,852.106,0,0,1-302.137-370.5,5,5,0,1,0-2.819.87,5.239,5.239,0,0,0,.978-0.1A854.074,854.074,0,0,0,765.934,1465h0Zm-366.9-704.907c1.317-233.051,96.293-443.915,249.218-596.84A855.252,855.252,0,0,1,765.925,65h3.541a853.3,853.3,0,0,0-119.8,99.667C497.1,317.237,402.341,527.606,401.027,760.106a5,5,0,1,1-1.992-.013h0ZM1734.07,65h-3.54a853.129,853.129,0,0,1,119.8,99.667C2003.97,318.305,2099,530.555,2099,765a845.107,845.107,0,0,1-140.29,467.65,5.008,5.008,0,1,0,1.66,1.11A847.158,847.158,0,0,0,2101,765c0-235-95.25-447.747-249.25-601.747A855.461,855.461,0,0,0,1734.07,65h0ZM1927.1,318.47a5,5,0,1,0-3.54,1.471,4.94,4.94,0,0,0,1.88-.367A805.082,805.082,0,0,1,2059,765c0,223.4-90.55,425.65-236.95,572.05A812.158,812.158,0,0,1,1655.8,1465h3.97a814.211,814.211,0,0,0,163.69-126.54C1970.22,1191.7,2061,988.951,2061,765a807.322,807.322,0,0,0-133.9-446.53h0ZM840.228,1465h3.97a812.14,812.14,0,0,1-166.247-127.95C531.55,1190.65,441,988.4,441,765a813.03,813.03,0,0,1,15.458-158.194,802.952,802.952,0,0,1,44.064-146.95,5,5,0,1,0-1.846-.759A804.84,804.84,0,0,0,454.5,606.424,814.954,814.954,0,0,0,439,765c0,223.951,90.774,426.7,237.537,573.46A814.19,814.19,0,0,0,840.228,1465h0ZM680.013,188.081A814.147,814.147,0,0,1,840.218,65h3.951A812.154,812.154,0,0,0,681.423,189.5a5,5,0,1,1-1.41-1.418h0ZM1659.78,65q18.705,10.97,36.75,22.9a5,5,0,1,1-1.47,3.542,4.918,4.918,0,0,1,.37-1.883Q1676.005,76.728,1655.83,65h3.95ZM825.7,121.161A769.563,769.563,0,0,1,926.4,65h4.771A767.693,767.693,0,0,0,826.8,122.821a5.005,5.005,0,1,1-1.1-1.66h0ZM1573.59,65h-4.79a770.612,770.612,0,0,1,224.96,156.235c138.1,138.093,223.9,328.462,225.21,538.871a5,5,0,1,0,1.99-.013c-1.31-210.96-87.33-401.824-225.78-540.271A772.75,772.75,0,0,0,1573.59,65h0Zm387,999.65a773.386,773.386,0,0,1-387,400.35h-4.77a771.26,771.26,0,0,0,389.93-401.13,5,5,0,1,1,2.82.87,5.333,5.333,0,0,1-.98-0.09h0ZM817.545,1403.39a775.144,775.144,0,0,1-205.872-205.85,5.006,5.006,0,1,1,1.588-1.21,773.148,773.148,0,0,0,205.4,205.4,5,5,0,1,1-1.495,3.57,4.931,4.931,0,0,1,.379-1.91h0ZM1968.02,627.177a5,5,0,1,0-1.96.379q6.2,32.448,9.47,65.821,3.435,35.31,3.47,71.623a726.564,726.564,0,0,1-210.07,512.01,5.006,5.006,0,1,0,1.42,1.41A728.684,728.684,0,0,0,1981,765q0-36.311-3.49-71.811-3.255-33.493-9.49-66.012h0ZM1038.73,1465a723.619,723.619,0,0,1-68.276-24.36,732.108,732.108,0,0,1-233.87-155.29,5,5,0,1,1,1.409-1.42A726.916,726.916,0,0,0,1045.74,1465h-7.01ZM576.37,480.663A732.353,732.353,0,0,1,1038.74,65h7.03A730.266,730.266,0,0,0,578.21,481.437a4.984,4.984,0,1,1-1.84-.774h0ZM1461.27,65a726.614,726.614,0,0,1,132.76,54.86,734.538,734.538,0,0,1,261.09,234.911,5,5,0,1,1-1.65,1.117,732.524,732.524,0,0,0-260.37-234.27A724.526,724.526,0,0,0,1454.24,65h7.03Zm280.79,214.87a5,5,0,1,0-1.42,1.409A686.761,686.761,0,0,1,1939,765c0,190.262-77.12,362.51-201.8,487.2S1440.26,1454,1250,1454a689.156,689.156,0,0,1-634.825-420.75,5,5,0,1,0-2.819.87,5.24,5.24,0,0,0,.978-0.09A691.173,691.173,0,0,0,1250,1456c190.81,0,363.56-77.34,488.61-202.39S1941,955.814,1941,765a688.773,688.773,0,0,0-198.94-485.13h0ZM559.019,760.1A690.249,690.249,0,0,1,862,193.142a5.008,5.008,0,1,1,1.117,1.652A688.214,688.214,0,0,0,561.019,760.1a5,5,0,1,1-2-.008h0ZM1119.98,86.216q30.585-5.824,62.14-8.919,33.525-3.27,67.88-3.3a694.391,694.391,0,0,1,135.11,13.2,685.93,685.93,0,0,1,124.86,37.369,5,5,0,1,1-.85,2.784,4.818,4.818,0,0,1,.09-0.937,683.977,683.977,0,0,0-124.48-37.255A692.434,692.434,0,0,0,1250,76q-34.29,0-67.69,3.28-31.38,3.06-61.95,8.9a5,5,0,1,1-.38-1.962h0ZM793.156,301.221A651.17,651.17,0,0,1,1851.6,515.807l0.38,0.922-14.88,6.163a5,5,0,0,1-9.05,3.75l-14.88,6.162-0.38-.919A609.052,609.052,0,0,0,746.319,422.565a4.985,4.985,0,1,1-1.651-1.117A611.188,611.188,0,0,1,1814.25,530.2l13.04-5.4a5,5,0,0,1,9.05-3.75l13.03-5.4A648.782,648.782,0,0,0,794.564,302.641a5,5,0,1,1-1.408-1.42h0ZM1887.58,886.834a5,5,0,1,0,1.96.379q5.46-28.681,8.35-58.26,3.09-31.594,3.11-63.953,0-32.332-3.11-63.951-3.12-32.043-9.28-63.073l-0.19-.984-15.8,3.142a5,5,0,0,0-9.61,1.912l-15.79,3.141,0.19,0.977q5.745,29.056,8.69,59,2.88,29.495,2.9,59.835c0,168.171-68.17,320.42-178.37,430.63S1418.17,1374,1250,1374s-320.421-68.16-430.628-178.37S641,933.171,641,765a612.036,612.036,0,0,1,11.636-119.086,604.445,604.445,0,0,1,34.572-114.03l0.382-.921L672.713,524.8a5.084,5.084,0,0,0,.091-0.954,5,5,0,0,0-9.146-2.8l-14.877-6.162-0.381.919a646.1,646.1,0,0,0-36.96,121.9,650.038,650.038,0,0,0,94.509,484.92,5,5,0,1,0,3.54-1.47,5.1,5.1,0,0,0-1.88.36,649.451,649.451,0,0,1-57.746-604.027l13.032,5.4a5,5,0,0,0,9.055,3.751l13.034,5.4a606.325,606.325,0,0,0-34.308,113.491A613.908,613.908,0,0,0,639,765c0,168.723,68.389,321.47,178.958,432.04S1081.28,1376,1250,1376s321.47-68.39,432.04-178.96S1861,933.723,1861,765q0-30.344-2.92-60.022-2.88-29.569-8.51-58.221l13.83-2.752a5,5,0,0,0,9.61-1.911l13.83-2.752q5.985,30.488,9.07,61.894,3.06,31.433,3.09,63.764,0,32.308-3.09,63.766-2.865,29.414-8.33,58.068h0ZM1788.6,1130.78a654.138,654.138,0,0,1-172.82,172.81,5.1,5.1,0,0,1,.38,1.92,5,5,0,1,1-1.5-3.57,652.689,652.689,0,0,0,172.28-172.28,5.006,5.006,0,1,1,1.66,1.12h0Zm-416.39,273.77q-28.68,5.445-58.26,8.34-31.59,3.09-63.95,3.11a654.209,654.209,0,0,1-127.29-12.44,646.3,646.3,0,0,1-117.37-35.1,4.993,4.993,0,1,1,.85-2.78,4.731,4.731,0,0,1-.09.93,643.956,643.956,0,0,0,116.99,34.99A652.639,652.639,0,0,0,1250,1414q32.31,0,63.76-3.09,29.415-2.865,58.07-8.33a4.991,4.991,0,1,1,.38,1.97h0ZM1571.33,292.933a570.646,570.646,0,0,1,85.88,872.337,5.033,5.033,0,1,1-1.42-1.4,568.875,568.875,0,0,0-85.58-869.287,5,5,0,1,1,1.5-3.57,5.1,5.1,0,0,1-.38,1.92h0Zm-107.3,1001.6a566.93,566.93,0,0,1-102.38,30.56A573.6,573.6,0,0,1,1250,1336q-28.35,0-56.09-2.72-25.635-2.505-50.51-7.22a5,5,0,1,1,.38-1.96q24.81,4.7,50.31,7.19,27.555,2.685,55.91,2.71a571.924,571.924,0,0,0,111.26-10.87,565.013,565.013,0,0,0,102.01-30.45,5.645,5.645,0,0,1-.08-0.93,4.991,4.991,0,1,1,.84,2.78h0Zm-535.357-57.46A570.407,570.407,0,0,1,679,765c0-157.677,63.912-300.427,167.242-403.757S1092.32,194,1250,194q28.35,0,56.09,2.723,25.635,2.5,50.51,7.212a5,5,0,1,1-.38,1.962q-24.81-4.687-50.32-7.189-27.54-2.686-55.9-2.708c-157.13,0-299.376,63.687-402.344,166.656S681,607.875,681,765a568.388,568.388,0,0,0,248.791,470.42,4.982,4.982,0,1,1-1.118,1.65h0Zm852.3-467.164A530.972,530.972,0,0,1,811.2,1064.1a4.922,4.922,0,0,1-1.922.38,5,5,0,1,1,3.572-1.5A529.025,529.025,0,0,0,1778.97,769.893a5,5,0,1,1,2,.013h0ZM719.023,760.1a531.14,531.14,0,0,1,323.2-483.9,5.239,5.239,0,0,1-.1-0.978,5,5,0,1,1,.87,2.819,529.122,529.122,0,0,0-321.967,482.07,5,5,0,1,1-2-.01h0ZM1254.9,234.025A530.385,530.385,0,0,1,1688.8,465.9a5.012,5.012,0,1,1-1.65,1.119,528.362,528.362,0,0,0-432.26-230.994,5,5,0,1,1,.01-2h0Zm400.64,807.855a493.569,493.569,0,0,1-128.66,128.66,5.1,5.1,0,0,1,.38,1.92,5,5,0,1,1-1.5-3.57,491.565,491.565,0,0,0,128.13-128.13,5,5,0,1,1,3.57,1.5,5.1,5.1,0,0,1-1.92-.38h0Zm-410.45,214.09A491.555,491.555,0,0,1,813.1,989.268a40.008,40.008,0,1,1-30.641-73.906A490.635,490.635,0,0,1,759,765q0-24.376,2.343-48.233,2.114-21.69,6.073-42.757a5,5,0,1,1,1.962.376q-3.936,21-6.051,42.569Q761.019,740.63,761,765a488.6,488.6,0,0,0,23.338,149.671,40.008,40.008,0,0,1,30.577,73.753A489.527,489.527,0,0,0,1245.11,1253.97a4.981,4.981,0,1,1-.02,2h0ZM906.3,414.361a5,5,0,1,0,1.406,1.422A489.277,489.277,0,0,1,1685.08,541.576a40.011,40.011,0,0,0,30.58,73.753A488.666,488.666,0,0,1,1739,765q0,24.352-2.33,48.046-2.1,21.549-6.05,42.568a5,5,0,1,0,1.96.376q3.945-21.053,6.08-42.756Q1740.985,789.4,1741,765a490.61,490.61,0,0,0-23.46-150.362,40.008,40.008,0,1,0-30.64-73.906A490.8,490.8,0,0,0,906.3,414.361h0ZM1693.34,681.817q3.57,19.146,5.51,38.88,2.13,21.9,2.15,44.3a450.644,450.644,0,0,1-20.56,135,40.007,40.007,0,1,1-30.64,73.9,452.041,452.041,0,0,1-306.99,232.533v0.01a5,5,0,0,1-9.63,1.9,450.416,450.416,0,0,1-402.086-124.43l-0.706-.71,11.385-11.39a5,5,0,0,1,6.93-6.92q5.693-5.7,11.383-11.39l0.707,0.71a410.537,410.537,0,0,0,96.567,71.68,406.446,406.446,0,0,0,108.04,39.35,5,5,0,1,1-.4,1.96h0a410.35,410.35,0,0,1-204.912-110.87l-9.973,9.97a5,5,0,0,1-6.929,6.93l-9.968,9.97a449.768,449.768,0,0,0,399.592,123.17,5,5,0,0,1,9.6-1.9,449.994,449.994,0,0,0,305.58-231.423,40.009,40.009,0,0,1,30.57-73.732A448.764,448.764,0,0,0,1699,765q0-22.363-2.14-44.116-1.9-19.583-5.48-38.692a5,5,0,1,1,1.96-.375h0ZM806.657,848.184a5,5,0,1,0,1.962-.376q-3.561-19.1-5.483-38.692Q801.017,787.38,801,765a448.764,448.764,0,0,1,20.439-134.315,40.008,40.008,0,0,0,30.573-73.732,448.993,448.993,0,0,1,768.608-45.481,4.993,4.993,0,1,0,1.65-1.12A451.235,451.235,0,0,0,850.2,556.1,40.008,40.008,0,1,0,819.557,630,450.77,450.77,0,0,0,799,765q0,22.387,2.152,44.3,1.923,19.722,5.5,38.881h0ZM1537.13,1059.07a412.3,412.3,0,0,1-93.55,68.57A408.089,408.089,0,0,1,1335,1167.2h0a5,5,0,1,1-.4-1.96,406.446,406.446,0,0,0,108.04-39.35,410.826,410.826,0,0,0,93.09-68.24,4.964,4.964,0,1,1,1.4,1.42h0Zm-631.6-69.8A409.12,409.12,0,0,1,839,765q0-20.4,1.961-40.374,1.731-17.754,4.937-35a5,5,0,1,1,1.963.374q-3.187,17.19-4.915,34.818Q841.016,744.611,841,765a407.027,407.027,0,0,0,66.192,223.17,5,5,0,1,1-1.663,1.1h0Zm5.459-456.693A413.2,413.2,0,0,1,1021.92,423.048,408.692,408.692,0,0,1,1165,362.8h0a5,5,0,1,1,.4,1.959,406.728,406.728,0,0,0-142.38,59.944A411.321,411.321,0,0,0,912.637,533.7a4.988,4.988,0,1,1-1.649-1.12h0ZM1335,362.8v0a5,5,0,1,0-.4,1.96,409.14,409.14,0,0,1,324.37,395.344,5,5,0,1,0,2-.012A411.159,411.159,0,0,0,1335,362.8h0Zm-447.953,325H887.04a5,5,0,1,0,1.965.4A368.886,368.886,0,0,1,1507.44,500.641a4.981,4.981,0,1,0,1.4-1.423A371.08,371.08,0,0,0,887.047,687.8h0ZM1309.76,1090.62a5.009,5.009,0,1,0-.37-1.97q-13.365,2.445-27.06,3.79-15.93,1.545-32.33,1.56a330.24,330.24,0,0,1-64.34-6.29,326.885,326.885,0,0,1-61.6-18.67l-0.92-.38-6.16,14.87a5,5,0,0,0-3.75,9.06l-6.16,14.87,0.92,0.39a368.34,368.34,0,0,0,69.47,21.06A370.968,370.968,0,0,0,1558.5,558.862l-0.55-.827-13.39,8.944a4.993,4.993,0,0,0-8.14,5.445l-13.39,8.944,0.55,0.829a327.273,327.273,0,0,1,55.38,177.911,5,5,0,0,0,0,9.784,328.592,328.592,0,0,1-142.11,265.938,5.025,5.025,0,1,0,1.12,1.65,330.615,330.615,0,0,0,142.99-267.573,5,5,0,0,0,0-9.814,329.29,329.29,0,0,0-55.17-178.175l11.73-7.837a5,5,0,0,0,8.15-5.445l11.73-7.835a369.106,369.106,0,0,1-447.73,545.579l5.4-13.03a5,5,0,0,0,3.75-9.05l5.4-13.04a327.985,327.985,0,0,0,61.06,18.41A332.509,332.509,0,0,0,1250,1096q16.425,0,32.51-1.58,13.83-1.35,27.25-3.8h0Zm-269.96-19.87A372.379,372.379,0,0,1,909.063,911.533a5.1,5.1,0,0,1-.988.1,5,5,0,1,1,2.827-.875A370.4,370.4,0,0,0,1040.92,1069.1a5.007,5.007,0,1,1-1.5,3.58,4.922,4.922,0,0,1,.38-1.93h0Zm398.17-578.231q11.355,7.846,22.01,16.6,10.68,8.781,20.58,18.384a4.934,4.934,0,0,1,2.78-.85,5,5,0,1,1-4.19,2.274q-9.84-9.565-20.44-18.269-10.575-8.684-21.86-16.493a5.016,5.016,0,1,1,1.12-1.648h0ZM1062.03,1037.48a332.531,332.531,0,0,1-104.151-116.7,328.8,328.8,0,0,1-36.487-115.807c-0.463.016-.926,0.027-1.392,0.027a40,40,0,0,1,0-80c0.465,0,.929.011,1.391,0.027a329.041,329.041,0,0,1,53.367-143.939l0.554-.828L988.7,589.2a5,5,0,0,1,8.148,5.444l13.384,8.946-0.55.829a287.314,287.314,0,0,0-42.193,99.394,5,5,0,1,1-1.97-.4h0.014a289.261,289.261,0,0,1,41.939-99.27l-11.733-7.837a5,5,0,0,1-8.149-5.445l-11.726-7.835a326.919,326.919,0,0,0-52.474,142.119,40,40,0,0,1,0,79.71,326.766,326.766,0,0,0,36.246,114.987A330.583,330.583,0,0,0,1063.15,1035.83a5.025,5.025,0,1,1-1.12,1.65h0Zm72.84-537.641a289.176,289.176,0,0,0-89.22,60.807l-0.71.707-11.39-11.385a4.946,4.946,0,0,1-2.75.829,5,5,0,0,1-5-5,4.924,4.924,0,0,1,.83-2.757l-11.39-11.385,0.71-.707A329.978,329.978,0,0,1,1250,434q16.425,0,32.51,1.581,13.83,1.347,27.25,3.8a5.006,5.006,0,1,1-.37,1.963q-13.365-2.439-27.06-3.781Q1266.4,436.012,1250,436a327.9,327.9,0,0,0-231.93,95.657l9.97,9.968a5,5,0,0,1,6.93,6.929l9.97,9.972A291.743,291.743,0,0,1,1134.09,498a5.444,5.444,0,0,1-.1-1,5,5,0,1,1,.88,2.834h0ZM1418.63,736.47q0.975,5.79,1.55,11.735,0.81,8.322.82,16.795a171.041,171.041,0,0,1-101.03,156.074,5,5,0,1,1-.79-1.832A169.041,169.041,0,0,0,1419,765q0-8.44-.8-16.608-0.57-5.829-1.54-11.565a4.986,4.986,0,1,1,1.97-.357h0Zm-30.87-69.392a169.075,169.075,0,0,0-226.06-46.2,40,40,0,0,1-55.98,56.071,169.539,169.539,0,0,0-22.38,116.224,5,5,0,0,1,1.89,9.582,169.2,169.2,0,0,0,131.79,128.03l0.98,0.2-3.14,15.795a5,5,0,0,1-1.91,9.61l-3.14,15.793-0.98-.193a209.736,209.736,0,0,1-71.95-28.845,5,5,0,1,1,1.44-3.513,5.116,5.116,0,0,1-.35,1.844,207.651,207.651,0,0,0,70.27,28.357L1210.99,956a5,5,0,0,1,1.91-9.611l2.75-13.839a171.2,171.2,0,0,1-132.37-129.375h-0.05a5,5,0,0,1-1.86-9.642A171.955,171.955,0,0,1,1079,765a170.193,170.193,0,0,1,25.15-89.3,40,40,0,1,1,56.29-56.392,170.959,170.959,0,0,1,228.96,46.641,5.016,5.016,0,1,1-1.64,1.134h0ZM1005.32,922.586a289.4,289.4,0,0,1-39.789-96h-0.014a5,5,0,1,1,1.97-.4,287.318,287.318,0,0,0,39.5,95.306,4.948,4.948,0,0,1,1.86-.357,4.99,4.99,0,1,1-3.53,1.453h0ZM1497.13,720.85a5.007,5.007,0,1,0-1.97.367q1.695,9.555,2.66,19.317,1.17,12.039,1.18,24.466t-1.18,24.468q-1.2,12.216-3.56,24.123l-0.19.976,15.79,3.142a5,5,0,0,0,9.61,1.911l15.8,3.142,0.19-.983q2.745-13.845,4.15-28.2,1.38-14.139,1.39-28.584a291.317,291.317,0,0,0-143.75-251.047,40.011,40.011,0,1,0-73.85-30.612A291.4,291.4,0,0,0,1250,474q-14.43,0-28.58,1.39-14.34,1.4-28.2,4.147l-0.98.2,3.14,15.794a5,5,0,0,0,1.91,9.611l3.14,15.794,0.98-.193q11.895-2.354,24.12-3.554,12.045-1.175,24.47-1.184t24.47,1.184q9.75,0.951,19.31,2.652a5,5,0,1,0,.37-1.964q-9.615-1.7-19.5-2.672-12.2-1.191-24.65-1.2t-24.65,1.2q-11.865,1.158-23.35,3.386l-2.75-13.836a5,5,0,0,0-1.91-9.611l-2.75-13.832q13.32-2.587,27.01-3.932,13.98-1.364,28.4-1.374a289.549,289.549,0,0,1,72.77,9.241,40.006,40.006,0,0,0,73.58,30.5A289.339,289.339,0,0,1,1539,765q0,14.408-1.37,28.4-1.335,13.678-3.94,27.015l-13.83-2.751a5,5,0,0,0-9.61-1.912L1496.41,813q2.22-11.467,3.39-23.342,1.185-12.2,1.2-24.655,0-12.442-1.2-24.654-0.96-9.882-2.67-19.5h0ZM1392.39,969.3a249.88,249.88,0,0,0,87.72-108.987l0.38-.92,14.88,6.162a5,5,0,0,1,9.05,3.751l14.88,6.162-0.38.922a292.077,292.077,0,0,1-107.5,130.77q-6.945,4.635-14.18,8.89a40.006,40.006,0,1,1-73.84,30.61,290.769,290.769,0,0,1-230.99-36.98,5.008,5.008,0,1,1,1.1-1.67,289.822,289.822,0,0,0,229.26,36.75,40,40,0,0,1,73.58-30.5q7.11-4.185,13.96-8.76a290.088,290.088,0,0,0,106.38-128.956l-13.03-5.4a5.005,5.005,0,0,1-9.06-3.751l-13.03-5.4a251.943,251.943,0,0,1-88.05,108.947,5.018,5.018,0,1,1-1.13-1.645h0Zm-98.24,42.83q-9.615,1.7-19.5,2.67-12.2,1.185-24.65,1.2a249.857,249.857,0,0,1-146.87-47.44,40,40,0,1,1-56.51-56.431A251.1,251.1,0,0,1,1149.4,534.974a5.512,5.512,0,0,1-.1-1,5.011,5.011,0,1,1,.89,2.84,249.1,249.1,0,0,0-102.04,374.022,40,40,0,0,1,56.27,56.2A247.875,247.875,0,0,0,1250,1014q12.42,0,24.47-1.18,9.75-.96,19.31-2.66a5,5,0,1,1,.37,1.97h0Zm99.36-453.075a4.856,4.856,0,0,0,.4-1.944,5,5,0,1,0-1.52,3.589,250.6,250.6,0,0,1,61.91,61.911,5,5,0,1,0,3.59-1.518,4.942,4.942,0,0,0-1.94.391,252.409,252.409,0,0,0-62.44-62.429h0Zm-256.63,27.806a5,5,0,1,0,1.44,3.512,5.124,5.124,0,0,0-.35-1.844,209.164,209.164,0,0,1,224.06.006,5.093,5.093,0,0,0-.35,1.839,5,5,0,0,0,8.47,3.6,210.119,210.119,0,0,1,54.45,56.119,40.01,40.01,0,0,0,30.28,73.447,209.039,209.039,0,0,1-199.99,250.406,5.01,5.01,0,1,0,.02,1.992A210.988,210.988,0,0,0,1461,765a212.554,212.554,0,0,0-4.19-42.048,40.007,40.007,0,1,0-30.43-73.8,212.054,212.054,0,0,0-55.09-56.828,5.067,5.067,0,0,0,.39-1.952,5,5,0,0,0-8.56-3.513,210.8,210.8,0,0,0-226.24,0h0Zm-65.02,291.263a210.827,210.827,0,0,1,0-226.248,4.988,4.988,0,1,1,1.67,1.091,208.77,208.77,0,0,0,0,224.066,5.011,5.011,0,1,1-1.67,1.091h0ZM2138.39,65A1132.756,1132.756,0,0,1,2250,236.183v4.283A1130.765,1130.765,0,0,0,2135.84,65h2.55ZM2250,1293.82v-4.29A1130.665,1130.665,0,0,1,2135.84,1465h2.55A1132.584,1132.584,0,0,0,2250,1293.82h0ZM361.608,1465h2.555A1130.391,1130.391,0,0,1,250,1289.53v4.29A1132.5,1132.5,0,0,0,361.608,1465h0ZM250,236.182v4.283A1130.6,1130.6,0,0,1,364.163,65h-2.555A1132.582,1132.582,0,0,0,250,236.182ZM1365.03,1039.65l1.96-10.83a1.99,1.99,0,0,1,1.98-1.82h7.97v0.01a1.975,1.975,0,0,1,1.95,1.64l1.96,10.82a2.171,2.171,0,0,1,.08.51V1040a2.006,2.006,0,0,1-2,2h-1.17l-0.82,9.01a2,2,0,0,1-1.99,1.99h-3.99v-0.01a1.982,1.982,0,0,1-1.98-1.81l-0.83-9.18h-1.17v-0.01a1.977,1.977,0,0,1-1.95-2.34h0Zm1.95-20.65a5.98,5.98,0,1,1,5.98,6,5.969,5.969,0,0,1-5.98-6h0Zm5.98-4h0a4,4,0,0,0-3.99,4v0.02a4,4,0,1,0,3.99-4.02h0Zm-7.97,0a3.761,3.761,0,0,1,1,.13,8.264,8.264,0,0,1,1.24-1.69,5.99,5.99,0,0,0-7.81,3.31,6,6,0,0,0,7.81,7.81,8,8,0,0,1-1.24-1.69,3.761,3.761,0,0,1-1,.13,4,4,0,1,1,0-8h0Zm-3.99,14h3.93l0.09-.47a3.943,3.943,0,0,1,.5-1.53h-4.51a2,2,0,0,0-1.99,1.82l-1.96,10.83a1.986,1.986,0,0,0,1.6,2.31,2.068,2.068,0,0,0,.35.03V1042h1.18l0.83,9.18a1.982,1.982,0,0,0,1.98,1.81V1053h3.98a1.745,1.745,0,0,0,.51-0.07,3.935,3.935,0,0,1-.48-1.57l-0.04-.36H1363l-1-11h-2.99l1.99-11h0Zm-3.98-14a4,4,0,0,0,0,8,3.761,3.761,0,0,0,1-.13,8,8,0,0,0,1.24,1.69,6,6,0,1,1,0-11.12,8.264,8.264,0,0,0-1.24,1.69,3.761,3.761,0,0,0-1-.13h0Zm-3.99,14h0l-1.99,11h2.98l1,11H1359l0.03,0.36a3.935,3.935,0,0,0,.48,1.57,1.487,1.487,0,0,1-.47.07h-4.02v-0.01a1.982,1.982,0,0,1-1.98-1.81l-0.83-9.18h-1.17v-0.01a1.977,1.977,0,0,1-1.95-2.34l1.96-10.83a2,2,0,0,1,1.98-1.82h4.52a4.132,4.132,0,0,0-.51,1.53l-0.08.47h-3.93Zm-3.98-14a3.814,3.814,0,0,1,1,.13,8.264,8.264,0,0,1,1.24-1.69,5.99,5.99,0,0,0-7.81,3.31,6,6,0,0,0,7.81,7.81,8,8,0,0,1-1.24-1.69,3.761,3.761,0,0,1-1,.13,4,4,0,0,1,0-8h0Zm-3.99,14H1349l0.08-.47a3.958,3.958,0,0,1,.51-1.53h-4.52a2.015,2.015,0,0,0-1.99,1.82l-1.96,10.83a2.159,2.159,0,0,0-.03.35,1.983,1.983,0,0,0,1.63,1.96,2.068,2.068,0,0,0,.35.03V1042h1.18l0.83,9.18a1.982,1.982,0,0,0,1.98,1.81V1053h3.98a1.792,1.792,0,0,0,.51-0.07,3.935,3.935,0,0,1-.48-1.57l-0.04-.36h-3.97l-1-11h-2.99l1.99-11h0Zm23.91,0-1.99,11h2.99l1,11h3.99l1-11h2.98l-2-11h-7.97ZM1131.79,625a18,18,0,1,1-9.58,33.239l-5.57,5.566a4,4,0,1,1-5.65-5.656l5.56-5.567A18,18,0,0,1,1131.79,625h0Zm-11.23,32.063a17.687,17.687,0,0,1-2.83-2.828l-5.33,5.328a2.044,2.044,0,0,0-.61,1.437,2,2,0,0,0,2,2,2.033,2.033,0,0,0,1.44-.609l5.33-5.328h0ZM1131.79,627a16,16,0,1,0,16,16A16,16,0,0,0,1131.79,627Zm312.35,38a20,20,0,1,1-4.3,39.534l0.83-1.87a18.016,18.016,0,1,0-14.19-14.192l-1.87.831a19.7,19.7,0,0,1-.47-4.3,20,20,0,0,1,20-20h0Zm-10.82,36.481,0.99,2.306a2,2,0,0,0,3.66.024l8-18a2,2,0,0,0-2.64-2.64l-18,8a2,2,0,0,0,.03,3.666l2.3,0.989-2.34,2.347a4,4,0,0,0,5.65,5.656l2.35-2.347h0ZM1426.14,693l5.02,2.152-4.43,4.436a2,2,0,0,0,2.83,2.828l4.43-4.436,2.16,5.021,7.99-18-18,8h0Zm18-14a6,6,0,0,0-5.71,4.161l4.01-1.782a3.938,3.938,0,0,1,.85-0.287l0.03-.007,0.02,0a4,4,0,0,1,3.35.831h0c0.05,0.039.09,0.079,0.14,0.12l0.01,0.011,0.05,0.049,0.01,0.01,0.02,0.013,0.05,0.054,0.06,0.056,0.01,0.013,0.01,0.012,0.05,0.051,0.01,0.013q0.06,0.067.12,0.138h0v0a3.954,3.954,0,0,1,.83,3.349v0.018l-0.01.031a3.532,3.532,0,0,1-.29.845l-1.78,4.012A6,6,0,0,0,1444.14,679h0Zm0-7a13,13,0,0,0-13,13,12.376,12.376,0,0,0,.08,1.368l1.94-.862c-0.01-.168-0.02-0.337-0.02-0.506a11,11,0,1,1,11,11c-0.17,0-.34,0-0.5-0.012l-0.86,1.94A13,13,0,1,0,1444.14,672Zm-374.08,276.4a8.983,8.983,0,0,0,11.58-5.233,8.852,8.852,0,0,0,.58-3.177c0-.19-0.01-0.4-0.02-0.64-0.02-.21-0.04-0.42-0.07-0.64a2,2,0,0,0-2.27-1.687,2.039,2.039,0,0,0-1.12.557l-4.05,3.78a2.046,2.046,0,0,1-1.47.63,2.011,2.011,0,0,1-2-2.016,1.982,1.982,0,0,1,.74-1.544l4.1-3.82a2.011,2.011,0,0,0,.1-2.82,4.227,4.227,0,0,0-2.94-.79,9,9,0,0,0-9,8.984V940a9.017,9.017,0,0,0,.38,2.58l-7.57,7.13c-0.22.2-2.63,2.46-2.64,2.45a4.1,4.1,0,0,0-1.17,2.83,4,4,0,0,0,4,4,4.082,4.082,0,0,0,2.87-1.22l2.39-2.22,7.58-7.14h0Zm-0.38-2.38h0l-8.56,8.061-2.48,2.309a1.608,1.608,0,0,1-1.42.59,2.5,2.5,0,0,1-2-2,1.57,1.57,0,0,1,.59-1.41c0.81-.82,1.74-1.63,2.58-2.41l8.56-8.06a6.99,6.99,0,0,1,6.27-10.1,7.216,7.216,0,0,1,1.48.15l-4.3,4.01a4,4,0,0,0,5.45,5.85l4.3-4.02a6.555,6.555,0,0,1,.07.99,7,7,0,0,1-7,7,6.906,6.906,0,0,1-3.54-.96h0Zm3.54,11.96,14.78-14.21a11,11,0,0,0-14.78-16.26,11,11,0,0,0-14.78,16.26l1.03,0.939-1.46,1.38-0.98-.91a12.992,12.992,0,0,1,16.19-20.129,12.991,12.991,0,0,1,16.19,20.13l-14.77,14.21a2.011,2.011,0,0,1-1.42.585,1.988,1.988,0,0,1-1.41-.585l-5.15-4.99,1.46-1.371,5.1,4.95h0ZM913,785.007a4,4,0,0,1-4-4v-8h0a9,9,0,0,1,0-18l13.393,0,14.5-9.662A2,2,0,0,1,940,747v34a2,2,0,0,1-3.109,1.664L922.394,773H917v8.006a4,4,0,0,1-4,4h0ZM921,757l-12,0a7,7,0,0,0,0,14h12V757h0Zm2,14,15,10V747l-15,10v14h0Zm-10,12a2,2,0,0,0,2-2v-8h-4v8A2,2,0,0,0,913,783.007Zm771.82-225.571a2.006,2.006,0,0,0-2,2v36a2.005,2.005,0,0,0,2,2h36a2.005,2.005,0,0,0,2-2v-36a2.006,2.006,0,0,0-2-2h-36Zm27.86,31a3.983,3.983,0,0,1-7.72,0h-14.14v-2h14.14a3.983,3.983,0,0,1,7.72,0h2.14v2h-2.14Zm-15.86-7h0a4,4,0,0,1-3.86-3h-2.14v-2h2.14a3.983,3.983,0,0,1,7.72,0h14.14v2h-14.14a4,4,0,0,1-3.86,3h0Zm6-10h0a4,4,0,0,1-3.86-3h-8.14v-2h8.14a3.983,3.983,0,0,1,7.72,0h8.14v2h-8.14a4,4,0,0,1-3.86,3h0Zm0-6h0a2,2,0,1,1-2,2,2,2,0,0,1,2-2h0Zm-6,10h0a2,2,0,1,1-2,2,2,2,0,0,1,2-2h0Zm12,10h0a2,2,0,1,1-2,2,2,2,0,0,1,2-2h0Zm-24-26h36v36h-36v-36h0Zm-337.81-78.431a2.006,2.006,0,0,0-2,2v3h-4v2h4v3h-4v2h4v3h-4v2h4v3h-4v2h4v3h-4v2h4v3a2.006,2.006,0,0,0,2,2h28a2.006,2.006,0,0,0,2-2v-3h4v-2h-4v-3h4v-2h-4v-3h4v-2h-4v-3h4v-2h-4v-3h4v-2h-4v-3a2.006,2.006,0,0,0-2-2h-3v-4h-2v4h-3v-4h-2v4h-3v-4h-2v4h-3v-4h-2v4h-3v-4h-2v4h-3Zm13,32h2v4h-2v-4h0Zm10,0h2v4h-2v-4h0Zm-20,0h2v4h-2v-4h0Zm5,0h2v4h-2v-4h0Zm10,0h2v4h-2v-4h0Zm-18-30h28v28h-28v-28h0Zm300.84,434.248h36a2.006,2.006,0,0,1,2,2v36a2.006,2.006,0,0,1-2,2h-36a2.006,2.006,0,0,1-2-2v-36a2.006,2.006,0,0,1,2-2h0Zm24.71,18.293-1.41,1.414,4.29,4.293-4.29,4.293,1.41,1.414,5.71-5.707-5.71-5.707h0Zm-12,1.414-1.41-1.414-5.71,5.707,5.71,5.707,1.41-1.414-4.29-4.293,4.29-4.293h0Zm2.32,12.051,1.94,0.484,4-16-1.94-.484-4,16h0Zm-15.03-23.758h36v-6h-36v6h0Zm36,2h-36v28h36v-28h0Zm-26-6h0v2h2v-2h-2Zm-4,0h0v2h2v-2h-2Zm-4,0h0v2h2v-2h-2ZM815.181,932.565h-32a2.009,2.009,0,0,0-2,2v14.792a14.077,14.077,0,0,1,2-2.585v-4.207h32v-2h-32v-6h32v32H802.974a14.126,14.126,0,0,1-2.585,2h14.792a2.009,2.009,0,0,0,2-2v-32a2.006,2.006,0,0,0-2-2h0Zm-29,6a1,1,0,1,1,1-1,1,1,0,0,1-1,1h0Zm4,0a1,1,0,1,1,1-1,1,1,0,0,1-1,1h0Zm4,0a1,1,0,1,1,1-1,1,1,0,0,1-1,1h0Zm-5.828,28.985-4.3,3.8a4.07,4.07,0,0,1-2.869,1.215,4,4,0,0,1-4-4,4.067,4.067,0,0,1,1.171-2.828c0.018,0.017,3.622-3.154,4.167-3.667a11.992,11.992,0,1,1,5.833,5.48h0Zm-4.747-3.757a12.061,12.061,0,0,0,2.912,2.749l-3.922,3.437a1.591,1.591,0,0,1-1.414.585,2.5,2.5,0,0,1-2-2,1.594,1.594,0,0,1,.586-1.415c2.484-2.49,1.265-.934,3.839-3.357h0Zm9.577-17.23a10,10,0,1,1-10,10,10,10,0,0,1,10-10h0Zm57.964-358.816-1.793-1.793-15.5,15.5-1.415-1.414,15.5-15.5-1.792-1.793-17,17v2l3,3h2l17-17h0Zm-35-15h30a2.006,2.006,0,0,1,2,2v4.171l-2-2q0-1.086,0-2.172h-30v36h30V598.575l2-2v14.172a2.006,2.006,0,0,1-2,2h-30a2.006,2.006,0,0,1-2-2v-36a2.006,2.006,0,0,1,2-2h0Zm4,32h7v-6l19-19,8,8-19,19h-15v-2h0Zm0-4h0v2h5v-2h-5Zm0-4h0v2h5v-0.829l1.172-1.171h-6.172Zm0-4h10.172l-2,2h-8.172v-2h0Zm0-14h22v2.172l-2,2v-2.171h-18v8h12.172l-2,2H820.145v-12Zm384.285,63.4a129.957,129.957,0,0,1,19.96-5.641,131.094,131.094,0,0,1,148.47,174.062,5,5,0,0,1-2.72,9.2,5.055,5.055,0,0,1-1.05-.11,130.972,130.972,0,0,1-191.88,54.279l-0.82-.555,8.94-13.383a5,5,0,0,1,3.55-8.522,5.046,5.046,0,0,1,1.9.372l8.94-13.386,0.83,0.555a88.983,88.983,0,1,0,19.93-158,4.418,4.418,0,0,1,.07.817,5,5,0,0,1-9.06,2.914,88.958,88.958,0,0,0-35.5,129.709l0.55,0.829-13.38,8.946a5,5,0,0,1-8.15,5.444l-13.39,8.943-0.55-.827A130.474,130.474,0,0,1,1119,765a130.6,130.6,0,0,1,8.14-45.566,4.99,4.99,0,1,1,1.86.73,128.608,128.608,0,0,0-5.54,19.607A130.179,130.179,0,0,0,1121,765a128.4,128.4,0,0,0,21.18,70.847l11.72-7.834a5,5,0,0,1,8.15-5.445l11.73-7.839a91.059,91.059,0,0,1,36.89-131.812,4.883,4.883,0,0,1-.12-1.088,5,5,0,0,1,9.22-2.686,91.038,91.038,0,1,1-19.5,162.076l-7.84,11.732a5,5,0,0,1-5.44,8.149l-7.84,11.724a129.082,129.082,0,0,0,188.1-53.975,5,5,0,0,1,3.74-9.014A129.071,129.071,0,0,0,1205.16,644a4.9,4.9,0,0,1,.08.862,5.012,5.012,0,1,1-.81-2.72h0Zm11.12,36.684a3,3,0,1,0,3,3,3,3,0,0,0-3-3h0Zm-85.69,33.409a3,3,0,1,0,3,3,3,3,0,0,0-3-3h0Zm70.38-70.374a3,3,0,1,0,3,3,3,3,0,0,0-3-3h0Zm68.9,73.93a3,3,0,1,0,3,3,3,3,0,0,0-3-3h0Zm27.07,27.067a3,3,0,1,0,3,3,3,3,0,0,0-3-3h0Zm73.93,68.9a3,3,0,1,0,3,3,3,3,0,0,0-3-3h0Zm-101-97.968a5.009,5.009,0,0,0-4.28,2.408q-2.4-.73-4.89-1.227a50.987,50.987,0,1,0,40.05,40.057,47.3,47.3,0,0,0-1.22-4.9,5,5,0,1,0-2.59.724,5.138,5.138,0,0,0,.71-0.051q0.675,2.258,1.14,4.605A49.007,49.007,0,1,1,1250,716a49.348,49.348,0,0,1,9.59.936c1.56,0.31,3.09.694,4.6,1.148a5.532,5.532,0,0,0-.05.71A5,5,0,1,0,1269.14,713.794Z" transform="translate(-250 -65)"/>
</svg>
