<?xml version="1.0" encoding="iso-8859-1"?>
<svg version="1.1" id="_x32_" xmlns="http://www.w3.org/2000/svg" xmlns:xlink="http://www.w3.org/1999/xlink" x="0px" y="0px"
	 viewBox="0 0 2000 1400" style="enable-background:new 0 0 2000 1400;" xml:space="preserve">
<path id="main-lead-bg" style="fill-rule:evenodd;clip-rule:evenodd;fill:none;stroke:#383d42;stroke-width:2.0001;stroke-miterlimit:22.9256;" d=" M1047.885,685.571c1.375,4.569,2.114,9.412,2.114,14.429c0,27.614-22.386,50-50,50c-27.614,0-50-22.386-50-50 c0-27.614,22.386-50,50-50c5.017,0,9.861,0.739,14.429,2.114 M878.038,654.894c-5.199,14.051-8.039,29.247-8.039,45.106 c0,26.728,8.066,51.573,21.898,72.232l12.474-8.335 M912.686,758.341l12.474-8.335c-9.575-14.302-15.16-31.503-15.16-50.007 c0-35.727,20.817-66.593,50.985-81.127 M970.223,615.049c9.321-3.267,19.34-5.05,29.777-5.05c49.706,0,90,40.295,90,90 c0,10.437-1.783,20.456-5.05,29.777 M1081.126,739.015C1066.593,769.182,1035.727,790,999.999,790 c-18.504,0-35.704-5.585-50.006-15.16l-8.335,12.474 M936.103,795.629l-8.335,12.474C948.427,821.933,973.271,830,999.999,830 c71.797,0,130-58.203,130-130c0-71.797-58.203-130-130-130c-15.859,0-31.054,2.84-45.105,8.039 M302.289,989.002l-13.862,5.742 C250.779,903.956,230,804.405,230,700c0-210.831,84.743-401.863,222.013-540.916 M311.53,985.175l13.862-5.742 C289.7,893.361,270,798.981,270,700c0-47.016,4.445-92.993,12.937-137.535 M422.424,460.76l13.862,5.742 C406.461,538.424,390,617.29,390,700c0,336.893,273.106,610,610,610s610-273.106,610-610c0-40.732-3.992-80.531-11.607-119.028 l14.715-2.927 M1622.917,576.094l14.715-2.927c8.114,41.021,12.368,83.431,12.368,126.833c0,41.674-3.922,82.431-11.417,121.924 M495.564,356.933C605.358,195.808,790.317,90.001,1000,90.001c254.184,0,472.056,155.468,563.713,376.501l13.862-5.742 M1586.815,456.932l13.862-5.742C1503.009,215.664,1270.851,50.001,1000,50.001c-177.694,0-338.727,71.311-456.062,186.866 M456.725,1056.991C389.261,954.53,350,831.851,350,700c0-88.134,17.541-172.171,49.322-248.81l13.862,5.742 M1286.886,508.308 l-12.474,8.335c34.246,51.151,54.566,112.412,55.546,178.358 M1295.202,502.752l12.474-8.335 c39.366,58.798,62.324,129.51,62.324,205.583c0,204.345-165.654,370-370,370c-50.168,0-98.005-9.985-141.63-28.075l5.742-13.862 M961.95,891.29l-2.927,14.715c-25.862-5.115-50.016-14.979-71.517-28.645 M963.901,881.48l2.927-14.715 c-65.641-12.983-117.691-63.757-132.546-128.704 M1082.892,1142.363c-26.868,5.007-54.572,7.637-82.893,7.637 c-124.264,0-236.765-50.368-318.198-131.802l10.606-10.607 M699.479,1000.52l10.607-10.607 c55.119,55.119,125.861,94.614,205.012,111.281 M1246.163,656.133c2.521,14.242,3.836,28.901,3.836,43.867 c0,16.693-1.636,33.005-4.757,48.782l14.714,2.927 M1269.767,753.66l14.715,2.927c3.62-18.302,5.518-37.223,5.518-56.587 c0-106.591-57.518-199.733-143.198-250.129 M784.332,484.332l10.606,10.606c25.55-25.55,55.846-46.354,89.451-60.978 M777.261,477.261l-10.606-10.606C826.373,406.937,908.873,370,1000,370c20.307,0,40.186,1.834,59.48,5.346 M1146.804,950.138 c54.074-31.805,96.933-80.633,121.191-139.131l-13.862-5.742 M1244.891,801.437l-13.861-5.742 c-18.383,44.332-49.156,82.226-87.997,109.369 M1059.479,1024.654c-19.293,3.512-39.172,5.346-59.479,5.346 c-44.745,0-87.41-8.906-126.319-25.04l-5.742,13.862 M672.393,660.074c6.346-52.624,25.076-101.435,53.193-143.431l12.473,8.335 M746.375,530.533l12.474,8.334c-19.937,29.779-34.504,63.457-42.317,99.648 M948.291,440.043l2.927,14.715 C966.995,451.637,983.306,450,1000,450c14.966,0,29.625,1.316,43.867,3.836 M946.34,430.233l-2.927-14.715 C961.714,411.898,980.635,410,1000,410c25.241,0,49.729,3.228,73.072,9.291 M1987.075,0c4.378,6.162,8.66,12.397,12.925,18.644 M2000,1381.355c-4.265,6.247-8.547,12.482-12.925,18.644 M0,92.328C19.366,60.526,40.196,29.714,62.416,0 M1937.583,0 c22.22,29.714,43.05,60.527,62.417,92.328 M2000,1307.672c-19.367,31.802-40.197,62.614-62.417,92.328 M1835.51,0 c24.192,28.846,46.926,58.956,68.072,90.23 M27.772,1097.298C17.568,1072.355,8.297,1046.932,0,1021.072 M0,379.157 C45.514,237.244,120.357,108.47,217.451,0 M1782.549,0c97.094,108.47,171.937,237.244,217.451,379.158 M2000,1020.842 c-45.5,141.926-120.367,270.683-217.451,379.158 M217.404,1400c-31.69-35.406-61.017-72.971-87.724-112.455 M1991.739,507.829 c3.152,16.364,5.909,32.869,8.261,49.504 M2000,842.107c-30.305,215.175-128.385,408.565-271.979,557.893 M271.979,1400 C128.369,1250.678,30.313,1057.276,0,842.109 M0,557.331c2.352-16.634,5.109-33.139,8.261-49.503 M68.597,308.786 C117.134,193.368,186.521,88.887,272.003,0 M1728.01,0c40.041,41.634,76.564,86.676,109.048,134.68 M1898.298,333.324 c46.223,113.122,71.701,236.924,71.701,366.676c0,63.041-6.015,124.677-17.5,184.367 M1803.797,1243.094 c-38.523,56.904-82.938,109.491-132.354,156.906 M328.552,1400c-3.654-3.506-7.291-7.03-10.89-10.592 M101.701,1066.676 C55.478,953.554,30,829.752,30,700c0-129.752,25.478-253.554,71.701-366.676 M317.663,10.592c3.599-3.562,7.236-7.086,10.89-10.592 M88.72,513.635C130.04,310.517,237.585,131.49,387.792,0 M1612.24,0c194.743,170.467,317.759,420.854,317.759,700 s-123.016,529.533-317.759,700 M387.792,1400C237.585,1268.509,130.039,1089.483,88.72,886.363 M1889.936,704.999 c-1.555,282.042-134.3,533.005-340.303,695.001 M257.152,1190.342C164.155,1049.74,110.001,881.195,110.001,700 c0-284.067,133.087-537.049,340.308-700 M1549.663,0c117.898,92.715,211.799,214.574,270.846,354.72 M517.766,1400 c-132.607-91.538-237.949-219.758-301.31-370.031 M150.063,695.001C151.728,406.701,296.938,152.454,517.809,0 M1482.214,0 c222.16,153.333,367.785,409.641,367.785,700c0,172.971-51.672,333.87-140.413,468.116 M1676.323,254.108 c84.486,127.889,133.676,281.144,133.676,445.892c0,298.678-161.684,559.56-402.276,700 M592.276,1400 C351.684,1259.56,190,998.678,190,700c0-108.058,21.16-211.174,59.561-305.43 M430.8,123.729 C479.054,76.063,533.267,34.417,592.217,0 M1407.789,0c12.932,7.55,25.639,15.443,38.102,23.676 M576.333,56.939 C608.846,35.475,643.085,16.413,678.793,0 M1321.096,0c263.478,121.072,446.874,386.492,448.84,695.001 M1709.614,999.346 c-74.837,177.185-214.085,320.523-388.405,400.654 M568.02,1337.502c-80.805-54.861-150.63-124.682-205.496-205.484 M1717.062,562.466c8.492,44.542,12.937,90.519,12.937,137.534c0,199.786-80.266,380.817-210.297,512.631 M792.237,1400 c-116.408-34.502-220.679-97.246-304.868-180.298 M327.35,415.965C411.708,216.436,582.246,62.238,792.303,0 M1207.71,0 c163.408,48.42,302.903,152.485,396.512,290.257 M1491.417,215.653C1614.211,340.228,1689.999,511.261,1689.999,700 c0,381.076-308.923,690-690,690c-285.747,0-530.9-173.709-635.685-421.277 M310.04,695 c1.672-235.354,121.165-442.686,302.442-565.961 M870.271,22.178c42.017-7.993,85.384-12.177,129.728-12.177 c91.787,0,179.387,17.924,259.494,50.46 M1537.711,1065.301c-46.106,67.735-104.675,126.304-172.41,172.41 M1121.923,1338.582 c-39.492,7.495-80.25,11.417-121.923,11.417c-86.363,0-168.792-16.845-244.182-47.426 M1320.842,228.826 C1471.249,331.443,1569.999,504.185,1569.999,700c0,155.603-62.356,296.637-163.435,399.494 M1213.558,1228.641 C1147.602,1255.312,1075.516,1270,1000,1270c-36.332,0-71.87-3.4-106.313-9.897 M679.157,1171.174 C528.75,1068.557,430,895.816,430,700c0-314.802,255.197-570,570-570c36.332,0,71.87,3.4,106.314,9.898 M1529.936,704.999 C1527.248,995.403,1291.039,1230,1000,1230c-181.948,0-342.472-91.693-437.912-231.382 M470.047,695 c2.007-216.931,134.328-402.703,322.475-482.826 M1004.999,170.04c179.885,1.664,338.348,92.936,432.912,231.343 M1404.658,976.398 c-34.418,50.292-77.968,93.842-128.26,128.26 M995,1189.955c-187.85-1.88-350.387-109.449-430.982-266.1 M533.42,849.995 C518.231,802.719,510,752.324,510,700c0-30.99,2.877-61.309,8.379-90.703 M657.074,350.003 C745.452,263.401,866.489,210.001,1000,210.001c189.964,0,354.678,108.102,435.981,266.145 M1466.579,550.005 c15.187,47.278,23.42,97.671,23.42,149.995c0,30.99-2.877,61.308-8.379,90.702 M1442.379,617.104 c5.004,26.868,7.62,54.577,7.62,82.896c0,46.904-7.186,92.128-20.5,134.643 M1398.865,908.473 c-61.397,117.231-172.947,204.047-306.16,231.952 M557.62,782.896C552.616,756.028,550,728.319,550,700 c0-46.905,7.178-92.133,20.5-134.643 M601.135,491.527C676.322,347.969,826.709,250,1000,250 c154.214,0,290.302,77.58,371.387,195.833 M1286.354,993.425c-54.591,53.283-123.994,91.459-201.453,107.77 M656.308,923.634 C614.373,859.318,590,782.506,590,700c0-25.649,2.356-50.748,6.862-75.091 M661.869,468.054 c58.578-85.232,148.549-147.209,253.229-169.251 M1084.897,298.826c184.121,38.772,322.712,201.073,325.046,396.175 M638.064,622.907C673.534,455.569,822.094,330,1000,330c100.375,0,191.412,39.97,258.068,104.861 M790.283,1004.863 c-57.059-39.326-102.531-94.255-130.257-158.627 M1187.491,428.4c15.053,10.411,29.198,22.041,42.292,34.747 M1329.96,705 c-1.642,110.552-57.645,207.933-142.469,266.6 M812.51,971.597c-75.768-52.404-128.534-135.695-140.109-231.672 M1167.662,671.748 c1.537,9.188,2.337,18.627,2.337,28.252c0,69.065-41.188,128.504-100.338,155.11 M832.346,728.25 c-1.539-9.188-2.347-18.624-2.347-28.25c0-32.491,9.119-62.851,24.932-88.665 M911.085,555.088 C936.955,539.181,967.403,530,999.999,530c57.143,0,107.701,28.195,138.522,71.43 M756.102,856.954 c-18.531-28.737-32.121-60.961-39.571-95.47 M1073.069,980.705C1049.725,986.767,1025.24,990,1000,990 c-57.833,0-111.713-16.93-156.953-46.104 M1043.866,946.164C1029.624,948.685,1014.966,950,1000,950 c-54.594,0-105.091-17.511-146.207-47.207 M797.392,846.461C767.582,805.303,750,754.707,750,700 c0-102.401,61.569-190.42,149.705-229.065 M1143.033,494.935c24.14,16.869,45.163,37.891,62.032,62.03 M887.506,522.643 C920.025,501.974,958.614,490,1000,490c41.387,0,79.973,11.976,112.489,32.65 M1120.796,528.215 c21.566,15.196,40.145,34.348,54.677,56.404 M1205.844,658.259c2.721,13.491,4.155,27.448,4.155,41.742 c0,114.308-91.33,207.28-205,209.937 M822.642,812.494C801.973,779.974,790,741.386,790,700c0-41.386,11.974-79.975,32.643-112.493 M1083.17,739.45c2.761,0,5-2.238,5-5c0-2.134-1.338-3.957-3.22-4.674c-0.553-0.211-1.152-0.326-1.78-0.326c-2.762,0-5,2.239-5,5 c0,2.033,1.214,3.783,2.956,4.564C1081.75,739.294,1082.442,739.45,1083.17,739.45L1083.17,739.45z M1046.205,685.861 c0.59,0,1.155-0.102,1.68-0.29c1.935-0.69,3.32-2.538,3.32-4.71c0-2.761-2.239-5-5-5c-1.411,0-2.684,0.584-3.594,1.524 c-0.87,0.9-1.406,2.125-1.406,3.476C1041.205,683.622,1043.444,685.861,1046.205,685.861L1046.205,685.861z M1019.139,658.794 c1.39,0,2.648-0.568,3.554-1.483c0.894-0.903,1.446-2.146,1.446-3.517c0-2.761-2.239-5-5-5c-2.172,0-4.02,1.385-4.71,3.32 c-0.187,0.525-0.29,1.091-0.29,1.68C1014.139,656.556,1016.378,658.794,1019.139,658.794L1019.139,658.794z M965.549,621.829 c2.761,0,5-2.238,5-5c0-0.627-0.116-1.226-0.326-1.779c-0.717-1.883-2.539-3.221-4.674-3.221c-2.762,0-5,2.239-5,5 c0,0.728,0.156,1.42,0.436,2.044C961.766,620.615,963.516,621.829,965.549,621.829L965.549,621.829z M938.881,796.471 c2.761,0,5-2.239,5-5c0-1.733-0.882-3.26-2.222-4.158c-0.795-0.532-1.75-0.842-2.778-0.842c-2.762,0-5,2.238-5,5 c0,1.733,0.882,3.26,2.222,4.158C936.897,796.161,937.852,796.471,938.881,796.471L938.881,796.471z M908.528,766.119 c2.762,0,5-2.238,5-5c0-1.028-0.311-1.983-0.842-2.778c-0.897-1.34-2.424-2.222-4.158-2.222c-2.761,0-5,2.239-5,5 c0,1.028,0.311,1.983,0.842,2.778C905.268,765.237,906.795,766.119,908.528,766.119L908.528,766.119z M879.864,655.238 c2.762,0,5-2.239,5-5c0-1.279-0.48-2.445-1.27-3.329c-0.916-1.025-2.247-1.671-3.73-1.671c-2.762,0-5,2.239-5,5 c0,2.117,1.316,3.927,3.175,4.656C878.604,655.116,879.219,655.238,879.864,655.238L879.864,655.238z M950.238,584.864 c2.761,0,5-2.238,5-5c0-0.644-0.122-1.26-0.344-1.826c-0.4-1.02-1.126-1.876-2.049-2.441c-0.759-0.465-1.652-0.733-2.607-0.733 c-2.762,0-5,2.239-5,5c0,0.264,0.02,0.522,0.06,0.775c0.167,1.074,0.676,2.035,1.412,2.768 C947.614,584.307,948.861,584.864,950.238,584.864L950.238,584.864z M1990.782,497.921c2.762,0,5,2.238,5,5 c0,2.434-1.74,4.462-4.043,4.908c-0.31,0.06-0.63,0.092-0.957,0.092c-2.757,0-4.993-2.231-5-4.994 C1985.782,500.16,1988.02,497.921,1990.782,497.921L1990.782,497.921z M659.062,467.192c1.041,0,2.007,0.318,2.807,0.862 c0.567,0.386,1.051,0.885,1.419,1.465c0.49,0.773,0.774,1.69,0.774,2.673c0,2.762-2.239,5-5,5c-2.762,0-5-2.238-5-5 C654.062,469.431,656.3,467.192,659.062,467.192L659.062,467.192z M653.518,348.518c1.391,0,2.65,0.568,3.556,1.486 c0.892,0.903,1.444,2.144,1.444,3.514c0,0.248-0.018,0.492-0.053,0.731l-0.012,0.075c-0.385,2.378-2.448,4.194-4.935,4.194 c-2.145,0-3.974-1.35-4.684-3.247c-0.204-0.545-0.316-1.136-0.316-1.753C648.518,350.756,650.756,348.518,653.518,348.518 L653.518,348.518z M1450.058,21.44c2.761,0,5,2.239,5,5s-2.239,5-5,5c-2.601,0-4.738-1.986-4.977-4.525 c-0.015-0.156-0.023-0.315-0.023-0.475c0-1.022,0.307-1.972,0.833-2.763C1446.787,22.329,1448.319,21.44,1450.058,21.44 L1450.058,21.44z M865.362,18.13c2.436,0,4.465,1.742,4.909,4.049c0.059,0.308,0.091,0.626,0.091,0.952 c0,0.15-0.007,0.298-0.02,0.445c-0.225,2.553-2.369,4.555-4.98,4.555c-2.762,0-5-2.239-5-5S862.601,18.13,865.362,18.13 L865.362,18.13z M797.124,205.216c2.761,0,5,2.239,5,5c0,2.762-2.239,5-5,5c-1.036,0-1.997-0.315-2.795-0.854 c-0.795-0.537-1.427-1.296-1.807-2.188c-0.256-0.602-0.398-1.263-0.398-1.958C792.124,207.455,794.363,205.216,797.124,205.216 L797.124,205.216z M616.616,121.227c2.761,0,5,2.238,5,5c0,2.761-2.239,5-5,5c-0.858,0-1.666-0.216-2.371-0.597 c-0.708-0.382-1.312-0.929-1.763-1.59c-0.546-0.801-0.866-1.77-0.866-2.813C611.616,123.465,613.854,121.227,616.616,121.227 L616.616,121.227z M572.165,54.702c1.74,0,3.272,0.889,4.168,2.237c0.526,0.792,0.833,1.742,0.833,2.763 c0,0.8-0.188,1.555-0.522,2.225c-0.819,1.644-2.516,2.775-4.478,2.775c-2.761,0-5-2.239-5-5 C567.165,56.941,569.404,54.702,572.165,54.702L572.165,54.702z M314.107,9.107c1.392,0,2.65,0.568,3.556,1.486 c0.791,0.8,1.313,1.866,1.422,3.052c0.014,0.152,0.021,0.307,0.021,0.463c0,2.761-2.238,5-5,5s-5-2.239-5-5 S311.345,9.107,314.107,9.107L314.107,9.107z M427.243,122.244c1.392,0,2.65,0.568,3.556,1.486c0.79,0.8,1.313,1.866,1.422,3.051 c0.014,0.152,0.022,0.307,0.022,0.463c0,2.762-2.238,5-5,5s-5-2.238-5-5C422.243,124.482,424.482,122.244,427.243,122.244 L427.243,122.244z M455.528,150.528c2.762,0,5,2.238,5,5s-2.238,5-5,5c-0.334,0-0.659-0.033-0.975-0.095 c-0.979-0.194-1.857-0.674-2.54-1.348c-0.917-0.906-1.486-2.165-1.486-3.556C450.528,152.766,452.766,150.528,455.528,150.528 L455.528,150.528z M540.381,235.381c1.392,0,2.65,0.568,3.556,1.486c0.892,0.903,1.444,2.144,1.444,3.514 c0,0.315-0.029,0.623-0.085,0.921c-0.432,2.322-2.468,4.079-4.915,4.079c-2.761,0-5-2.238-5-5 C535.381,237.619,537.619,235.381,540.381,235.381L540.381,235.381z M492.75,356.067l0.092,0.001 c1.008,0.018,1.943,0.335,2.721,0.865c1.32,0.9,2.187,2.416,2.187,4.134c0,0.156-0.008,0.31-0.021,0.462 c-0.234,2.545-2.373,4.538-4.979,4.538c-1.711,0-3.222-0.86-4.123-2.171c-0.553-0.804-0.877-1.779-0.877-2.829 C487.75,358.305,489.989,356.067,492.75,356.067L492.75,356.067z M325.392,415.567c0.695,0,1.357,0.142,1.958,0.398 c1.648,0.702,2.843,2.265,3.019,4.123c0.015,0.158,0.023,0.317,0.023,0.479c0,2.762-2.238,5-5,5c-2.762,0-5-2.238-5-5 S322.63,415.567,325.392,415.567L325.392,415.567z M251.462,384.944c2.602,0,4.739,1.987,4.978,4.526 c0.014,0.156,0.022,0.315,0.022,0.474c0,2.762-2.239,5-5,5c-0.673,0-1.315-0.133-1.901-0.374c-1.819-0.748-3.099-2.537-3.099-4.626 C246.462,387.183,248.701,384.944,251.462,384.944L251.462,384.944z M103.603,323.699c2.761,0,5,2.238,5,5c0,2.761-2.239,5-5.006,5 c-0.675-0.002-1.313-0.135-1.896-0.375c-1.818-0.748-3.098-2.537-3.098-4.625C98.603,325.937,100.842,323.699,103.603,323.699 L103.603,323.699z M66.638,308.387c0.695,0,1.357,0.142,1.959,0.398c1.65,0.703,2.844,2.267,3.019,4.128 c0.015,0.156,0.022,0.314,0.022,0.474c0,2.762-2.238,5-5,5c-2.761,0-5-2.238-5-5S63.877,308.387,66.638,308.387L66.638,308.387z M9.218,497.92c1.566,0,2.964,0.72,3.881,1.847c0.7,0.86,1.119,1.957,1.119,3.153c0,1.196-0.42,2.294-1.121,3.154 c-0.917,1.126-2.314,1.846-3.879,1.846c-0.327,0-0.647-0.032-0.957-0.092c-2.303-0.447-4.043-2.474-4.043-4.908 C4.218,500.158,6.457,497.92,9.218,497.92L9.218,497.92z M87.696,513.53c0.351,0,0.694,0.036,1.024,0.105 c2.27,0.473,3.976,2.485,3.976,4.895c0,2.663-2.082,4.839-4.707,4.991c-0.097,0.006-0.195,0.009-0.293,0.009c-2.761,0-5-2.238-5-5 C82.696,515.769,84.934,513.53,87.696,513.53L87.696,513.53z M283.89,552.556c2.762,0,5,2.239,5,5c0,2.595-1.977,4.729-4.507,4.976 c-0.162,0.016-0.327,0.024-0.493,0.024c-0.326,0-0.644-0.031-0.953-0.091c-2.306-0.445-4.047-2.473-4.047-4.909 C278.89,554.794,281.129,552.556,283.89,552.556L283.89,552.556z M310,695l0.04,0.001c0.926,0.007,1.792,0.266,2.533,0.711 c1.454,0.874,2.427,2.467,2.427,4.288c0,2.762-2.238,5-5,5s-5-2.238-5-5C305,697.238,307.238,695,310,695L310,695z M150,695 l0.063,0.001C152.796,695.035,155,697.26,155,700c0,0.471-0.065,0.928-0.187,1.36C154.221,703.46,152.29,705,150,705 c-2.762,0-5-2.238-5-5C145,697.238,147.239,695,150,695L150,695z M87.696,876.469c2.763,0.002,5,2.24,5,5 c0,2.41-1.706,4.422-3.976,4.895c-0.331,0.069-0.673,0.105-1.024,0.105c-2.762,0-5-2.239-5-5S84.934,876.469,87.696,876.469 L87.696,876.469z M362.357,959.121c1.74,0,3.272,0.889,4.168,2.238c0.526,0.792,0.832,1.741,0.832,2.762 c0,2.066-1.254,3.84-3.042,4.602c-0.602,0.256-1.263,0.398-1.958,0.398c-2.762,0-5-2.239-5-5S359.595,959.121,362.357,959.121 L362.357,959.121z M214.497,1020.367c2.761,0,5,2.239,5,5c0,0.505-0.075,0.992-0.214,1.451c-0.431,1.421-1.476,2.575-2.827,3.151 c-0.602,0.256-1.263,0.398-1.958,0.398c-2.762,0-5-2.239-5-5S211.736,1020.367,214.497,1020.367L214.497,1020.367z M103.603,1066.301c0.094,0,0.188,0.003,0.282,0.008c2.631,0.146,4.719,2.325,4.719,4.992c0,2.761-2.238,5-5,5c-2.761,0-5-2.239-5-5 c0-2.088,1.28-3.877,3.098-4.625C102.288,1066.434,102.929,1066.301,103.603,1066.301L103.603,1066.301z M29.673,1096.924 c2.761,0,5,2.239,5,5c0,1.816-0.968,3.406-2.416,4.281c-0.754,0.456-1.638,0.719-2.584,0.719c-2.762,0-5-2.239-5-5 c0-2.088,1.28-3.877,3.098-4.625C28.358,1097.057,29,1096.924,29.673,1096.924L29.673,1096.924z M314.106,1380.893 c2.6,0,4.737,1.985,4.977,4.523c0.015,0.157,0.023,0.316,0.023,0.477c0,1.37-0.551,2.611-1.444,3.514 c-0.906,0.917-2.165,1.486-3.556,1.486c-2.762,0-5-2.239-5-5S311.345,1380.893,314.106,1380.893L314.106,1380.893z M126.866,1278.411c2.762,0,5,2.239,5,5c0,1.718-0.867,3.234-2.187,4.134c-0.802,0.547-1.77,0.866-2.813,0.866c-2.761,0-5-2.239-5-5 c0-1.91,1.071-3.569,2.644-4.411C125.212,1278.624,126.014,1278.411,126.866,1278.411L126.866,1278.411z M259.915,1189.51 c1.952,0,3.642,1.118,4.466,2.749c0.342,0.676,0.534,1.441,0.534,2.251c0,2.761-2.238,5-5,5s-5-2.239-5-5 c0-1.74,0.889-3.272,2.237-4.167C257.944,1189.816,258.894,1189.51,259.915,1189.51L259.915,1189.51z M359.5,1123.036 c2.762,0,5,2.239,5,5c0,1.283-0.483,2.452-1.277,3.337c-0.212,0.236-0.446,0.452-0.699,0.645c-0.84,0.639-1.888,1.018-3.024,1.018 c-2.762,0-5-2.239-5-5S356.738,1123.036,359.5,1123.036L359.5,1123.036z M483.812,1211.188c2.761,0,5,2.238,5,5 c0,0.505-0.075,0.992-0.214,1.452c-0.239,0.787-0.666,1.492-1.229,2.063c-0.906,0.917-2.165,1.486-3.556,1.486c-2.762,0-5-2.239-5-5 C478.812,1213.426,481.051,1211.188,483.812,1211.188L483.812,1211.188z M459.488,1056.159c2.762,0,5,2.239,5,5c0,2.761-2.238,5-5,5 c-2.762,0-5-2.239-5-5c0-1.74,0.889-3.272,2.237-4.168c0.737-0.489,1.611-0.789,2.552-0.828 C459.347,1056.161,459.418,1056.159,459.488,1056.159L459.488,1056.159z M559.275,989.484c2.265,0,4.178,1.506,4.793,3.571 c0.135,0.453,0.207,0.932,0.207,1.429c0,1.718-0.867,3.234-2.187,4.134c-0.802,0.547-1.77,0.866-2.813,0.866c-2.761,0-5-2.238-5-5 C554.275,991.722,556.513,989.484,559.275,989.484L559.275,989.484z M683.291,1168.987c0.763,0,1.486,0.171,2.133,0.477 c1.695,0.8,2.867,2.525,2.867,4.523c0,2.761-2.238,5-5,5c-2.761,0-5-2.239-5-5c0-1.043,0.319-2.012,0.866-2.813 C680.057,1169.854,681.573,1168.987,683.291,1168.987L683.291,1168.987z M572.166,1335.298c2.762,0,5,2.239,5,5c0,2.762-2.238,5-5,5 c-2.761,0-5-2.239-5-5c0-1.036,0.315-1.998,0.854-2.796c0.216-0.32,0.469-0.614,0.753-0.876 C569.664,1335.802,570.856,1335.298,572.166,1335.298L572.166,1335.298z M751.19,1295.678c2.062,0,3.831,1.248,4.596,3.029 c0.26,0.605,0.404,1.271,0.404,1.971c0,0.172-0.009,0.341-0.026,0.508c-0.049,0.486-0.168,0.952-0.347,1.387 c-0.747,1.821-2.537,3.104-4.628,3.104c-2.762,0-5-2.239-5-5c0-1.756,0.905-3.3,2.275-4.192 C749.248,1295.975,750.184,1295.678,751.19,1295.678L751.19,1295.678z M888.776,1254.154c2.604,0,4.743,1.991,4.978,4.533 c0.014,0.154,0.022,0.309,0.022,0.467c0,0.324-0.031,0.641-0.09,0.948c-0.443,2.308-2.473,4.052-4.91,4.052c-2.762,0-5-2.239-5-5 C883.776,1256.393,886.015,1254.154,888.776,1254.154L888.776,1254.154z M1361.159,1235.511c1.389,0,2.646,0.566,3.552,1.481 c0.219,0.221,0.417,0.462,0.591,0.719c0.541,0.799,0.857,1.762,0.857,2.8c0,2.761-2.239,5-5,5s-5-2.239-5-5 C1356.159,1237.749,1358.397,1235.511,1361.159,1235.511L1361.159,1235.511z M1126.833,1332.632c2.762,0,5,2.239,5,5 c0,2.761-2.238,5-5,5c-2.436,0-4.465-1.743-4.91-4.05c-0.059-0.308-0.09-0.625-0.09-0.95c0-0.174,0.009-0.347,0.026-0.517 C1122.118,1334.597,1124.245,1332.632,1126.833,1332.632L1126.833,1332.632z M1218.187,1221.748c2.762,0,5,2.239,5,5s-2.239,5-5,5 c-2.092,0-3.883-1.284-4.629-3.107c-0.177-0.432-0.295-0.894-0.345-1.376c-0.017-0.17-0.026-0.342-0.026-0.517 C1213.187,1223.987,1215.426,1221.748,1218.187,1221.748L1218.187,1221.748z M1516.187,1211.188c0.512,0,1.006,0.077,1.471,0.22 c0.779,0.24,1.478,0.665,2.043,1.224c0.917,0.906,1.486,2.165,1.486,3.556c0,2.761-2.239,5-5,5s-5-2.239-5-5 C1511.187,1213.426,1513.426,1211.188,1516.187,1211.188L1516.187,1211.188z M1403.05,1098.051c1.37,0,2.611,0.551,3.514,1.443 c0.917,0.906,1.486,2.165,1.486,3.557c0,2.761-2.239,5-5,5c-2.761,0-5-2.239-5-5c0-2.604,1.991-4.743,4.533-4.978 C1402.738,1098.058,1402.893,1098.051,1403.05,1098.051L1403.05,1098.051z M1806.61,1233.959c2.762,0,5,2.239,5,5 c0,2.761-2.238,5-5,5c-1.043,0-2.011-0.319-2.813-0.866c-1.186-0.808-2.006-2.114-2.161-3.617c-0.017-0.17-0.026-0.343-0.026-0.517 C1801.61,1236.198,1803.848,1233.959,1806.61,1233.959L1806.61,1233.959z M1706.823,1167.284c1.022,0,1.971,0.307,2.763,0.833 c1.348,0.895,2.237,2.427,2.237,4.167c0,2.761-2.239,5-5,5c-2.762,0-5-2.239-5-5c0-0.505,0.075-0.992,0.214-1.452 C1702.659,1168.778,1704.566,1167.284,1706.823,1167.284L1706.823,1167.284z M1540.511,1056.158c2.761,0,5,2.239,5,5s-2.239,5-5,5 c-1.037,0-2.001-0.316-2.8-0.857c-0.21-0.142-0.409-0.3-0.594-0.472c-0.988-0.913-1.606-2.22-1.606-3.671 C1535.511,1058.397,1537.75,1056.158,1540.511,1056.158L1540.511,1056.158z M1711.572,989.744c2.762,0,5,2.239,5,5 c0,2.762-2.238,5-5,5c-0.695,0-1.357-0.142-1.958-0.398c-1.168-0.498-2.108-1.427-2.62-2.589c-0.271-0.616-0.422-1.297-0.422-2.013 C1706.572,991.982,1708.811,989.744,1711.572,989.744L1711.572,989.744z M1951.543,884.275c0.327,0,0.647,0.031,0.957,0.092 c2.304,0.446,4.043,2.474,4.043,4.908c0,2.762-2.239,5-5,5c-2.762,0-5-2.239-5-5c0-2.602,1.987-4.739,4.526-4.978 C1951.225,884.283,1951.383,884.275,1951.543,884.275L1951.543,884.275z M1637.631,821.833c0.329,0,0.645,0.031,0.951,0.09 c2.307,0.444,4.049,2.473,4.049,4.91c0,2.762-2.239,5-5,5c-1.077,0-2.074-0.341-2.891-0.92c-1.276-0.906-2.11-2.396-2.11-4.08 c0-2.729,2.186-4.947,4.903-4.999L1637.631,821.833L1637.631,821.833z M1889.999,695c2.762,0,5,2.239,5,5c0,2.762-2.238,5-5,5 l-0.063-0.001c-1.835-0.023-3.431-1.034-4.283-2.525c-0.416-0.73-0.654-1.574-0.654-2.474 C1884.999,697.238,1887.238,695,1889.999,695L1889.999,695z M1769.999,695c2.761,0,5,2.239,5,5c0,2.762-2.239,5-5,5s-5-2.238-5-5 c0-0.853,0.214-1.655,0.59-2.358c0.833-1.555,2.464-2.618,4.347-2.641L1769.999,695L1769.999,695z M1716.109,552.557 c2.761,0,5,2.239,5,5c0,2.436-1.742,4.464-4.047,4.909c-0.308,0.06-0.627,0.091-0.953,0.091c-0.411,0-0.811-0.05-1.193-0.143 c-2.186-0.535-3.807-2.506-3.807-4.857C1711.109,554.795,1713.348,552.557,1716.109,552.557L1716.109,552.557z M1822.467,354.322 c2.761,0,5,2.239,5,5s-2.239,5-5,5c-1.909,0-3.568-1.07-4.41-2.642c-0.376-0.702-0.59-1.505-0.59-2.358 c0-2.066,1.254-3.84,3.042-4.602C1821.11,354.464,1821.772,354.322,1822.467,354.322L1822.467,354.322z M1896.397,323.699 c2.761,0,5,2.238,5,5c0,2.088-1.28,3.877-3.098,4.625c-0.359,0.148-0.739,0.255-1.135,0.316c-0.25,0.039-0.506,0.058-0.767,0.058 c-2.761,0-5-2.239-5-5C1891.397,325.937,1893.635,323.699,1896.397,323.699L1896.397,323.699z M1607.035,289.391 c2.762,0,5,2.238,5,5s-2.239,5-5,5c-2.596,0-4.73-1.978-4.976-4.51c-0.016-0.161-0.024-0.325-0.024-0.49 c0-1.718,0.867-3.234,2.187-4.134C1605.024,289.71,1605.992,289.391,1607.035,289.391L1607.035,289.391z M1673.559,244.941 c2.762,0,5,2.239,5,5c0,1.74-0.889,3.272-2.237,4.168c-0.792,0.526-1.742,0.833-2.763,0.833c-2.587,0-4.715-1.965-4.974-4.483 c-0.017-0.17-0.026-0.343-0.026-0.517C1668.559,247.179,1670.798,244.941,1673.559,244.941L1673.559,244.941z M1906.396,89.364 c2.762,0,5,2.239,5,5s-2.239,5-5,5c-2.761,0-5-2.239-5-5c0-0.091,0.003-0.181,0.007-0.27c0.086-1.606,0.929-3.011,2.18-3.864 C1904.384,89.683,1905.353,89.364,1906.396,89.364L1906.396,89.364z M1839.871,133.814c2.761,0,5,2.238,5,5c0,2.761-2.239,5-5,5 c-2.596,0-4.73-1.978-4.976-4.51c-0.016-0.161-0.024-0.325-0.024-0.49c0-1.718,0.867-3.234,2.187-4.134 C1837.86,134.133,1838.828,133.814,1839.871,133.814L1839.871,133.814z M1487.903,207.097c2.762,0,5,2.238,5,5 c0,1.391-0.568,2.65-1.486,3.556c-0.903,0.892-2.144,1.444-3.514,1.444c-1.677,0-3.161-0.826-4.069-2.093 c-0.586-0.819-0.931-1.823-0.931-2.907C1482.903,209.335,1485.141,207.097,1487.903,207.097L1487.903,207.097z M1264.121,57.357 c1.826,0,3.423,0.979,4.296,2.441c0.447,0.749,0.704,1.624,0.704,2.559c0,2.762-2.239,5-5,5c-2.762,0-5-2.238-5-5 c0-0.165,0.008-0.329,0.024-0.49c0.048-0.494,0.168-0.966,0.349-1.407c0.164-0.399,0.377-0.772,0.633-1.111 C1261.04,58.139,1262.489,57.357,1264.121,57.357L1264.121,57.357z M1000,165.001c2.761,0,5,2.238,5,5l-0.001,0.039 c-0.006,0.783-0.192,1.522-0.518,2.18c-0.818,1.648-2.517,2.781-4.481,2.781c-2.762,0-5-2.238-5-5S997.238,165.001,1000,165.001 L1000,165.001z M919.998,292.802c2.761,0,5,2.239,5,5c0,2.762-2.239,5-5,5c-1.732,0-3.259-0.881-4.156-2.22 c-0.355-0.53-0.612-1.132-0.744-1.779c-0.066-0.323-0.1-0.659-0.1-1.002C914.998,295.04,917.236,292.802,919.998,292.802 L919.998,292.802z M1080.003,292.802c2.762,0,5,2.239,5,5c0,0.351-0.036,0.693-0.105,1.024c-0.219,1.053-0.769,1.984-1.537,2.681 c-0.887,0.805-2.066,1.296-3.358,1.296c-2.761,0-5-2.239-5-5C1075.003,295.04,1077.241,292.802,1080.003,292.802L1080.003,292.802z M1111.223,135.846c2.761,0,5,2.238,5,5c0,2.761-2.239,5-5,5c-0.677,0-1.323-0.135-1.913-0.379 c-1.813-0.751-3.087-2.537-3.087-4.621c0-0.324,0.031-0.641,0.09-0.949C1106.757,137.59,1108.786,135.846,1111.223,135.846 L1111.223,135.846z M1316.708,221.013c2.762,0,5,2.238,5,5c0,1.043-0.319,2.012-0.866,2.813c-0.763,1.119-1.969,1.913-3.365,2.128 c-0.251,0.039-0.507,0.059-0.769,0.059c-2.761,0-5-2.239-5-5C1311.708,223.252,1313.946,221.013,1316.708,221.013L1316.708,221.013z M1618.012,572.07c2.428,0,4.451,1.73,4.906,4.034c0.062,0.32,0.094,0.639,0.094,0.966c0,2.761-2.239,5-5,5 c-2.416,0-4.431-1.713-4.898-3.99l-0.007-0.034c-0.063-0.315-0.095-0.642-0.095-0.975 C1613.012,574.308,1615.25,572.07,1618.012,572.07L1618.012,572.07z M1582.195,453.846c2.083,0,3.869,1.274,4.62,3.086l0.015,0.038 c0.235,0.579,0.364,1.212,0.364,1.876c0,2.762-2.238,5-5,5c-2.059,0-3.828-1.245-4.594-3.023l-0.027-0.063 c-0.244-0.59-0.38-1.236-0.38-1.914C1577.195,456.085,1579.433,453.846,1582.195,453.846L1582.195,453.846z M1291.044,500.53 c1.733,0,3.26,0.882,4.158,2.222l0.033,0.05c0.026,0.039,0.051,0.079,0.076,0.119c0.465,0.76,0.734,1.653,0.734,2.609 c0,2.762-2.238,5-5,5c-1.698,0-3.198-0.846-4.102-2.14l-0.056-0.082c-0.532-0.794-0.842-1.75-0.842-2.778 c0-0.956,0.269-1.85,0.734-2.609C1287.657,501.487,1289.239,500.53,1291.044,500.53L1291.044,500.53z M306.909,982.088 c2.083,0,3.869,1.275,4.621,3.086l0.016,0.038c0.234,0.579,0.364,1.212,0.364,1.876c0,2.762-2.238,5-5,5 c-2.059,0-3.828-1.245-4.594-3.023l-0.027-0.063c-0.245-0.589-0.38-1.236-0.38-1.914 C301.909,984.327,304.148,982.088,306.909,982.088L306.909,982.088z M417.804,453.846c2.762,0,5,2.238,5,5 c0,0.664-0.13,1.297-0.364,1.876l-0.016,0.038c-0.751,1.812-2.537,3.086-4.62,3.086c-2.762,0-5-2.239-5-5 c0-0.678,0.135-1.324,0.38-1.914l0.027-0.063C413.976,455.091,415.745,453.846,417.804,453.846L417.804,453.846z M1261.629,433.371 c2.37,0,4.355,1.65,4.87,3.863c0.085,0.365,0.13,0.746,0.13,1.137c0,2.762-2.239,5-5,5c-2.268,0-4.183-1.51-4.795-3.58 c-0.133-0.45-0.205-0.927-0.205-1.42c0-0.736,0.159-1.435,0.445-2.065c0.245-0.539,0.583-1.028,0.994-1.444 C1258.975,433.941,1260.235,433.371,1261.629,433.371L1261.629,433.371z M1233.345,461.655c2.762,0,5,2.238,5,5c0,2.762-2.239,5-5,5 c-2.761,0-5-2.238-5-5c0-1.224,0.44-2.346,1.171-3.215c0.085-0.101,0.174-0.199,0.267-0.294 C1230.689,462.226,1231.95,461.655,1233.345,461.655L1233.345,461.655z M1440.724,400.517c2.761,0,5,2.238,5,5c0,2.762-2.239,5-5,5 s-5-2.238-5-5c0-0.853,0.214-1.656,0.59-2.358c0.382-0.713,0.932-1.323,1.597-1.776 C1438.713,400.836,1439.681,400.517,1440.724,400.517L1440.724,400.517z M1374.199,444.967c2.178,0,4.031,1.393,4.716,3.337 c0.184,0.521,0.284,1.08,0.284,1.663c0,2.762-2.238,5-5,5c-2.671,0-4.853-2.095-4.993-4.731c-0.005-0.089-0.007-0.178-0.007-0.269 c0-0.932,0.255-1.804,0.699-2.551c0.375-0.63,0.884-1.171,1.488-1.583C1372.188,445.286,1373.156,444.967,1374.199,444.967 L1374.199,444.967z M1441.437,607.193c2.761,0,5,2.239,5,5c0,2.439-1.747,4.47-4.058,4.911c-0.302,0.057-0.615,0.088-0.938,0.089 c-2.766,0-5.004-2.239-5.004-5C1436.437,609.431,1438.675,607.193,1441.437,607.193L1441.437,607.193z M1529.999,695 c2.762,0,5,2.239,5,5c0,2.762-2.238,5-5,5l-0.063-0.001c-2.2-0.027-4.057-1.476-4.698-3.469c-0.155-0.482-0.239-0.996-0.239-1.53 C1524.999,697.238,1527.238,695,1529.999,695L1529.999,695z M1480.676,790.613c0.323,0,0.639,0.031,0.945,0.089 c2.31,0.442,4.055,2.472,4.055,4.911c0,2.762-2.239,5-5,5s-5-2.239-5-5c0-2.667,2.089-4.846,4.719-4.992 C1480.488,790.616,1480.582,790.613,1480.676,790.613L1480.676,790.613z M1409.999,695c2.761,0,5,2.239,5,5c0,2.762-2.239,5-5,5 s-5-2.238-5-5c0-1.558,0.713-2.95,1.83-3.867c0.85-0.697,1.933-1.12,3.114-1.132L1409.999,695L1409.999,695z M1329.999,695 c2.761,0,5,2.238,5,5c0,2.762-2.239,5-5,5L1329.96,705c-2.743-0.021-4.961-2.251-4.961-4.999c0-2.748,2.216-4.978,4.959-4.999 L1329.999,695L1329.999,695z M833.234,728.171c2.761,0,5,2.239,5,5c0,2.402-1.694,4.408-3.952,4.89 c-0.338,0.072-0.689,0.11-1.048,0.11c-2.538,0-4.634-1.891-4.957-4.341c-0.028-0.216-0.043-0.436-0.043-0.659 c0-1.16,0.395-2.228,1.059-3.076c0.742-0.949,1.819-1.624,3.054-1.845C832.634,728.198,832.931,728.171,833.234,728.171 L833.234,728.171z M1087.807,1136.438c2.415,0,4.43,1.712,4.897,3.988c0.067,0.327,0.103,0.666,0.103,1.012c0,2.761-2.239,5-5,5 c-2.445,0-4.48-1.755-4.914-4.075c-0.056-0.3-0.086-0.609-0.086-0.925C1082.807,1138.676,1085.045,1136.438,1087.807,1136.438 L1087.807,1136.438z M1407.462,967.258c2.761,0,5,2.239,5,5c0,2.762-2.239,5-5,5c-1.039,0-2.005-0.317-2.805-0.86 c-0.201-0.137-0.392-0.288-0.571-0.452c-0.998-0.914-1.625-2.228-1.625-3.688C1402.462,969.496,1404.701,967.258,1407.462,967.258 L1407.462,967.258z M1289.913,984.914c2.762,0,5,2.238,5,5c0,2.761-2.238,5-5,5c-1.393,0-2.653-0.57-3.559-1.489 c-0.298-0.302-0.557-0.641-0.771-1.01c-0.426-0.735-0.67-1.59-0.67-2.501C1284.913,987.152,1287.152,984.914,1289.913,984.914 L1289.913,984.914z M1272.258,1102.462c1.383,0,2.634,0.561,3.539,1.468c0.222,0.223,0.423,0.466,0.6,0.727 c0.543,0.8,0.86,1.766,0.86,2.805c0,2.761-2.239,5-5,5s-5-2.239-5-5S1269.497,1102.462,1272.258,1102.462L1272.258,1102.462z M1000,1185c2.762,0,5,2.239,5,5c0,2.762-2.238,5-5,5c-2.762,0-5-2.239-5-5l0.001-0.044c0.008-0.99,0.305-1.911,0.81-2.684 C996.702,1185.904,998.245,1185,1000,1185L1000,1185z M1080.002,1097.199c1.909,0,3.569,1.071,4.411,2.644 c0.224,0.419,0.391,0.873,0.489,1.352c0.066,0.324,0.101,0.66,0.101,1.004c0,2.761-2.239,5-5,5c-2.761,0-5-2.239-5-5 S1077.24,1097.199,1080.002,1097.199L1080.002,1097.199z M919.997,1097.199c2.762,0,5,2.239,5,5s-2.238,5-5,5c-2.762,0-5-2.239-5-5 c0-0.344,0.035-0.68,0.101-1.004c0.107-0.524,0.296-1.018,0.553-1.469C916.511,1098.216,918.135,1097.199,919.997,1097.199 L919.997,1097.199z M1064.392,1018.721c2.762,0,5,2.239,5,5c0,2.762-2.239,5-5,5c-2.443,0-4.476-1.752-4.913-4.067 c-0.057-0.302-0.087-0.614-0.087-0.933c0-0.174,0.009-0.347,0.026-0.516C1059.677,1020.685,1061.805,1018.721,1064.392,1018.721 L1064.392,1018.721z M1183.358,969.413c0.335,0,0.662,0.033,0.979,0.096c1.307,0.259,2.431,1.028,3.155,2.091 c0.547,0.801,0.866,1.77,0.866,2.813c0,2.762-2.239,5-5,5c-2.761,0-5-2.238-5-5C1178.358,971.652,1180.596,969.413,1183.358,969.413 L1183.358,969.413z M1138.907,902.889c1.207,0,2.314,0.428,3.179,1.14c0.362,0.298,0.681,0.647,0.947,1.035 c0.551,0.804,0.874,1.776,0.874,2.824c0,2.762-2.239,5-5,5s-5-2.238-5-5C1133.907,905.127,1136.146,902.889,1138.907,902.889 L1138.907,902.889z M1048.782,940.243c2.761,0,5,2.238,5,5c0,2.761-2.239,5-5,5c-2.447,0-4.483-1.758-4.915-4.079 c-0.055-0.298-0.085-0.606-0.085-0.921c0-0.385,0.044-0.76,0.126-1.121C1044.417,941.9,1046.406,940.243,1048.782,940.243 L1048.782,940.243z M1000,905c1.202,0,2.305,0.424,3.168,1.131c1.103,0.905,1.813,2.272,1.832,3.806L1005,910c0,2.761-2.239,5-5,5 c-2.762,0-5-2.239-5-5C995,907.239,997.238,905,1000,905L1000,905z M1065.073,852.101c0.881,0,1.708,0.228,2.427,0.628 c0.958,0.533,1.722,1.37,2.161,2.382c0.265,0.61,0.412,1.283,0.412,1.99c0,2.761-2.239,5-5,5s-5-2.239-5-5 C1060.073,854.339,1062.312,852.101,1065.073,852.101L1065.073,852.101z M962.925,881.385c0.334,0,0.66,0.033,0.976,0.095 l0.102,0.022c2.243,0.493,3.922,2.492,3.922,4.883c0,2.762-2.238,5-5,5c-0.274,0-0.542-0.022-0.804-0.065 c-0.057-0.009-0.115-0.019-0.171-0.031c-2.294-0.453-4.025-2.477-4.025-4.905C957.925,883.623,960.164,881.385,962.925,881.385 L962.925,881.385z M695.943,999.056c1.381,0,2.631,0.56,3.536,1.464l0.053,0.054c0.874,0.9,1.412,2.128,1.412,3.482 c0,1.04-0.318,2.005-0.861,2.806c-0.899,1.324-2.418,2.194-4.139,2.194c-1.335,0-2.548-0.524-3.445-1.377l-0.09-0.088 c-0.905-0.905-1.464-2.155-1.464-3.536c0-0.869,0.222-1.685,0.611-2.397C692.404,1000.108,694.051,999.056,695.943,999.056 L695.943,999.056z M883.318,869.627c2.761,0,5,2.239,5,5c0,0.676-0.134,1.321-0.378,1.909c-0.12,0.289-0.265,0.564-0.435,0.823 c-0.893,1.365-2.435,2.268-4.188,2.268c-2.762,0-5-2.238-5-5C878.318,871.866,880.556,869.627,883.318,869.627L883.318,869.627z M825.373,811.682c0.073,0,0.146,0.002,0.218,0.005c2.661,0.114,4.782,2.306,4.782,4.995c0,2.761-2.239,5-5,5c-2.762,0-5-2.239-5-5 c0-1.754,0.903-3.296,2.269-4.189C823.427,811.981,824.365,811.682,825.373,811.682L825.373,811.682z M838.867,936.152 c2.762,0,5,2.239,5,5c0,0.283-0.024,0.561-0.069,0.832c-0.117,0.697-0.378,1.346-0.751,1.913c-0.894,1.358-2.432,2.255-4.179,2.255 c-2.761,0-5-2.238-5-5C833.867,938.39,836.105,936.152,838.867,936.152L838.867,936.152z M758.848,856.133c2.761,0,5,2.239,5,5 c0,2.761-2.239,5-5,5c-2.762,0-5-2.239-5-5c0-1.747,0.896-3.285,2.254-4.179c0.318-0.209,0.66-0.383,1.022-0.516 C757.661,856.24,758.242,856.133,758.848,856.133L758.848,856.133z M659.062,922.808c2.761,0,5,2.238,5,5c0,2.761-2.239,5-5,5 c-2.762,0-5-2.239-5-5c0-1.744,0.893-3.279,2.247-4.174c0.595-0.393,1.28-0.663,2.017-0.772 C658.565,922.827,658.811,922.808,659.062,922.808L659.062,922.808z M658.075,836.63c2.762,0,5,2.238,5,5 c0,1.567-0.721,2.965-1.849,3.882c-0.362,0.294-0.765,0.539-1.2,0.723c-0.599,0.254-1.258,0.395-1.951,0.395c-2.761,0-5-2.239-5-5 C653.075,838.869,655.313,836.63,658.075,836.63L658.075,836.63z M715.517,751.587c2.762,0,5,2.238,5,5 c0,2.079-1.269,3.862-3.075,4.616c-0.291,0.122-0.596,0.217-0.912,0.281c-0.327,0.067-0.667,0.103-1.014,0.103c-2.761,0-5-2.238-5-5 C710.517,753.826,712.756,751.587,715.517,751.587L715.517,751.587z M558.562,782.807c0.184,0,0.365,0.01,0.544,0.03 c2.506,0.271,4.456,2.393,4.456,4.971c0,2.761-2.238,5-5,5c-2.762,0-5-2.239-5-5c0-2.439,1.747-4.47,4.058-4.911 C557.925,782.838,558.24,782.807,558.562,782.807L558.562,782.807z M470,695l0.048,0.001c1.093,0.01,2.103,0.371,2.921,0.976 c1.233,0.91,2.032,2.374,2.032,4.024c0,2.762-2.238,5-5,5s-5-2.238-5-5C465,697.238,467.238,695,470,695L470,695z M519.324,599.387 c2.761,0,5,2.238,5,5c0,2.663-2.082,4.84-4.708,4.991c-0.097,0.006-0.194,0.009-0.292,0.009c-0.323,0-0.639-0.031-0.945-0.089 c-2.31-0.442-4.055-2.472-4.055-4.911C514.323,601.625,516.562,599.387,519.324,599.387L519.324,599.387z M597.801,614.997 c2.762,0,5,2.238,5,5c0,2.426-1.727,4.448-4.019,4.904c-0.317,0.063-0.645,0.096-0.981,0.096c-0.321,0-0.635-0.031-0.94-0.088 c-2.312-0.44-4.06-2.471-4.06-4.912C592.801,617.236,595.04,614.997,597.801,614.997L597.801,614.997z M637.04,622.802 c0.351,0,0.694,0.036,1.024,0.105c1.822,0.379,3.28,1.75,3.785,3.522c0.124,0.436,0.191,0.897,0.191,1.373c0,2.761-2.239,5-5,5 c-2.762,0-5-2.239-5-5S634.278,622.802,637.04,622.802L637.04,622.802z M715.517,638.412c0.347,0,0.687,0.035,1.014,0.103 c0.396,0.082,0.774,0.21,1.13,0.379c1.689,0.803,2.856,2.524,2.856,4.518c0,2.761-2.239,5-5,5c-2.761,0-5-2.239-5-5 C710.517,640.651,712.756,638.412,715.517,638.412L715.517,638.412z M1183.357,420.587c2.761,0,5,2.238,5,5 c0,1.043-0.319,2.012-0.866,2.813l-0.066,0.094c-0.033,0.046-0.067,0.091-0.101,0.136c-0.206,0.269-0.439,0.516-0.696,0.738 c-0.877,0.759-2.021,1.218-3.271,1.218c-1.604,0-3.031-0.755-3.946-1.929c-0.661-0.848-1.054-1.913-1.054-3.071 c0-2.03,1.209-3.777,2.946-4.56C1181.93,420.744,1182.625,420.587,1183.357,420.587L1183.357,420.587z M1245.243,646.218 c1.286,0,2.458,0.486,3.344,1.283c1.017,0.915,1.656,2.242,1.656,3.717c0,2.179-1.394,4.032-3.339,4.717 c-0.239,0.084-0.486,0.151-0.74,0.198c-0.213,0.04-0.43,0.066-0.652,0.077c-0.089,0.005-0.179,0.007-0.269,0.007 c-2.761,0-5-2.238-5-5C1240.243,648.457,1242.481,646.218,1245.243,646.218L1245.243,646.218z M1166.765,661.828 c1.098,0,2.114,0.355,2.939,0.955c1.249,0.909,2.061,2.382,2.061,4.045c0,2.455-1.769,4.497-4.102,4.919 c-0.291,0.053-0.591,0.081-0.898,0.081c-0.766,0-1.491-0.172-2.139-0.48c-0.462-0.219-0.885-0.507-1.257-0.851 c-0.986-0.913-1.604-2.219-1.604-3.669C1161.765,664.067,1164.003,661.828,1166.765,661.828L1166.765,661.828z M1141.364,600.543 c2.761,0,5,2.239,5,5c0,2.761-2.239,5-5,5c-2.762,0-5-2.239-5-5c0-0.368,0.04-0.726,0.115-1.072c0.274-1.255,1.02-2.334,2.042-3.042 C1139.328,600.871,1140.308,600.543,1141.364,600.543L1141.364,600.543z M1064.392,371.279c2.761,0,5,2.239,5,5s-2.239,5-5,5 c-2.256,0-4.162-1.494-4.785-3.546c-0.139-0.46-0.215-0.948-0.215-1.454c0-0.319,0.03-0.63,0.087-0.933 C1059.916,373.031,1061.95,371.279,1064.392,371.279L1064.392,371.279z M1048.782,449.757c2.761,0,5,2.239,5,5s-2.239,5-5,5 c-2.762,0-5-2.238-5-5c0-0.315,0.029-0.622,0.085-0.921C1044.298,451.515,1046.335,449.757,1048.782,449.757L1048.782,449.757z M947.315,430.138c2.761,0,5,2.239,5,5c0,2.367-1.645,4.35-3.855,4.868c-0.056,0.013-0.113,0.026-0.17,0.037 c-0.316,0.063-0.642,0.095-0.976,0.095c-2.762,0-5-2.239-5-5c0-2.428,1.73-4.451,4.025-4.905l0.102-0.019 C946.726,430.164,947.017,430.138,947.315,430.138L947.315,430.138z M904.304,463.97c2.762,0,5,2.239,5,5c0,2.762-2.238,5-5,5 c-0.471,0-0.927-0.065-1.359-0.187c-1.461-0.412-2.65-1.471-3.239-2.848c-0.258-0.603-0.401-1.268-0.401-1.965 C899.304,466.209,901.542,463.97,904.304,463.97L904.304,463.97z M888.992,427.005c1.391,0,2.65,0.568,3.556,1.486 c0.892,0.903,1.444,2.144,1.444,3.514c0,2.762-2.239,5-5,5c-1.73,0-3.255-0.878-4.152-2.213c-0.175-0.26-0.326-0.538-0.45-0.83 c-0.256-0.601-0.398-1.262-0.398-1.956c0-0.322,0.031-0.637,0.089-0.942C884.521,428.752,886.553,427.005,888.992,427.005 L888.992,427.005z M1116.682,520.374c2.761,0,5,2.238,5,5c0,1.056-0.327,2.035-0.886,2.842c-0.902,1.304-2.408,2.158-4.114,2.158 c-2.761,0-5-2.239-5-5c0-1.005,0.297-1.94,0.807-2.724C1113.38,521.28,1114.925,520.374,1116.682,520.374L1116.682,520.374z M794.417,1002.676c2.762,0,5,2.238,5,5c0,2.761-2.238,5-5,5c-2.762,0-5-2.239-5-5c0-1.043,0.319-2.012,0.866-2.813 c0.309-0.454,0.691-0.854,1.129-1.184C792.249,1003.049,793.289,1002.676,794.417,1002.676L794.417,1002.676z M816.642,969.414 c2.761,0,5,2.239,5,5s-2.239,5-5,5c-2.762,0-5-2.239-5-5c0-1.045,0.32-2.014,0.868-2.816c0.441-0.646,1.029-1.183,1.717-1.563 C814.943,969.639,815.766,969.414,816.642,969.414L816.642,969.414z M866.025,1018.442c0.678,0,1.324,0.135,1.914,0.379 c0.05,0.021,0.101,0.043,0.15,0.065c1.732,0.786,2.936,2.53,2.936,4.556c0,2.761-2.239,5-5,5c-0.643,0-1.258-0.121-1.823-0.343 l-0.091-0.037c-1.812-0.751-3.086-2.537-3.086-4.62C861.025,1020.68,863.263,1018.442,866.025,1018.442L866.025,1018.442z M742.217,522.755c2.761,0,5,2.239,5,5c0,1.007-0.298,1.944-0.81,2.728l-0.033,0.05c-0.897,1.34-2.424,2.222-4.158,2.222 c-2.762,0-5-2.238-5-5c0-1.028,0.31-1.983,0.843-2.778l0.056-0.082C739.019,523.602,740.519,522.755,742.217,522.755 L742.217,522.755z M780.797,475.797c2.762,0,5,2.238,5,5c0,0.279-0.023,0.552-0.067,0.818c-0.166,1.01-0.635,1.919-1.31,2.628 l-0.087,0.089c-0.905,0.905-2.155,1.464-3.536,1.464c-2.296,0-4.231-1.548-4.818-3.658c-0.119-0.427-0.183-0.877-0.183-1.342 c0-1.381,0.56-2.631,1.464-3.536l0.054-0.052C778.215,476.335,779.443,475.797,780.797,475.797L780.797,475.797z M670,660 c0.804,0,1.602,0.027,2.394,0.073c20.976,1.239,37.606,18.639,37.606,39.926c0,21.285-16.626,38.684-37.599,39.926 C671.606,739.973,670.806,740,670,740c-22.091,0-40-17.909-40-40S647.909,660,670,660L670,660z M823.223,837 c20.495,0,37.386,15.415,39.721,35.282c0.182,1.547,0.278,3.121,0.278,4.717c0,9.829-3.547,18.83-9.43,25.794 c-0.986,1.167-2.037,2.278-3.149,3.325c-1.813,1.708-3.783,3.249-5.89,4.597c-6.216,3.978-13.604,6.284-21.531,6.284 c-2.262,0-4.479-0.191-6.639-0.552c-4.281-0.715-8.331-2.11-12.036-4.07c-2.623-1.387-5.073-3.057-7.309-4.969 c-0.829-0.709-1.63-1.451-2.398-2.225c-3.448-3.472-6.262-7.575-8.257-12.118c-2.16-4.917-3.361-10.351-3.361-16.066 c0-9.689,3.446-18.574,9.178-25.496c1.511-1.825,3.183-3.512,4.991-5.043c6.932-5.869,15.886-9.421,25.671-9.459L823.223,837 L823.223,837z M1194.143,580c4.205,0,8.258,0.651,12.064,1.854c7.628,2.411,14.267,7.046,19.157,13.145 c5.491,6.849,8.778,15.54,8.778,25.001c0,5.842-1.253,11.391-3.504,16.393c-4.692,10.43-13.724,18.484-24.795,21.866 c-3.701,1.131-7.63,1.741-11.701,1.741c-6.657,0-12.933-1.629-18.454-4.505c-12.802-6.67-21.545-20.06-21.545-35.495 c0-15.347,8.645-28.673,21.329-35.38C1181.046,581.672,1187.399,580,1194.143,580L1194.143,580z M879.791,540 c4.823,0,9.446,0.854,13.727,2.418c3.311,1.21,6.417,2.846,9.253,4.84c3.131,2.202,5.932,4.841,8.314,7.83 c5.448,6.834,8.706,15.492,8.706,24.912c0,4.656-0.798,9.125-2.261,13.28c-1.425,4.049-3.482,7.798-6.054,11.132 c-7.314,9.48-18.786,15.588-31.685,15.588c-0.729,0-1.453-0.021-2.173-0.06c-8.552-0.458-16.391-3.603-22.687-8.604 c-9.224-7.327-15.14-18.64-15.14-31.336c0-5.095,0.955-9.967,2.692-14.448C848.277,550.602,862.796,540,879.791,540L879.791,540z M1111.007,928.001c14.518,0,27.229,7.735,34.238,19.309c0.557,0.919,1.075,1.863,1.558,2.828 c2.688,5.377,4.203,11.442,4.203,17.862c0,12.574-5.804,23.792-14.877,31.124c-6.867,5.55-15.606,8.875-25.122,8.875 c-17.65,0-32.629-11.432-37.939-27.295c-0.088-0.263-0.174-0.527-0.257-0.792c-1.172-3.763-1.804-7.763-1.804-11.912 c0-3.277,0.397-6.461,1.14-9.51C1076.416,940.991,1092.194,928.001,1111.007,928.001L1111.007,928.001z M547.18,847.565 c22.091,0,40,17.909,40,40c0,16.076-9.485,29.934-23.162,36.291c-5.118,2.379-10.822,3.709-16.838,3.709c-22.091,0-40-17.909-40-40 c0-10.651,4.164-20.33,10.953-27.498c4.092-4.321,9.139-7.728,14.802-9.888c0.161-0.062,0.322-0.124,0.484-0.184 C537.711,848.422,542.345,847.565,547.18,847.565L547.18,847.565z M1452.818,472.436c18.812,0,34.588,12.988,38.858,30.485 c0.745,3.05,1.142,6.236,1.142,9.515c0,12.482-5.718,23.627-14.676,30.962c-0.137,0.112-0.275,0.223-0.414,0.333 c-3.326,2.651-7.083,4.784-11.15,6.274c-0.697,0.255-1.405,0.49-2.12,0.707c-3.684,1.119-7.592,1.723-11.641,1.723 c-22.091,0-40-17.909-40-40c0-1.124,0.048-2.236,0.14-3.336c0.175-2.11,0.513-4.174,1.002-6.179 c2.904-11.902,11.134-21.715,22.02-26.776C1441.099,473.766,1446.803,472.436,1452.818,472.436L1452.818,472.436z M584.145,487.747 c6.075,0,11.833,1.356,16.989,3.78c2.092,0.983,4.085,2.141,5.96,3.457c3.174,2.227,6.009,4.903,8.414,7.936 c5.407,6.821,8.637,15.446,8.637,24.827c0,22.091-17.909,40-40,40c-4.792,0-9.388-0.844-13.646-2.39 c-2.754-1-5.368-2.293-7.802-3.843c-11.152-7.099-18.551-19.568-18.551-33.767c0-9.38,3.23-18.006,8.638-24.827 C560.11,493.677,571.435,487.747,584.145,487.747L584.145,487.747z M1415.854,832.253c4.792,0,9.387,0.844,13.646,2.39 c15.372,5.579,26.354,20.312,26.354,37.61c0,22.091-17.909,40-40,40c-6.075,0-11.833-1.356-16.989-3.78 c-6.62-3.111-12.249-7.982-16.282-14.012c-4.249-6.353-6.729-13.991-6.729-22.208c0-5.431,1.084-10.608,3.045-15.33 C1384.914,842.44,1399.194,832.253,1415.854,832.253L1415.854,832.253z M1111.007,392.006c19.985,0,36.546,14.657,39.522,33.808 c0.314,2.018,0.478,4.086,0.478,6.192c0,1.894-0.135,3.755-0.389,5.578c-0.609,4.361-1.92,8.496-3.816,12.288 c-6.562,13.122-20.125,22.134-35.795,22.134c-3.462,0-6.82-0.44-10.024-1.267c-17.24-4.449-29.976-20.104-29.976-38.733 c0-4.445,0.726-8.72,2.064-12.714c0.12-0.359,0.245-0.715,0.374-1.069C1079.062,402.923,1093.76,392.006,1111.007,392.006 L1111.007,392.006z M1138.906,487.111c2.761,0,5,2.238,5,5c0,1.048-0.323,2.021-0.874,2.824c-0.13,0.19-0.272,0.37-0.427,0.539 c-0.915,1.006-2.233,1.637-3.7,1.637c-2.761,0-5-2.238-5-5S1136.145,487.111,1138.906,487.111L1138.906,487.111z M883.318,520.373 c1.754,0,3.296,0.903,4.189,2.269c0.513,0.785,0.811,1.723,0.811,2.731c0,2.162-1.372,4.004-3.294,4.701 c-0.532,0.193-1.107,0.299-1.706,0.299c-2.762,0-5-2.239-5-5C878.318,522.612,880.556,520.373,883.318,520.373L883.318,520.373z M825.373,578.318c2.761,0,5,2.238,5,5c0,2.759-2.235,4.997-4.997,5c-1.01,0-1.948-0.298-2.733-0.811 c-1.366-0.892-2.269-2.435-2.269-4.189C820.373,580.556,822.611,578.318,825.373,578.318L825.373,578.318z M1264.862,747.685 c2.761,0,5,2.238,5,5c0,2.761-2.239,5-5,5s-5-2.239-5-5C1259.862,749.923,1262.101,747.685,1264.862,747.685L1264.862,747.685z M1249.512,798.351c2.762,0,5,2.238,5,5c0,2.761-2.239,5-5,5c-2.761,0-5-2.239-5-5 C1244.512,800.59,1246.751,798.351,1249.512,798.351L1249.512,798.351z M1207.889,556.093c2.761,0,5,2.239,5,5c0,2.762-2.239,5-5,5 c-2.762,0-5-2.238-5-5c0-1.384,0.563-2.637,1.472-3.543c0.216-0.216,0.452-0.411,0.704-0.584 C1205.868,556.415,1206.84,556.093,1207.889,556.093L1207.889,556.093z M1887.091,0c42.702,54.041,80.522,112.101,112.909,173.477 M2000,18.644L1987.075,0 M2000,1226.522c-32.384,61.378-70.21,119.434-112.909,173.477 M1987.075,1400l12.925-18.644 M112.909,1400 C70.207,1345.959,32.387,1287.899,0,1226.523 M0,173.477C32.387,112.101,70.207,54.041,112.909,0"/>
</svg>
