<svg xmlns="http://www.w3.org/2000/svg" viewBox="0 0 2000 1400"><path d="M1047.885 685.571a49.991 49.991 0 0 1 2.114 14.429c0 27.614-22.386 50-50 50s-50-22.386-50-50 22.386-50 50-50c5.017 0 9.861.739 14.429 2.114m-136.39 2.78c-5.199 14.051-8.039 29.247-8.039 45.106 0 26.728 8.066 51.573 21.898 72.232l12.474-8.335m8.315-5.556l12.474-8.335c-9.575-14.302-15.16-31.503-15.16-50.007 0-35.727 20.817-66.593 50.985-81.127m9.238-3.823a89.851 89.851 0 0 1 29.777-5.05c49.706 0 90 40.295 90 90a89.851 89.851 0 0 1-5.05 29.777m-3.824 9.239C1066.593 769.182 1035.727 790 999.999 790c-18.504 0-35.704-5.585-50.006-15.16l-8.335 12.474m-5.555 8.315l-8.335 12.474C948.427 821.933 973.271 830 999.999 830c71.797 0 130-58.203 130-130s-58.203-130-130-130c-15.859 0-31.054 2.84-45.105 8.039M302.289 989.002l-13.862 5.742C250.779 903.956 230 804.405 230 700c0-210.831 84.743-401.863 222.013-540.916M311.53 985.175l13.862-5.742C289.7 893.361 270 798.981 270 700c0-47.016 4.445-92.993 12.937-137.535M422.424 460.76l13.862 5.742C406.461 538.424 390 617.29 390 700c0 336.893 273.106 610 610 610s610-273.106 610-610c0-40.732-3.992-80.531-11.607-119.028l14.715-2.927m9.809-1.951l14.715-2.927C1645.746 614.188 1650 656.598 1650 700c0 41.674-3.922 82.431-11.417 121.924M495.564 356.933C605.358 195.808 790.317 90.001 1000 90.001c254.184 0 472.056 155.468 563.713 376.501l13.862-5.742m9.24-3.828l13.862-5.742C1503.009 215.664 1270.851 50.001 1000 50.001c-177.694 0-338.727 71.311-456.062 186.866m-87.213 820.124C389.261 954.53 350 831.851 350 700c0-88.134 17.541-172.171 49.322-248.81l13.862 5.742m873.702 51.376l-12.474 8.335c34.246 51.151 54.566 112.412 55.546 178.358m-34.756-192.249l12.474-8.335C1347.042 553.215 1370 623.927 1370 700c0 204.345-165.654 370-370 370-50.168 0-98.005-9.985-141.63-28.075l5.742-13.862M961.95 891.29l-2.927 14.715c-25.862-5.115-50.016-14.979-71.517-28.645m76.395 4.12l2.927-14.715c-65.641-12.983-117.691-63.757-132.546-128.704m248.61 404.302a452.14 452.14 0 0 1-82.893 7.637c-124.264 0-236.765-50.368-318.198-131.802l10.606-10.607m7.072-7.071l10.607-10.607c55.119 55.119 125.861 94.614 205.012 111.281m331.065-445.061a251.521 251.521 0 0 1 3.836 43.867c0 16.693-1.636 33.005-4.757 48.782l14.714 2.927m9.811 1.951l14.715 2.927A291.42 291.42 0 0 0 1290 700c0-106.591-57.518-199.733-143.198-250.129m-362.47 34.461l10.606 10.606c25.55-25.55 55.846-46.354 89.451-60.978m-107.128 43.301l-10.606-10.606C826.373 406.937 908.873 370 1000 370c20.307 0 40.186 1.834 59.48 5.346m87.324 574.792c54.074-31.805 96.933-80.633 121.191-139.131l-13.862-5.742m-9.242-3.828l-13.861-5.742c-18.383 44.332-49.156 82.226-87.997 109.369m-83.554 119.59A331.906 331.906 0 0 1 1000 1030c-44.745 0-87.41-8.906-126.319-25.04l-5.742 13.862M672.393 660.074c6.346-52.624 25.076-101.435 53.193-143.431l12.473 8.335m8.316 5.555l12.474 8.334c-19.937 29.779-34.504 63.457-42.317 99.648m231.759-198.472l2.927 14.715A251.19 251.19 0 0 1 1000 450c14.966 0 29.625 1.316 43.867 3.836m-97.527-23.603l-2.927-14.715C961.714 411.898 980.635 410 1000 410c25.241 0 49.729 3.228 73.072 9.291M1987.075 0c4.378 6.162 8.66 12.397 12.925 18.644m0 1362.711c-4.265 6.247-8.547 12.482-12.925 18.644M0 92.328A1172.223 1172.223 0 0 1 62.416 0m1875.167 0A1172.695 1172.695 0 0 1 2000 92.328m0 1215.344a1172.51 1172.51 0 0 1-62.417 92.328M1835.51 0a1094.34 1094.34 0 0 1 68.072 90.23M27.772 1097.298A1042.278 1042.278 0 0 1 0 1021.072m0-641.915C45.514 237.244 120.357 108.47 217.451 0m1565.098 0c97.094 108.47 171.937 237.244 217.451 379.158m0 641.684c-45.5 141.926-120.367 270.683-217.451 379.158m-1565.145 0a1054.541 1054.541 0 0 1-87.724-112.455m1862.059-779.716a1007.271 1007.271 0 0 1 8.261 49.504m0 284.774c-30.305 215.175-128.385 408.565-271.979 557.893m-1456.042 0C128.369 1250.678 30.313 1057.276 0 842.109m0-284.778a1007.43 1007.43 0 0 1 8.261-49.503m60.336-199.042C117.134 193.368 186.521 88.887 272.003 0M1728.01 0c40.041 41.634 76.564 86.676 109.048 134.68m61.24 198.644c46.223 113.122 71.701 236.924 71.701 366.676 0 63.041-6.015 124.677-17.5 184.367m-148.702 358.727c-38.523 56.904-82.938 109.491-132.354 156.906m-1342.891 0a980.094 980.094 0 0 1-10.89-10.592m-215.961-322.732C55.478 953.554 30 829.752 30 700c0-129.752 25.478-253.554 71.701-366.676M317.663 10.592A980.094 980.094 0 0 1 328.553 0M88.72 513.635C130.04 310.517 237.585 131.49 387.792 0M1612.24 0c194.743 170.467 317.759 420.854 317.759 700s-123.016 529.533-317.759 700m-1224.448 0C237.585 1268.509 130.039 1089.483 88.72 886.363m1801.216-181.364c-1.555 282.042-134.3 533.005-340.303 695.001M257.152 1190.342C164.155 1049.74 110.001 881.195 110.001 700c0-284.067 133.087-537.049 340.308-700m1099.354 0c117.898 92.715 211.799 214.574 270.846 354.72M517.766 1400c-132.607-91.538-237.949-219.758-301.31-370.031m-66.393-334.968C151.728 406.701 296.938 152.454 517.809 0m964.405 0c222.16 153.333 367.785 409.641 367.785 700 0 172.971-51.672 333.87-140.413 468.116m-33.263-914.008c84.486 127.889 133.676 281.144 133.676 445.892 0 298.678-161.684 559.56-402.276 700m-815.447 0C351.684 1259.56 190 998.678 190 700c0-108.058 21.16-211.174 59.561-305.43M430.8 123.729C479.054 76.063 533.267 34.417 592.217 0m815.572 0a810.602 810.602 0 0 1 38.102 23.676M576.333 56.939A768.67 768.67 0 0 1 678.793 0m642.303 0c263.478 121.072 446.874 386.492 448.84 695.001m-60.322 304.345c-74.837 177.185-214.085 320.523-388.405 400.654m-753.189-62.498a774.249 774.249 0 0 1-205.496-205.484m1354.538-569.552c8.492 44.542 12.937 90.519 12.937 137.534 0 199.786-80.266 380.817-210.297 512.631M792.237 1400c-116.408-34.502-220.679-97.246-304.868-180.298M327.35 415.965C411.708 216.436 582.246 62.238 792.303 0m415.407 0c163.408 48.42 302.903 152.485 396.512 290.257m-112.805-74.604C1614.211 340.228 1689.999 511.261 1689.999 700c0 381.076-308.923 690-690 690-285.747 0-530.9-173.709-635.685-421.277M310.04 695c1.672-235.354 121.165-442.686 302.442-565.961M870.271 22.178c42.017-7.993 85.384-12.177 129.728-12.177 91.787 0 179.387 17.924 259.494 50.46m278.218 1004.84a653.597 653.597 0 0 1-172.41 172.41m-243.378 100.871c-39.492 7.495-80.25 11.417-121.923 11.417-86.363 0-168.792-16.845-244.182-47.426m565.024-1073.747C1471.249 331.443 1569.999 504.185 1569.999 700c0 155.603-62.356 296.637-163.435 399.494m-193.006 129.147C1147.602 1255.312 1075.516 1270 1000 1270c-36.332 0-71.87-3.4-106.313-9.897m-214.53-88.929C528.75 1068.557 430 895.816 430 700c0-314.802 255.197-570 570-570 36.332 0 71.87 3.4 106.314 9.898m423.622 565.101C1527.248 995.403 1291.039 1230 1000 1230c-181.948 0-342.472-91.693-437.912-231.382M470.047 695c2.007-216.931 134.328-402.703 322.475-482.826m212.477-42.134c179.885 1.664 338.348 92.936 432.912 231.343m-33.253 575.015a492.738 492.738 0 0 1-128.26 128.26M995 1189.955c-187.85-1.88-350.387-109.449-430.982-266.1m-30.598-73.86C518.231 802.719 510 752.324 510 700c0-30.99 2.877-61.309 8.379-90.703m138.695-259.294C745.452 263.401 866.489 210.001 1000 210.001c189.964 0 354.678 108.102 435.981 266.145m30.598 73.859c15.187 47.278 23.42 97.671 23.42 149.995 0 30.99-2.877 61.308-8.379 90.702m-39.241-173.598c5.004 26.868 7.62 54.577 7.62 82.896 0 46.904-7.186 92.128-20.5 134.643m-30.634 73.83c-61.397 117.231-172.947 204.047-306.16 231.952M557.62 782.896C552.616 756.028 550 728.319 550 700c0-46.905 7.178-92.133 20.5-134.643m30.635-73.83C676.322 347.969 826.709 250 1000 250c154.214 0 290.302 77.58 371.387 195.833m-85.033 547.592c-54.591 53.283-123.994 91.459-201.453 107.77M656.308 923.634C614.373 859.318 590 782.506 590 700c0-25.649 2.356-50.748 6.862-75.091m65.007-156.855c58.578-85.232 148.549-147.209 253.229-169.251m169.799.023c184.121 38.772 322.712 201.073 325.046 396.175m-771.879-72.094C673.534 455.569 822.094 330 1000 330c100.375 0 191.412 39.97 258.068 104.861m-467.785 570.002c-57.059-39.326-102.531-94.255-130.257-158.627M1187.491 428.4a331.59 331.59 0 0 1 42.292 34.747M1329.96 705c-1.642 110.552-57.645 207.933-142.469 266.6m-374.981-.003c-75.768-52.404-128.534-135.695-140.109-231.672m495.261-68.177a171.146 171.146 0 0 1 2.337 28.252c0 69.065-41.188 128.504-100.338 155.11M832.346 728.25a170.895 170.895 0 0 1-2.347-28.25c0-32.491 9.119-62.851 24.932-88.665m56.154-56.247C936.955 539.181 967.403 530 999.999 530c57.143 0 107.701 28.195 138.522 71.43M756.102 856.954c-18.531-28.737-32.121-60.961-39.571-95.47m356.538 219.221C1049.725 986.767 1025.24 990 1000 990c-57.833 0-111.713-16.93-156.953-46.104m200.819 2.268A251.51 251.51 0 0 1 1000 950c-54.594 0-105.091-17.511-146.207-47.207m-56.401-56.332C767.582 805.303 750 754.707 750 700c0-102.401 61.569-190.42 149.705-229.065m243.328 24a251.414 251.414 0 0 1 62.032 62.03m-317.559-34.322C920.025 501.974 958.614 490 1000 490c41.387 0 79.973 11.976 112.489 32.65m8.307 5.565a211.2 211.2 0 0 1 54.677 56.404m30.371 73.64a210.952 210.952 0 0 1 4.155 41.742c0 114.308-91.33 207.28-205 209.937m-182.357-97.444C801.973 779.974 790 741.386 790 700c0-41.386 11.974-79.975 32.643-112.493M1083.17 739.45a5 5 0 1 0 0-10 5 5 0 0 0 0 10zm-36.965-53.589zm-27.066-27.067c1.39 0 2.648-.568 3.554-1.483a5 5 0 1 0-3.554 1.483zm-53.59-36.965a5 5 0 1 0 0-10 5 5 0 0 0 0 10zm-26.668 174.642a5 5 0 1 0-.001-10.001 5 5 0 0 0 .001 10.001zm-30.353-30.352a5 5 0 0 0 4.158-7.778 5 5 0 1 0-4.158 7.778zm-28.664-110.881a5 5 0 1 0 0-10 5 5 0 0 0 0 10zm70.374-70.374a5 5 0 1 0 0-10 5 5 0 0 0 0 10zm1040.544-86.943a5 5 0 1 1 0 10 5.001 5.001 0 0 1 0-10zm-1331.72-30.729c1.041 0 2.007.318 2.807.862a5.041 5.041 0 0 1 1.419 1.465 5 5 0 1 1-4.226-2.327zm-5.544-118.674a4.98 4.98 0 0 1 3.556 1.486 4.985 4.985 0 0 1 1.391 4.245l-.012.075a5 5 0 1 1-4.935-5.806zm796.54-327.078a5 5 0 1 1-.001 10.001 5 5 0 0 1 .001-10.001zm-584.696-3.31a5 5 0 1 1 0 10.001 5 5 0 0 1 0-10.001zm-68.238 187.086a5 5 0 1 1-.001 10.001 5 5 0 0 1 .001-10.001zm-180.508-83.989a5 5 0 1 1 0 10 5 5 0 0 1 0-10zm-44.451-66.525a4.997 4.997 0 0 1 5.001 5 5 5 0 1 1-5.001-5zM314.107 9.107c1.392 0 2.65.568 3.556 1.486a4.983 4.983 0 0 1 1.443 3.515 5 5 0 1 1-4.999-5.001zm113.136 113.137c1.392 0 2.65.568 3.556 1.486a4.988 4.988 0 0 1 1.444 3.514 5 5 0 0 1-5 5 5 5 0 1 1 0-10zm28.285 28.284a5 5 0 0 1 5 5 5 5 0 0 1-8.515 3.557 5.001 5.001 0 0 1 3.515-8.557zm84.853 84.853c1.392 0 2.65.568 3.556 1.486a4.985 4.985 0 0 1 1.359 4.435 5 5 0 1 1-4.915-5.921zM492.75 356.067l.092.001a4.995 4.995 0 0 1 4.887 5.461 5 5 0 1 1-4.979-5.462zm-167.358 59.5c.695 0 1.357.142 1.958.398a5.004 5.004 0 0 1 3.042 4.602 5 5 0 0 1-5 5c-2.762 0-5-2.238-5-5s2.238-5 5-5zm-73.93-30.623a5 5 0 1 1 0 10.001 5 5 0 0 1 0-10.001zm-147.859-61.245a5 5 0 1 1 0 10 5 5 0 0 1 0-10zm-36.965-15.312a4.994 4.994 0 0 1 5 5 5 5 0 1 1-10 0 5 5 0 0 1 5-5zM9.218 497.92c1.566 0 2.964.72 3.881 1.847.7.86 1.119 1.957 1.119 3.153s-.42 2.294-1.121 3.154a4.991 4.991 0 0 1-4.836 1.754 5 5 0 0 1 .957-9.908zm78.478 15.61a5.003 5.003 0 0 1 5 5 5 5 0 1 1-5-5zm196.194 39.026a5 5 0 1 1 0 10 5 5 0 0 1 0-10zM310 695l.04.001A4.996 4.996 0 0 1 315 700c0 2.762-2.238 5-5 5s-5-2.238-5-5a5 5 0 0 1 5-5zm-160 0l.063.001A5 5 0 1 1 150 695zM87.696 876.469a5.001 5.001 0 0 1 0 10 5 5 0 1 1 0-10zm274.661 82.652a4.995 4.995 0 0 1 5 5 5.002 5.002 0 0 1-5 5 5 5 0 1 1 0-10zm-147.86 61.246a5 5 0 1 1-.001 10.001 5 5 0 0 1 .001-10.001zm-110.894 45.934zm-73.93 30.623a5 5 0 1 1-.001 10.001 5 5 0 0 1 .001-10.001zm284.433 283.969a5 5 0 1 1 0 10 5 5 0 0 1 0-10zm-187.24-102.482a5 5 0 1 1 0 10 5 5 0 0 1 0-10zm133.049-88.901a5 5 0 1 1 0 10 5 5 0 1 1 0-10zm99.585-66.474a5 5 0 1 1 0 10 5 5 0 0 1 0-10zm124.312 88.152a5 5 0 1 1 0 10 5 5 0 0 1 0-10zm-24.324-155.029a5 5 0 1 1 0 10 5 5 0 0 1 0-10zm99.787-66.675a5.003 5.003 0 0 1 5 5 4.995 4.995 0 0 1-5 5 5 5 0 1 1 0-10zm124.016 179.503a5 5 0 0 1 5 5 5 5 0 1 1-5-5zm-111.125 166.311a5 5 0 1 1 0 10 5 5 0 0 1 0-10zm179.024-39.62a5 5 0 0 1 4.627 6.895 5.001 5.001 0 1 1-7.353-6.088 4.982 4.982 0 0 1 2.726-.807zm137.586-41.524a5 5 0 1 1 0 10 5 5 0 0 1 0-10zm472.383-18.643a4.983 4.983 0 0 1 4.143 2.2 5 5 0 1 1-4.143-2.2zm-234.326 97.121a5 5 0 1 1 0 10 5 5 0 0 1 0-10zm91.354-110.884a5 5 0 1 1 0 10 5 5 0 0 1 0-10zm298-10.56a5 5 0 0 1 3.514 1.444 5 5 0 1 1-3.514-1.444zm-113.137-113.137c1.37 0 2.611.551 3.514 1.443a5 5 0 1 1-3.514-1.443zm403.56 135.908a5 5 0 1 1 0 10 5 5 0 0 1 0-10zm-99.787-66.675c1.022 0 1.971.307 2.763.833a5 5 0 1 1-2.763-.833zm-166.312-111.126a5 5 0 1 1-.001 10.001 5 5 0 0 1 .001-10.001zm171.061-66.414a5 5 0 1 1 0 10 5 5 0 0 1 0-10zm239.971-105.469zm-313.912-62.442a5 5 0 1 1-.098.001l.098-.001zM1889.999 695a5 5 0 1 1 0 10l-.063-.001a5.001 5.001 0 0 1-4.937-4.999 5 5 0 0 1 5-5zm-120 0a5 5 0 1 1-.063.001l.063-.001zm-53.89-142.443a5 5 0 1 1-.001 10.001 5 5 0 0 1 .001-10.001zm106.358-198.235a5 5 0 1 1-.001 10.001 5 5 0 0 1 .001-10.001zm73.93-30.623a5 5 0 1 1 0 10 5 5 0 0 1 0-10zm-289.362-34.308a5 5 0 1 1 0 10 5 5 0 1 1 0-10zm66.524-44.45a5 5 0 1 1 0 10 5 5 0 0 1 0-10zm232.837-155.577a5 5 0 1 1 0 10 5 5 0 0 1 0-10zm-66.525 44.45a5 5 0 1 1 0 10 5 5 0 0 1 0-10zm-351.968 73.283a5 5 0 1 1 0 10 4.997 4.997 0 0 1-5-5 5 5 0 0 1 5-5zm-223.782-149.74a4.997 4.997 0 0 1 5 5 5 5 0 1 1-5-5zM1000 165.001a5 5 0 0 1 5 5l-.001.039a5 5 0 1 1-4.999-5.039zm-80.002 127.801a5 5 0 1 1-.001 10.001 5 5 0 0 1 .001-10.001zm160.005 0a5 5 0 1 1 0 10 5 5 0 0 1 0-10zm31.22-156.956a5 5 0 1 1 0 10 5 5 0 0 1 0-10zm205.485 85.167a5 5 0 1 1 0 10 5 5 0 0 1 0-10zm301.304 351.057a5.003 5.003 0 0 1 5 5 5 5 0 0 1-9.898 1.01l-.007-.034a5 5 0 0 1 4.905-5.976zm-35.817-118.224a5 5 0 0 1 4.62 3.086l.015.038a5 5 0 0 1-9.23 3.853l-.027-.063a5.003 5.003 0 0 1 4.622-6.914zm-291.151 46.684c1.733 0 3.26.882 4.158 2.222l.033.05.076.119a5 5 0 0 1-8.368 5.469l-.056-.082a4.975 4.975 0 0 1-.842-2.778 4.995 4.995 0 0 1 4.999-5zM306.909 982.088a5.004 5.004 0 0 1 4.621 3.086l.016.038a5 5 0 0 1-9.23 3.853l-.027-.063a5 5 0 0 1 4.62-6.914zm110.895-528.242a5 5 0 0 1 4.636 6.876l-.016.038a5 5 0 0 1-9.24-3.828l.027-.063a5 5 0 0 1 4.593-3.023zm843.825-20.475a5.003 5.003 0 0 1 5 5 5 5 0 1 1-5-5zm-28.284 28.284a5 5 0 1 1 0 10 5 5 0 1 1 0-10zm207.379-61.138a5 5 0 1 1 0 10 5 5 0 0 1 0-10zm-66.525 44.45a5.001 5.001 0 1 1 0 10.002 5.001 5.001 0 0 1 0-10.002zm67.238 162.226a5 5 0 1 1-.001 10.001 5 5 0 0 1 .001-10.001zM1529.999 695a5 5 0 1 1 0 10l-.063-.001a5.003 5.003 0 0 1-4.937-4.999 5 5 0 0 1 5-5zm-49.323 95.613zM1409.999 695a5 5 0 1 1-.056.001l.056-.001zm-80 0a5 5 0 1 1 0 10h-.039a5 5 0 0 1-.002-9.998l.041-.002zm-496.765 33.171a5 5 0 1 1-.001 10.001 5 5 0 0 1 .001-10.001zm254.573 408.267a5 5 0 1 1 0 10 5 5 0 0 1 0-10zm319.655-169.18a5 5 0 1 1-.001 10.001 5 5 0 0 1 .001-10.001zm-117.549 17.656a5 5 0 1 1 0 10 4.983 4.983 0 0 1-3.559-1.489 4.974 4.974 0 0 1-1.441-3.511 5 5 0 0 1 5-5zm-17.655 117.548a4.983 4.983 0 0 1 4.139 2.195 5 5 0 1 1-4.139-2.195zM1000 1185a5 5 0 1 1-5 5l.001-.044c.008-.99.305-1.911.81-2.684A4.99 4.99 0 0 1 1000 1185zm80.002-87.801a5 5 0 1 1 .001 10 5 5 0 0 1-.001-10zm-160.005 0a5 5 0 1 1 0 10 5 5 0 0 1 0-10zm144.395-78.478a5 5 0 1 1 0 10 5 5 0 0 1 0-10zm118.966-49.308a4.998 4.998 0 0 1 5 5 5 5 0 1 1-5-5zm-44.451-66.524a4.985 4.985 0 0 1 4.126 2.175 5 5 0 1 1-4.126-2.175zm-90.125 37.354a5 5 0 1 1 0 10 5 5 0 0 1 0-10zM1000 905c1.202 0 2.305.424 3.168 1.131a4.993 4.993 0 0 1 1.832 3.806V910a5 5 0 1 1-5-5zm65.073-52.899c.881 0 1.708.228 2.427.628a5.015 5.015 0 0 1 2.161 2.382 5 5 0 1 1-4.588-3.01zm-102.148 29.284c.334 0 .66.033.976.095l.102.022a5 5 0 1 1-6.078 4.882 5 5 0 0 1 5-4.999zM695.943 999.056c1.381 0 2.631.56 3.536 1.464l.053.054a4.982 4.982 0 0 1 1.412 3.482 4.995 4.995 0 0 1-5 5 4.984 4.984 0 0 1-3.445-1.377l-.09-.088a4.984 4.984 0 0 1-1.464-3.536 4.997 4.997 0 0 1 4.998-4.999zm187.375-129.429a5 5 0 1 1-.001 10.001 5 5 0 0 1 .001-10.001zm-57.945-57.945a4.999 4.999 0 0 1 5 5 5 5 0 1 1-5-5zm13.494 124.47a5 5 0 1 1 0 10 5 5 0 0 1 0-10zm-80.019-80.019a5 5 0 1 1-.001 10.001 5 5 0 0 1 .001-10.001zm-99.786 66.675a5 5 0 1 1 0 10 5 5 0 0 1 0-10zm-.987-86.178a5 5 0 1 1 0 10 5 5 0 0 1 0-10zm57.442-85.043a5 5 0 0 1 1.925 9.616 5.054 5.054 0 0 1-1.926.384 5 5 0 1 1 .001-10zm-156.955 31.22zM470 695l.048.001a4.974 4.974 0 0 1 2.921.976 5 5 0 0 1-2.968 9.024 5 5 0 0 1-5-5A4.998 4.998 0 0 1 470 695zm49.324-95.613a5 5 0 1 1 0 10 5 5 0 0 1 0-10zm78.477 15.61a5 5 0 1 1 0 10 5.001 5.001 0 0 1 0-10zm39.239 7.805a5.008 5.008 0 0 1 4.809 3.627 5 5 0 1 1-4.809-3.627zm78.477 15.61a4.983 4.983 0 0 1 2.144.482 5 5 0 1 1-2.144-.482zm467.84-217.825a5 5 0 0 1 4.134 7.813l-.066.094-.101.136a4.982 4.982 0 0 1-3.967 1.956 4.99 4.99 0 0 1-3.946-1.929 5 5 0 0 1 3.946-8.07zm61.886 225.631c1.286 0 2.458.486 3.344 1.283a5.002 5.002 0 0 1-3.344 8.716 5 5 0 1 1 0-9.999zm-78.478 15.61c1.098 0 2.114.355 2.939.955a5 5 0 1 1-2.939-.955zm-25.401-61.285a5 5 0 1 1-.001 10.001 5 5 0 0 1 .001-10.001zm-76.972-229.264a5 5 0 1 1-.001 10.001 5 5 0 0 1 .001-10.001zm-15.61 78.478a5 5 0 1 1-.001 10.001 5 5 0 0 1 .001-10.001zm-101.467-19.619a5 5 0 1 1-.976.095l.102-.019c.285-.05.576-.076.874-.076zm-43.011 33.832a5 5 0 1 1 0 10 5 5 0 0 1 0-10zm-15.312-36.965a4.98 4.98 0 0 1 3.556 1.486 5 5 0 1 1-3.556-1.486zm227.69 93.369a5 5 0 1 1 0 10 5 5 0 0 1 0-10zm-322.265 482.302a5 5 0 1 1 0 10 5 5 0 1 1 0-10zm22.225-33.262a5 5 0 1 1-.001 10.001 5 5 0 0 1 .001-10.001zm49.383 49.028a4.995 4.995 0 0 1 5 5 5 5 0 0 1-6.823 4.657l-.091-.037a5 5 0 0 1 1.914-9.62zM742.217 522.755a5 5 0 0 1 4.19 7.728l-.033.05a5 5 0 1 1-8.315-5.556l.056-.082a4.997 4.997 0 0 1 4.102-2.14zm38.58-46.958a5 5 0 0 1 3.623 8.446l-.087.089a5.003 5.003 0 0 1-8.537-3.536c0-1.381.56-2.631 1.464-3.536l.054-.052a4.99 4.99 0 0 1 3.483-1.411zM670 660c.804 0 1.602.027 2.394.073C693.37 661.312 710 678.712 710 699.999c0 21.285-16.626 38.684-37.599 39.926-.795.048-1.595.075-2.401.075-22.091 0-40-17.909-40-40s17.909-40 40-40zm153.223 177c20.495 0 37.386 15.415 39.721 35.282.182 1.547.278 3.121.278 4.717 0 9.829-3.547 18.83-9.43 25.794a40.209 40.209 0 0 1-9.039 7.922 39.81 39.81 0 0 1-21.531 6.284c-2.262 0-4.479-.191-6.639-.552a39.706 39.706 0 0 1-12.036-4.07 40.072 40.072 0 0 1-9.707-7.194 40.073 40.073 0 0 1-8.257-12.118 39.847 39.847 0 0 1-3.361-16.066 39.84 39.84 0 0 1 9.178-25.496 40.233 40.233 0 0 1 4.991-5.043 39.833 39.833 0 0 1 25.671-9.459l.161-.001zm370.92-257c4.205 0 8.258.651 12.064 1.854a40.059 40.059 0 0 1 19.157 13.145 39.829 39.829 0 0 1 8.778 25.001 39.845 39.845 0 0 1-3.504 16.393c-4.692 10.43-13.724 18.484-24.795 21.866a39.977 39.977 0 0 1-11.701 1.741 39.828 39.828 0 0 1-18.454-4.505c-12.802-6.67-21.545-20.06-21.545-35.495 0-15.347 8.645-28.673 21.329-35.38a39.818 39.818 0 0 1 18.671-4.62zm-314.352-40c4.823 0 9.446.854 13.727 2.418a39.901 39.901 0 0 1 9.253 4.84 40.222 40.222 0 0 1 8.314 7.83A39.826 39.826 0 0 1 919.791 580a39.91 39.91 0 0 1-2.261 13.28 39.922 39.922 0 0 1-6.054 11.132C904.162 613.892 892.69 620 879.791 620c-.729 0-1.453-.021-2.173-.06a39.815 39.815 0 0 1-22.687-8.604c-9.224-7.327-15.14-18.64-15.14-31.336 0-5.095.955-9.967 2.692-14.448 5.794-14.95 20.313-25.552 37.308-25.552zm231.216 388.001c14.518 0 27.229 7.735 34.238 19.309a39.832 39.832 0 0 1 5.761 20.69c0 12.574-5.804 23.792-14.877 31.124a39.828 39.828 0 0 1-25.122 8.875c-17.65 0-32.629-11.432-37.939-27.295a39.991 39.991 0 0 1-2.061-12.704c0-3.277.397-6.461 1.14-9.51 4.269-17.499 20.047-30.489 38.86-30.489zM547.18 847.565c22.091 0 40 17.909 40 40 0 16.076-9.485 29.934-23.162 36.291a39.84 39.84 0 0 1-16.838 3.709c-22.091 0-40-17.909-40-40 0-10.651 4.164-20.33 10.953-27.498a40.065 40.065 0 0 1 14.802-9.888c.161-.062.322-.124.484-.184a39.906 39.906 0 0 1 13.761-2.43zm905.638-375.129c18.812 0 34.588 12.988 38.858 30.485a40.053 40.053 0 0 1 1.142 9.515c0 12.482-5.718 23.627-14.676 30.962a39.933 39.933 0 0 1-11.564 6.607 39.992 39.992 0 0 1-13.761 2.43c-22.091 0-40-17.909-40-40 0-1.124.048-2.236.14-3.336.175-2.11.513-4.174 1.002-6.179 2.904-11.902 11.134-21.715 22.02-26.776a39.868 39.868 0 0 1 16.839-3.708zm-868.673 15.311a39.825 39.825 0 0 1 22.949 7.237 40.238 40.238 0 0 1 8.414 7.936 39.827 39.827 0 0 1 8.637 24.827c0 22.091-17.909 40-40 40a39.91 39.91 0 0 1-13.646-2.39 39.837 39.837 0 0 1-7.802-3.843c-11.152-7.099-18.551-19.568-18.551-33.767 0-9.38 3.23-18.006 8.638-24.827 7.326-9.243 18.651-15.173 31.361-15.173zm831.709 344.506c4.792 0 9.387.844 13.646 2.39 15.372 5.579 26.354 20.312 26.354 37.61 0 22.091-17.909 40-40 40a39.825 39.825 0 0 1-16.989-3.78 40.17 40.17 0 0 1-16.282-14.012 39.813 39.813 0 0 1-6.729-22.208 39.876 39.876 0 0 1 3.045-15.33c6.015-14.483 20.295-24.67 36.955-24.67zm-304.847-440.247c19.985 0 36.546 14.657 39.522 33.808a40.254 40.254 0 0 1 .089 11.77 39.738 39.738 0 0 1-3.816 12.288c-6.562 13.122-20.125 22.134-35.795 22.134-3.462 0-6.82-.44-10.024-1.267-17.24-4.449-29.976-20.104-29.976-38.733a39.955 39.955 0 0 1 2.438-13.783c5.617-15.3 20.315-26.217 37.562-26.217zm27.899 95.105a5 5 0 1 1 0 10 5 5 0 0 1 0-10zm-255.588 33.262a4.996 4.996 0 0 1 5 5 5 5 0 1 1-5-5zm-57.945 57.945a5 5 0 1 1 0 10 5 5 0 0 1 0-10zm439.489 169.367a5 5 0 1 1 0 10 5 5 0 0 1 0-10zm-15.35 50.666a5 5 0 1 1 0 10 5 5 0 0 1 0-10zm-41.623-242.258a5 5 0 1 1-.001 10.001 5 5 0 0 1 .001-10.001zM1887.091 0c42.702 54.041 80.522 112.101 112.909 173.477m0-154.833L1987.075 0M2000 1226.522a1131.618 1131.618 0 0 1-112.909 173.477m99.984.001l12.925-18.644M112.909 1400C70.207 1345.959 32.387 1287.899 0 1226.523M0 173.477C32.387 112.101 70.207 54.041 112.909 0" fill-rule="evenodd" clip-rule="evenodd" fill="none" stroke="#383d42" stroke-width="2" stroke-miterlimit="22.926"/></svg>