<svg xmlns="http://www.w3.org/2000/svg" xmlns:xlink="http://www.w3.org/1999/xlink" preserveAspectRatio="xMidYMid" width="40" height="40" viewBox="0 0 40 40">
  <defs>
    <style>
      .analyz-i {
        fill: #f90;
        fill-rule: evenodd;
      }
    </style>
  </defs>
  <path d="M8.000,5.000 C8.000,4.449 8.449,4.000 9.000,4.000 C9.550,4.000 10.000,4.449 10.000,5.000 C10.000,5.550 9.550,6.000 9.000,6.000 C8.449,6.000 8.000,5.550 8.000,5.000 ZM12.000,5.000 C12.000,4.449 12.449,4.000 13.000,4.000 C13.551,4.000 14.000,4.449 14.000,5.000 C14.000,5.550 13.551,6.000 13.000,6.000 C12.449,6.000 12.000,5.550 12.000,5.000 ZM16.000,5.000 C16.000,4.449 16.449,4.000 17.000,4.000 C17.550,4.000 18.000,4.449 18.000,5.000 C18.000,5.550 17.550,6.000 17.000,6.000 C16.449,6.000 16.000,5.550 16.000,5.000 ZM38.000,36.002 L23.208,36.002 C24.147,35.436 25.015,34.764 25.794,34.002 L38.000,34.002 L38.000,1.999 C38.000,1.999 8.661,1.999 5.998,1.999 C5.998,1.999 5.998,7.501 5.998,8.000 L38.000,8.000 L38.000,10.000 C27.332,10.000 16.665,10.000 5.998,10.000 L5.998,14.207 C5.235,14.986 4.563,15.853 3.998,16.792 L3.998,2.000 C3.998,0.904 4.898,-0.000 5.998,-0.000 L38.000,-0.000 C39.100,-0.000 40.000,0.900 40.000,2.000 L40.000,34.002 C40.000,35.102 39.095,36.002 38.000,36.002 ZM4.002,23.998 C4.002,17.371 9.375,11.998 16.002,11.998 C22.629,11.998 28.002,17.371 28.002,23.998 C28.002,30.625 22.629,35.998 16.002,35.998 C14.283,35.998 12.649,35.636 11.171,34.985 L6.870,38.785 C6.153,39.545 5.041,40.000 4.000,40.000 C1.791,40.000 -0.000,38.208 -0.000,36.000 C-0.000,34.958 0.435,33.908 1.171,33.172 C1.189,33.189 4.793,30.018 5.338,29.505 C4.485,27.856 4.002,25.983 4.002,23.998 ZM16.002,33.998 C21.525,33.998 26.002,29.521 26.002,23.998 C26.002,18.475 21.525,13.998 16.002,13.998 C10.479,13.998 6.002,18.475 6.002,23.998 C6.002,29.521 10.479,33.998 16.002,33.998 ZM2.586,34.585 C2.224,34.947 2.000,35.172 2.000,36.000 C2.000,36.828 3.172,38.000 4.000,38.000 C4.828,38.000 5.052,37.776 5.414,37.414 L9.336,33.977 C8.219,33.229 7.234,32.299 6.425,31.228 C3.850,33.651 5.070,32.095 2.586,34.585 Z" class="seopult-icon analyz-i"/>
</svg>
