<svg xmlns="http://www.w3.org/2000/svg" xmlns:xlink="http://www.w3.org/1999/xlink" preserveAspectRatio="xMidYMid" width="40" height="36" viewBox="0 0 40 36">
  <defs>
    <style>
      .attention-i {
        fill: #f90;
        fill-rule: evenodd;
      }
    </style>
  </defs>
  <path d="M0.263,33.020 L18.247,1.019 C18.611,0.372 19.247,-0.000 19.989,-0.000 C20.730,-0.000 21.366,0.372 21.730,1.019 L39.714,33.020 C40.072,33.656 40.066,34.379 39.697,35.010 C39.329,35.640 38.702,36.000 37.973,36.000 L2.004,36.000 C1.275,36.000 0.648,35.640 0.280,35.010 C-0.089,34.379 -0.095,33.656 0.263,33.020 L0.263,33.020 ZM18.989,28.000 L18.989,30.000 L20.988,30.000 L20.988,28.000 L18.989,28.000 L18.989,28.000 ZM18.989,14.000 L18.989,26.000 L20.988,26.000 L20.988,14.000 L18.989,14.000 L18.989,14.000 ZM2.004,34.000 L37.973,34.000 L19.989,2.000 L2.004,34.000 Z" class="seopult-icon attention-i"/>
</svg>
