<svg xmlns="http://www.w3.org/2000/svg" xmlns:xlink="http://www.w3.org/1999/xlink" preserveAspectRatio="xMidYMid" width="34" height="40" viewBox="0 0 34 40">
  <defs>
    <style>
      .award-i {
        fill: #f90;
        fill-rule: evenodd;
      }
    </style>
  </defs>
  <path d="M3.990,-0.010 L29.999,-0.010 C31.099,-0.010 31.999,0.898 31.999,1.990 L31.999,7.991 C31.999,9.082 31.091,9.990 29.999,9.990 L19.141,9.990 L22.823,17.638 L32.240,18.793 C33.033,18.890 33.658,19.408 33.901,20.168 C34.144,20.929 33.936,21.713 33.347,22.252 L26.455,28.560 L28.229,37.602 C28.381,38.378 28.090,39.125 27.453,39.595 C26.816,40.065 26.016,40.122 25.319,39.748 L16.994,35.275 L8.670,39.748 C7.973,40.122 7.172,40.065 6.536,39.595 C5.898,39.125 5.608,38.378 5.760,37.602 L7.534,28.560 L0.642,22.252 C0.053,21.713 -0.156,20.929 0.088,20.168 C0.331,19.408 0.956,18.890 1.749,18.793 L11.166,17.638 L14.848,9.990 L3.990,9.990 C2.898,9.990 1.990,9.090 1.990,7.991 L1.990,1.990 C1.990,0.890 2.890,-0.010 3.990,-0.010 L3.990,-0.010 ZM16.994,10.143 L12.494,19.489 L1.993,20.777 L9.712,27.843 L7.723,37.986 L16.994,33.005 L26.266,37.986 L24.277,27.843 L31.996,20.777 L21.495,19.489 L16.994,10.143 L16.994,10.143 ZM3.992,1.990 L3.992,7.991 L29.997,7.991 L29.997,1.990 L3.992,1.990 Z" class="seopult-icon award-i"/>
</svg>
