<svg xmlns="http://www.w3.org/2000/svg" xmlns:xlink="http://www.w3.org/1999/xlink" preserveAspectRatio="xMidYMid" width="40" height="40" viewBox="0 0 40 40">
  <defs>
    <style>
      .bag-i {
        fill: #f90;
        fill-rule: evenodd;
      }
    </style>
  </defs>
  <path d="M40.000,20.000 L40.000,20.000 L40.000,37.999 C40.000,39.099 39.100,39.999 38.000,39.999 L2.000,39.999 C0.900,39.999 -0.000,39.099 -0.000,37.999 L-0.000,7.999 C-0.000,6.899 0.900,5.999 2.000,5.999 L14.000,5.999 L14.000,2.000 C14.000,0.895 14.895,-0.001 16.000,-0.001 L24.000,-0.001 C25.104,-0.001 26.000,0.895 26.000,2.000 L26.000,5.999 L38.000,5.999 C39.100,5.999 40.000,6.899 40.000,7.999 L40.000,18.000 L40.000,18.000 L40.000,20.000 ZM38.000,37.999 L38.000,20.000 L32.000,20.000 L32.000,22.000 C32.000,23.104 31.105,23.999 30.000,23.999 L26.000,23.999 C24.895,23.999 24.000,23.104 24.000,22.000 L24.000,20.000 L16.000,20.000 L16.000,22.000 C16.000,23.104 15.105,23.999 14.000,23.999 L10.000,23.999 C8.895,23.999 8.000,23.104 8.000,22.000 L8.000,20.000 L2.000,20.000 L2.000,37.999 L38.000,37.999 ZM30.000,18.000 L30.000,15.999 L26.000,15.999 L26.000,18.000 L26.000,20.000 L26.000,22.000 L30.000,22.000 L30.000,20.000 L30.000,18.000 ZM14.000,18.000 L14.000,15.999 L10.000,15.999 L10.000,18.000 L10.000,20.000 L10.000,22.000 L14.000,22.000 L14.000,20.000 L14.000,18.000 ZM24.000,2.000 L16.000,2.000 L16.000,5.999 L24.000,5.999 L24.000,2.000 ZM38.000,7.999 L24.004,7.999 C24.003,7.999 24.001,7.999 24.000,7.999 L16.000,7.999 C15.999,7.999 15.997,7.999 15.996,7.999 L2.000,7.999 L2.000,18.000 L8.000,18.000 L8.000,15.999 C8.000,14.895 8.895,14.000 10.000,14.000 L14.000,14.000 C15.105,14.000 16.000,14.895 16.000,15.999 L16.000,18.000 L24.000,18.000 L24.000,15.999 C24.000,14.895 24.895,14.000 26.000,14.000 L30.000,14.000 C31.105,14.000 32.000,14.895 32.000,15.999 L32.000,18.000 L38.000,18.000 L38.000,7.999 Z" class="seopult-icon bag-i"/>
</svg>
