<svg xmlns="http://www.w3.org/2000/svg" xmlns:xlink="http://www.w3.org/1999/xlink" preserveAspectRatio="xMidYMid" width="36" height="40" viewBox="0 0 36 40">
  <defs>
    <style>
      .bell-i {
        fill: #f90;
        fill-rule: evenodd;
      }
    </style>
  </defs>
  <path d="M-0.000,34.000 L-0.000,32.000 L2.000,32.000 L2.000,18.000 L2.000,18.000 C2.000,9.501 8.632,2.569 17.000,2.050 L17.000,-0.000 L19.000,-0.000 L19.000,2.050 C27.368,2.569 34.000,9.501 34.000,18.000 L34.000,32.000 L36.000,32.000 L36.000,34.000 L-0.000,34.000 ZM32.000,18.000 L32.000,18.000 C32.000,10.268 25.732,4.000 18.000,4.000 C10.268,4.000 4.000,10.268 4.000,18.000 L4.000,32.000 L32.000,32.000 L32.000,18.000 ZM14.555,36.000 C15.248,37.191 16.523,38.000 18.000,38.000 C19.477,38.000 20.752,37.191 21.445,36.000 L23.633,36.000 C22.806,38.325 20.609,40.000 18.000,40.000 C15.391,40.000 13.194,38.325 12.367,36.000 L14.555,36.000 Z" class="seopult-icon bell-i"/>
</svg>
