<svg xmlns="http://www.w3.org/2000/svg" xmlns:xlink="http://www.w3.org/1999/xlink" preserveAspectRatio="xMidYMid" width="40" height="40" viewBox="0 0 40 40">
  <defs>
    <style>
      .block-i {
        fill: #f90;
        fill-rule: evenodd;
      }
    </style>
  </defs>
  <path d="M25.000,40.000 C16.716,40.000 10.000,33.284 10.000,25.000 C10.000,16.716 16.716,10.000 25.000,10.000 C33.284,10.000 40.000,16.716 40.000,25.000 C40.000,33.284 33.284,40.000 25.000,40.000 ZM25.000,38.000 C28.230,38.000 31.184,36.822 33.458,34.872 L25.000,26.414 L16.542,34.872 C18.816,36.822 21.770,38.000 25.000,38.000 ZM12.000,25.000 C12.000,28.230 13.178,31.185 15.128,33.458 L23.586,25.000 L15.128,16.542 C13.178,18.815 12.000,21.770 12.000,25.000 ZM25.000,12.000 C21.770,12.000 18.816,13.178 16.542,15.128 L25.000,23.586 L33.458,15.128 C31.184,13.178 28.230,12.000 25.000,12.000 ZM34.872,16.542 L26.414,25.000 L34.872,33.458 C36.822,31.185 38.000,28.230 38.000,25.000 C38.000,21.770 36.822,18.816 34.872,16.542 ZM8.012,12.000 C4.698,12.000 2.011,9.313 2.011,5.999 C2.011,2.686 4.698,-0.001 8.012,-0.001 C11.327,-0.001 14.014,2.686 14.014,5.999 C14.014,9.313 11.327,12.000 8.012,12.000 ZM8.012,1.999 C5.803,1.999 4.011,3.790 4.011,5.999 C4.011,8.209 5.803,10.000 8.012,10.000 C10.222,10.000 12.013,8.209 12.013,5.999 C12.013,3.790 10.222,1.999 8.012,1.999 ZM4.011,14.007 L4.011,13.999 L12.013,13.999 C12.025,13.999 12.035,14.005 12.046,14.006 C11.514,14.632 11.035,15.300 10.597,16.000 L4.011,16.000 L2.011,27.000 L5.012,27.000 L6.012,38.000 L10.013,38.000 L10.405,33.685 C10.926,34.558 11.519,35.381 12.183,36.144 L11.998,38.179 C11.904,39.215 11.033,39.993 10.013,39.992 L10.013,40.000 L6.012,40.000 C4.910,40.000 4.016,39.109 4.011,38.009 L3.192,29.000 L2.011,29.000 C0.906,29.000 0.010,28.104 0.010,27.000 C0.010,26.815 0.036,26.635 0.083,26.465 L2.050,15.648 C2.223,14.683 3.064,14.006 4.011,14.007 Z" class="seopult-icon block-i"/>
</svg>
