<svg xmlns="http://www.w3.org/2000/svg" xmlns:xlink="http://www.w3.org/1999/xlink" preserveAspectRatio="xMidYMid" width="40" height="40" viewBox="0 0 40 40">
  <defs>
    <style>
      .books-i {
        fill: #f90;
        fill-rule: evenodd;
      }
    </style>
  </defs>
  <path d="M40.000,38.000 L40.000,40.000 L6.000,40.000 C2.686,40.000 -0.000,37.313 -0.000,34.000 C-0.000,30.686 2.686,28.000 6.000,28.000 L40.000,28.000 L40.000,30.000 L38.000,30.000 L38.000,38.000 L40.000,38.000 ZM36.000,30.000 L6.000,30.000 C3.791,30.000 2.000,31.791 2.000,34.000 C2.000,36.209 3.791,38.000 6.000,38.000 L36.000,38.000 L36.000,30.000 ZM34.000,26.000 L-0.000,26.000 L-0.000,24.000 L2.000,24.000 L2.000,16.000 L-0.000,16.000 L-0.000,14.000 L6.000,14.000 L6.000,16.000 L4.000,16.000 L4.000,24.000 L34.000,24.000 C36.209,24.000 38.000,22.209 38.000,20.000 C38.000,17.791 36.209,16.000 34.000,16.000 L18.000,16.000 L18.000,14.000 L34.000,14.000 C37.314,14.000 40.000,16.686 40.000,20.000 C40.000,23.313 37.314,26.000 34.000,26.000 ZM16.000,5.000 L16.000,7.000 L16.000,18.504 L16.000,19.000 L16.000,21.001 L12.000,18.506 L8.000,21.001 L8.000,19.000 L8.000,18.504 L8.000,7.000 L8.000,5.000 L10.000,5.000 L14.000,5.000 L16.000,5.000 ZM10.000,17.257 L12.000,16.010 L14.000,17.257 L14.000,7.000 L10.000,7.000 L10.000,17.257 ZM18.000,10.000 L36.000,10.000 L36.000,2.000 L6.000,2.000 C3.791,2.000 2.000,3.791 2.000,6.000 C2.000,8.209 3.791,10.000 6.000,10.000 L6.000,12.000 C2.686,12.000 -0.000,9.314 -0.000,6.000 C-0.000,2.686 2.686,-0.000 6.000,-0.000 L40.000,-0.000 L40.000,2.000 L38.000,2.000 L38.000,10.000 L40.000,10.000 L40.000,12.000 L18.000,12.000 L18.000,10.000 Z" class="seopult-icon books-i"/>
</svg>
