<svg xmlns="http://www.w3.org/2000/svg" xmlns:xlink="http://www.w3.org/1999/xlink" preserveAspectRatio="xMidYMid" width="34" height="40" viewBox="0 0 34 40">
  <defs>
    <style>
      .clipboard-i {
        fill: #f90;
        fill-rule: evenodd;
      }
    </style>
  </defs>
  <path d="M32.000,40.000 L2.000,40.000 C0.895,40.000 -0.000,39.105 -0.000,38.000 L-0.000,4.000 C-0.000,2.895 0.895,2.000 2.000,2.000 L8.000,2.000 C8.000,0.895 8.895,-0.000 10.000,-0.000 L24.000,-0.000 C25.104,-0.000 26.000,0.895 26.000,2.000 L32.000,2.000 C33.104,2.000 34.000,2.895 34.000,4.000 L34.000,38.000 C34.000,39.105 33.104,40.000 32.000,40.000 ZM24.000,2.000 L10.000,2.000 L10.000,6.000 L24.000,6.000 L24.000,2.000 ZM32.000,4.000 L26.000,4.000 L26.000,6.000 C26.000,7.105 25.104,8.000 24.000,8.000 L10.000,8.000 C8.895,8.000 8.000,7.105 8.000,6.000 L8.000,4.000 L2.000,4.000 L2.000,38.000 L32.000,38.000 L32.000,4.000 Z" class="seopult-icon clipboard-i"/>
</svg>
