<svg xmlns="http://www.w3.org/2000/svg" xmlns:xlink="http://www.w3.org/1999/xlink" preserveAspectRatio="xMidYMid" width="40" height="40" viewBox="0 0 40 40">
  <defs>
    <style>
      .code-i {
        fill: #f90;
        fill-rule: evenodd;
      }
    </style>
  </defs>
  <path d="M38.000,40.000 L2.000,40.000 C0.900,40.000 -0.000,39.100 -0.000,38.000 L-0.000,2.000 C-0.000,0.900 0.900,-0.000 2.000,-0.000 L38.000,-0.000 C39.100,-0.000 40.000,0.900 40.000,2.000 L40.000,38.000 C40.000,39.100 39.100,40.000 38.000,40.000 ZM38.000,2.000 L2.000,2.000 L2.000,8.000 L38.000,8.000 L38.000,2.000 ZM38.000,10.000 L2.000,10.000 L2.000,38.000 L38.000,38.000 L38.000,10.000 ZM14.707,19.707 L10.414,24.000 L14.707,28.293 L13.293,29.707 L7.586,24.000 L13.293,18.293 L14.707,19.707 ZM22.969,16.242 L18.968,32.242 L17.030,31.758 L21.031,15.758 L22.969,16.242 ZM25.293,19.707 L26.707,18.293 L32.413,24.000 L26.707,29.707 L25.293,28.293 L29.586,24.000 L25.293,19.707 ZM6.000,6.000 L4.000,6.000 L4.000,4.000 L6.000,4.000 L6.000,6.000 ZM10.000,6.000 L8.000,6.000 L8.000,4.000 L10.000,4.000 L10.000,6.000 ZM14.000,6.000 L12.000,6.000 L12.000,4.000 L14.000,4.000 L14.000,6.000 Z" class="seopult-icon code-i"/>
</svg>
