<svg xmlns="http://www.w3.org/2000/svg" xmlns:xlink="http://www.w3.org/1999/xlink" preserveAspectRatio="xMidYMid" width="40" height="40" viewBox="0 0 40 40">
  <defs>
    <style>
      .controls-i {
        fill: #f90;
        fill-rule: evenodd;
      }
    </style>
  </defs>
  <path d="M38.000,39.999 L2.000,39.999 C0.900,39.999 -0.000,39.100 -0.000,38.000 L-0.000,2.000 C-0.000,0.900 0.900,-0.000 2.000,-0.000 L38.000,-0.000 C39.100,-0.000 40.000,0.900 40.000,2.000 L40.000,38.000 C40.000,39.100 39.100,39.999 38.000,39.999 ZM38.000,2.000 L2.000,2.000 L2.000,38.000 L38.000,38.000 L38.000,2.000 ZM20.000,6.000 C21.862,6.000 23.412,7.278 23.858,9.000 L32.000,9.000 L32.000,11.000 L23.858,11.000 C23.412,12.722 21.862,14.000 20.000,14.000 C18.138,14.000 16.587,12.722 16.141,11.000 L8.000,11.000 L8.000,9.000 L16.141,9.000 C16.587,7.278 18.138,6.000 20.000,6.000 ZM20.000,12.000 C21.105,12.000 22.000,11.105 22.000,10.000 C22.000,8.895 21.105,8.000 20.000,8.000 C18.895,8.000 18.000,8.895 18.000,10.000 C18.000,11.105 18.895,12.000 20.000,12.000 ZM14.000,16.000 C15.862,16.000 17.412,17.278 17.858,19.000 L32.000,19.000 L32.000,21.000 L17.858,21.000 C17.412,22.722 15.862,24.000 14.000,24.000 C12.138,24.000 10.587,22.722 10.141,21.000 L8.000,21.000 L8.000,19.000 L10.141,19.000 C10.587,17.278 12.138,16.000 14.000,16.000 ZM14.000,22.000 C15.104,22.000 16.000,21.105 16.000,20.000 C16.000,18.895 15.104,18.000 14.000,18.000 C12.895,18.000 12.000,18.895 12.000,20.000 C12.000,21.105 12.895,22.000 14.000,22.000 ZM26.000,26.000 C27.862,26.000 29.412,27.278 29.859,29.000 L32.000,29.000 L32.000,31.000 L29.859,31.000 C29.412,32.722 27.862,34.000 26.000,34.000 C24.138,34.000 22.587,32.722 22.141,31.000 L8.000,31.000 L8.000,29.000 L22.141,29.000 C22.587,27.278 24.138,26.000 26.000,26.000 ZM26.000,32.000 C27.104,32.000 28.000,31.105 28.000,30.000 C28.000,28.895 27.104,28.000 26.000,28.000 C24.895,28.000 24.000,28.895 24.000,30.000 C24.000,31.105 24.895,32.000 26.000,32.000 Z" class="seopult-icon controls-i"/>
</svg>
