<svg xmlns="http://www.w3.org/2000/svg" xmlns:xlink="http://www.w3.org/1999/xlink" preserveAspectRatio="xMidYMid" width="40" height="40" viewBox="0 0 40 40">
  <defs>
    <style>
      .cont-i {
        fill: #f90;
        fill-rule: evenodd;
      }
    </style>
  </defs>
  <path d="M8.000,8.000 L32.000,8.000 L32.000,16.000 L8.000,16.000 L8.000,8.000 L8.000,8.000 ZM2.000,-0.000 C0.900,-0.000 -0.000,0.900 -0.000,2.000 L-0.000,38.000 C-0.000,39.100 0.900,40.000 2.000,40.000 L38.000,40.000 C39.100,40.000 40.000,39.100 40.000,38.000 L40.000,2.000 C40.000,0.900 39.100,-0.000 38.000,-0.000 L2.000,-0.000 L2.000,-0.000 ZM2.000,2.000 L2.000,38.000 L38.000,38.000 L38.000,2.000 L2.000,2.000 L2.000,2.000 ZM6.000,5.999 L6.000,18.000 L34.000,18.000 L34.000,5.999 L6.000,5.999 L6.000,5.999 ZM8.000,22.000 L13.999,22.000 L13.999,28.000 L8.000,28.000 L8.000,22.000 L8.000,22.000 ZM6.000,20.000 L16.000,20.000 L16.000,30.000 L6.000,30.000 L6.000,20.000 L6.000,20.000 ZM18.000,20.000 L26.000,20.000 L26.000,22.000 L18.000,22.000 L18.000,20.000 L18.000,20.000 ZM18.000,23.999 L34.000,23.999 L34.000,26.000 L18.000,26.000 L18.000,23.999 L18.000,23.999 ZM18.000,28.000 L24.000,28.000 L24.000,30.000 L18.000,30.000 L18.000,28.000 L18.000,28.000 ZM6.000,31.999 L30.000,31.999 L30.000,34.000 L6.000,34.000 L6.000,31.999 Z" class="seopult-icon cont-i"/>
</svg>
