<svg xmlns="http://www.w3.org/2000/svg" xmlns:xlink="http://www.w3.org/1999/xlink" preserveAspectRatio="xMidYMid" width="40" height="40" viewBox="0 0 40 40">
  <defs>
    <style>
      .dictionary-i {
        fill: #f90;
        fill-rule: evenodd;
      }
    </style>
  </defs>
  <path d="M38.000,40.000 L2.000,40.000 C0.895,40.000 -0.000,39.105 -0.000,38.000 L-0.000,2.000 C-0.000,0.895 0.895,-0.000 2.000,-0.000 L38.000,-0.000 C39.104,-0.000 40.000,0.895 40.000,2.000 L40.000,38.000 C40.000,39.105 39.104,40.000 38.000,40.000 ZM19.000,2.000 L2.000,2.000 L2.000,38.000 L19.000,38.000 L19.000,2.000 ZM38.000,2.000 L21.000,2.000 L21.000,38.000 L38.000,38.000 L38.000,2.000 ZM25.000,18.000 C25.000,15.791 26.791,14.000 29.000,14.000 L32.000,14.000 L34.000,14.000 L34.000,26.000 L32.000,26.000 L32.000,22.000 L29.875,22.000 L27.475,26.000 L25.008,26.000 L27.572,21.726 C26.070,21.150 25.000,19.704 25.000,18.000 ZM29.000,20.000 L32.000,20.000 L32.000,16.000 L29.000,16.000 C27.895,16.000 27.000,16.895 27.000,18.000 C27.000,19.104 27.895,20.000 29.000,20.000 ZM9.579,14.000 L11.421,14.000 L11.659,14.000 L16.004,26.000 L13.924,26.000 L12.838,23.000 L8.162,23.000 L7.076,26.000 L4.996,26.000 L9.341,14.000 L9.579,14.000 ZM12.114,21.000 L10.500,16.543 L8.886,21.000 L12.114,21.000 Z" class="seopult-icon dictionary-i"/>
</svg>
