<svg xmlns="http://www.w3.org/2000/svg" xmlns:xlink="http://www.w3.org/1999/xlink" preserveAspectRatio="xMidYMid" width="40" height="40" viewBox="0 0 40 40">
  <defs>
    <style>
      .education-i {
        fill: #f90;
        fill-rule: evenodd;
      }
    </style>
  </defs>
  <path d="M38.000,36.000 L24.000,36.000 L24.000,34.000 L38.000,34.000 L38.000,2.000 L2.000,2.000 L2.000,33.000 L2.000,34.000 L2.000,36.000 C0.895,36.000 -0.000,35.104 -0.000,34.000 L-0.000,2.000 C-0.000,0.895 0.895,-0.000 2.000,-0.000 L38.000,-0.000 C39.104,-0.000 40.000,0.895 40.000,2.000 L40.000,34.000 C40.000,35.104 39.104,36.000 38.000,36.000 ZM6.000,13.000 C6.000,9.134 9.134,6.000 13.000,6.000 C16.866,6.000 20.000,9.134 20.000,13.000 C20.000,16.866 16.866,20.000 13.000,20.000 C9.134,20.000 6.000,16.866 6.000,13.000 ZM18.000,13.000 C18.000,10.239 15.761,8.000 13.000,8.000 C10.239,8.000 8.000,10.239 8.000,13.000 C8.000,15.761 10.239,18.000 13.000,18.000 C15.761,18.000 18.000,15.761 18.000,13.000 ZM6.000,22.000 L31.000,22.000 C32.657,22.000 34.000,23.343 34.000,25.000 C34.000,26.657 32.657,28.000 31.000,28.000 L22.000,28.000 L22.000,38.000 C22.000,39.105 21.105,40.000 20.000,40.000 L6.000,40.000 C4.895,40.000 4.000,39.105 4.000,38.000 L4.000,24.000 C4.000,22.895 4.895,22.000 6.000,22.000 ZM6.000,28.000 L6.000,38.000 L20.000,38.000 L20.000,28.000 C20.000,26.895 20.895,26.000 22.000,26.000 L31.000,26.000 C31.552,26.000 32.000,25.552 32.000,25.000 C32.000,24.448 31.552,24.000 31.000,24.000 L6.000,24.000 L6.000,28.000 Z" class="seopult-icon education-i"/>
</svg>
