<svg xmlns="http://www.w3.org/2000/svg" xmlns:xlink="http://www.w3.org/1999/xlink" preserveAspectRatio="xMidYMid" width="40" height="40" viewBox="0 0 40 40">
  <defs>
    <style>
      .flower-i {
        fill: #f90;
        fill-rule: evenodd;
      }
    </style>
  </defs>
  <path d="M34.000,14.000 L23.000,14.000 L23.000,24.000 L32.000,24.000 L36.000,24.000 L36.000,26.000 L34.000,26.000 L34.000,38.000 C34.000,39.104 33.105,40.000 32.000,40.000 L8.000,40.000 C6.895,40.000 6.000,39.104 6.000,38.000 L6.000,26.000 L4.000,26.000 L4.000,24.000 L8.000,24.000 L17.000,24.000 L17.000,18.000 L6.000,18.000 C2.686,18.000 -0.000,15.314 -0.000,12.000 L-0.000,4.000 L13.000,4.000 C16.314,4.000 19.000,6.686 19.000,10.000 L19.000,24.000 L21.000,24.000 L21.000,6.000 C21.000,2.686 23.686,-0.000 27.000,-0.000 L40.000,-0.000 L40.000,8.000 C40.000,11.314 37.314,14.000 34.000,14.000 ZM17.000,10.000 C17.000,7.791 15.209,6.000 13.000,6.000 L2.000,6.000 L2.000,12.000 C2.000,14.209 3.791,16.000 6.000,16.000 L17.000,16.000 L17.000,10.000 ZM8.000,26.000 L8.000,38.000 L32.000,38.000 L32.000,26.000 L8.000,26.000 ZM38.000,2.000 L27.000,2.000 C24.791,2.000 23.000,3.791 23.000,6.000 L23.000,12.000 L34.000,12.000 C36.209,12.000 38.000,10.209 38.000,8.000 L38.000,2.000 Z" class="seopult-icon flower-i"/>
</svg>
