<svg xmlns="http://www.w3.org/2000/svg" xmlns:xlink="http://www.w3.org/1999/xlink" preserveAspectRatio="xMidYMid" width="40" height="40" viewBox="0 0 40 40">
  <defs>
    <style>
      .hand-i {
        fill: #f90;
        fill-rule: evenodd;
      }
    </style>
  </defs>
  <path d="M26.795,39.998 L2.003,39.998 C0.902,39.998 0.003,39.100 0.003,37.998 L0.003,14.996 C0.003,13.895 0.902,12.996 2.003,12.996 L8.822,12.996 L14.838,2.942 C15.926,1.124 17.874,-0.005 20.004,-0.005 C23.316,-0.005 26.003,2.682 26.003,5.995 C26.003,6.463 25.948,6.928 25.842,7.383 L24.526,12.996 C27.686,12.996 30.845,12.996 34.004,12.996 C36.116,12.996 37.930,13.992 39.065,15.773 C40.199,17.554 40.334,19.620 39.441,21.534 L32.441,36.535 C31.396,38.775 29.180,40.094 26.795,39.998 L26.795,39.998 ZM27.004,38.001 C28.540,38.010 29.952,37.139 30.629,35.689 L37.629,20.688 C38.224,19.412 38.134,18.035 37.378,16.848 C36.622,15.660 35.412,14.996 34.004,14.996 C30.004,14.996 26.004,14.996 22.003,14.996 L23.895,6.927 C23.966,6.628 24.004,6.315 24.004,5.995 C24.004,3.786 22.213,1.995 20.004,1.995 C18.534,1.995 17.249,2.788 16.554,3.970 L10.003,14.916 L10.003,37.998 L27.004,38.001 L27.004,38.001 ZM4.003,35.998 L6.003,35.998 L6.003,33.998 L4.003,33.998 L4.003,35.998 L4.003,35.998 ZM8.003,37.998 L8.003,14.996 L2.003,14.996 L2.003,37.998 L8.003,37.998 Z" class="seopult-icon hand-i"/>
</svg>
