<svg xmlns="http://www.w3.org/2000/svg" xmlns:xlink="http://www.w3.org/1999/xlink" preserveAspectRatio="xMidYMid" width="40" height="40" viewBox="0 0 40 40">
  <defs>
    <style>
      .lamp-i {
        fill: #f90;
        fill-rule: evenodd;
      }
    </style>
  </defs>
  <path d="M16.000,40.000 L24.000,40.000 C25.100,40.000 26.000,39.100 26.000,38.000 L26.000,30.392 C29.587,28.317 32.000,24.441 32.000,19.999 C32.000,13.372 26.628,8.000 20.000,8.000 C13.373,8.000 8.000,13.372 8.000,19.999 C8.000,24.441 10.414,28.317 14.000,30.392 L14.000,38.000 C14.000,39.097 14.900,40.000 16.000,40.000 L16.000,40.000 ZM16.000,35.999 L24.000,35.999 L24.000,38.000 L16.000,38.000 L16.000,35.999 L16.000,35.999 ZM24.000,33.999 L16.000,33.999 L16.000,31.999 L24.000,31.999 L24.000,33.999 L24.000,33.999 ZM24.000,29.999 L16.000,29.999 L16.000,29.166 C12.468,27.623 10.000,24.100 10.000,19.999 C10.000,14.477 14.477,10.000 20.000,10.000 C25.523,10.000 30.000,14.477 30.000,19.999 C30.000,24.100 27.532,27.623 24.000,29.166 L24.000,29.999 L24.000,29.999 ZM33.435,34.848 L30.607,32.020 L32.021,30.606 L34.849,33.434 L33.435,34.848 L33.435,34.848 ZM7.979,9.393 L5.151,6.565 L6.565,5.151 L9.393,7.979 L7.979,9.393 L7.979,9.393 ZM5.151,33.434 L7.979,30.606 L9.393,32.020 L6.565,34.848 L5.151,33.434 L5.151,33.434 ZM30.607,7.979 L33.435,5.151 L34.849,6.565 L32.021,9.393 L30.607,7.979 L30.607,7.979 ZM19.000,4.000 L19.000,-0.000 L21.000,-0.000 L21.000,4.000 L19.000,4.000 L19.000,4.000 ZM-0.000,18.999 L4.000,18.999 L4.000,20.999 L-0.000,20.999 L-0.000,18.999 L-0.000,18.999 ZM36.000,18.999 L40.000,18.999 L40.000,20.999 L36.000,20.999 L36.000,18.999 Z" class="seopult-icon lamp-i"/>
</svg>
