<svg xmlns="http://www.w3.org/2000/svg" xmlns:xlink="http://www.w3.org/1999/xlink" preserveAspectRatio="xMidYMid" width="40" height="40" viewBox="0 0 40 40">
  <defs>
    <style>
      .links-i {
        fill: #f90;
        fill-rule: evenodd;
      }
    </style>
  </defs>
  <path d="M17.448,12.111 L23.444,15.109 C23.789,14.577 24.189,14.083 24.636,13.636 C26.265,12.008 28.515,11.000 31.000,11.000 C33.485,11.000 35.735,12.008 37.364,13.637 C38.992,15.265 40.000,17.516 40.000,20.000 C40.000,22.485 38.992,24.735 37.364,26.364 C35.735,27.993 33.485,29.000 31.000,29.000 C28.515,29.000 26.265,27.993 24.636,26.364 C24.190,25.917 23.789,25.424 23.444,24.891 L17.448,27.890 C17.805,28.859 18.000,29.907 18.000,31.000 C18.000,33.485 16.992,35.735 15.364,37.364 C13.735,38.992 11.485,40.000 9.001,40.000 C6.516,40.000 4.265,38.992 2.637,37.364 C1.008,35.735 0.001,33.485 0.001,31.000 C0.001,28.515 1.008,26.265 2.637,24.636 C4.265,23.008 6.516,22.000 9.001,22.000 C11.485,22.000 13.735,23.008 15.364,24.636 C15.810,25.083 16.210,25.577 16.556,26.109 L22.552,23.111 C22.195,22.141 22.000,21.093 22.000,20.000 C22.000,18.907 22.195,17.859 22.552,16.890 L16.556,13.891 C16.211,14.423 15.811,14.917 15.364,15.364 C13.735,16.993 11.485,18.000 9.000,18.000 C6.515,18.000 4.265,16.993 2.636,15.364 C1.008,13.736 -0.000,11.485 -0.000,9.000 C-0.000,6.515 1.008,4.265 2.636,2.636 C4.265,1.008 6.515,-0.000 9.000,-0.000 C11.485,-0.000 13.735,1.008 15.364,2.636 C16.992,4.265 18.000,6.515 18.000,9.000 C18.000,10.094 17.805,11.141 17.448,12.111 L17.448,12.111 ZM35.950,15.051 C34.683,13.784 32.933,13.000 31.000,13.000 C29.067,13.000 27.316,13.784 26.050,15.050 C24.784,16.317 24.000,18.067 24.000,20.000 C24.000,21.933 24.784,23.684 26.050,24.950 C27.316,26.217 29.067,27.000 31.000,27.000 C32.933,27.000 34.683,26.217 35.950,24.950 C37.216,23.684 38.000,21.933 38.000,20.000 C38.000,18.067 37.216,16.317 35.950,15.051 L35.950,15.051 ZM13.950,4.050 C12.684,2.784 10.933,2.000 9.000,2.000 C7.067,2.000 5.317,2.784 4.050,4.050 C2.784,5.317 2.000,7.067 2.000,9.000 C2.000,10.933 2.784,12.684 4.050,13.950 C5.317,15.216 7.067,16.000 9.000,16.000 C10.933,16.000 12.684,15.216 13.950,13.950 C15.216,12.684 16.000,10.933 16.000,9.000 C16.000,7.067 15.216,5.317 13.950,4.050 L13.950,4.050 ZM13.950,26.050 C12.684,24.784 10.933,24.000 9.001,24.000 C7.068,24.000 5.317,24.784 4.051,26.050 C2.784,27.317 2.001,29.067 2.001,31.000 C2.001,32.933 2.784,34.684 4.051,35.950 C5.317,37.216 7.068,38.000 9.001,38.000 C10.933,38.000 12.684,37.216 13.950,35.950 C15.216,34.684 16.000,32.933 16.000,31.000 C16.000,29.067 15.216,27.317 13.950,26.050 Z" class="seopult-icon links-i"/>
</svg>
