<svg xmlns="http://www.w3.org/2000/svg" xmlns:xlink="http://www.w3.org/1999/xlink" preserveAspectRatio="xMidYMid" width="40" height="40" viewBox="0 0 40 40">
  <defs>
    <style>
      .megaphone-i {
        fill: #f90;
        fill-rule: evenodd;
      }
    </style>
  </defs>
  <path d="M38.944,37.757 C38.276,38.114 37.521,38.077 36.891,37.658 L22.394,28.002 L17.000,28.002 C17.000,28.004 17.000,28.005 17.000,28.007 L17.000,36.003 C17.000,38.209 15.209,40.000 13.000,40.000 C10.792,40.000 9.001,38.209 9.001,36.003 L9.001,28.007 C9.001,28.005 9.001,28.004 9.001,28.003 L9.000,28.003 C4.030,28.003 -0.000,23.973 -0.000,19.007 C-0.000,14.040 4.030,10.013 9.000,10.013 L22.393,10.011 L36.891,0.356 C37.521,-0.064 38.276,-0.100 38.944,0.257 C39.611,0.614 40.000,1.262 40.000,2.019 L40.000,35.995 C40.000,36.751 39.611,37.400 38.944,37.757 ZM11.001,36.003 C11.001,37.106 11.896,38.001 13.000,38.001 C14.105,38.001 15.000,37.106 15.000,36.003 L15.000,28.007 L11.001,28.007 L11.001,36.003 ZM21.000,12.010 L9.000,12.011 C5.134,12.011 2.000,15.143 2.000,19.007 C2.000,22.870 5.134,26.004 9.000,26.004 L21.000,26.004 L21.000,12.010 ZM38.000,2.019 L23.000,12.009 L23.000,26.005 L38.000,35.995 L38.000,2.019 Z" class="seopult-icon megaphone-i"/>
</svg>
