<svg xmlns="http://www.w3.org/2000/svg" xmlns:xlink="http://www.w3.org/1999/xlink" preserveAspectRatio="xMidYMid" width="40" height="40" viewBox="0 0 40 40">
  <defs>
    <style>
      .microchip-i {
        fill: #f90;
        fill-rule: evenodd;
      }
    </style>
  </defs>
  <path d="M36.000,31.000 L36.000,29.000 L40.000,29.000 L40.000,31.000 L36.000,31.000 ZM36.000,24.000 L40.000,24.000 L40.000,26.000 L36.000,26.000 L36.000,24.000 ZM36.000,19.000 L40.000,19.000 L40.000,21.000 L36.000,21.000 L36.000,19.000 ZM36.000,14.000 L40.000,14.000 L40.000,16.000 L36.000,16.000 L36.000,14.000 ZM36.000,9.000 L40.000,9.000 L40.000,11.000 L36.000,11.000 L36.000,9.000 ZM34.000,35.999 L6.000,35.999 C4.900,35.999 4.000,35.100 4.000,34.000 L4.000,31.000 L-0.000,31.000 L-0.000,29.000 L4.000,29.000 L4.000,26.000 L-0.000,26.000 L-0.000,24.000 L4.000,24.000 L4.000,21.000 L-0.000,21.000 L-0.000,19.000 L4.000,19.000 L4.000,16.000 L-0.000,16.000 L-0.000,14.000 L4.000,14.000 L4.000,11.000 L-0.000,11.000 L-0.000,9.000 L4.000,9.000 L4.000,6.000 C4.000,4.900 4.900,4.000 6.000,4.000 L9.000,4.000 L9.000,-0.000 L11.000,-0.000 L11.000,4.000 L14.000,4.000 L14.000,-0.000 L16.000,-0.000 L16.000,4.000 L19.000,4.000 L19.000,-0.000 L21.000,-0.000 L21.000,4.000 L24.000,4.000 L24.000,-0.000 L26.000,-0.000 L26.000,4.000 L29.000,4.000 L29.000,-0.000 L31.000,-0.000 L31.000,4.000 L34.000,4.000 C35.100,4.000 36.000,4.900 36.000,6.000 L36.000,34.000 C36.000,35.100 35.100,35.999 34.000,35.999 ZM34.000,6.000 L6.000,6.000 L6.000,34.000 L34.000,34.000 L34.000,6.000 ZM11.000,40.000 L9.000,40.000 L9.000,36.000 L11.000,36.000 L11.000,40.000 ZM16.000,40.000 L14.000,40.000 L14.000,36.000 L16.000,36.000 L16.000,40.000 ZM21.000,40.000 L19.000,40.000 L19.000,36.000 L21.000,36.000 L21.000,40.000 ZM26.000,40.000 L24.000,40.000 L24.000,36.000 L26.000,36.000 L26.000,40.000 ZM31.000,40.000 L29.000,40.000 L29.000,36.000 L31.000,36.000 L31.000,40.000 Z" class="seopult-icon microchip-i"/>
</svg>
