<svg xmlns="http://www.w3.org/2000/svg" xmlns:xlink="http://www.w3.org/1999/xlink" preserveAspectRatio="xMidYMid" width="40" height="40" viewBox="0 0 40 40">
  <defs>
    <style>
      .people-i {
        fill: #f90;
        fill-rule: evenodd;
      }
    </style>
  </defs>
  <path d="M39.415,39.413 C39.026,39.803 38.551,40.000 38.001,40.000 L1.999,40.000 C1.448,40.000 0.974,39.803 0.585,39.413 C0.195,39.023 -0.000,38.549 0.000,37.998 L0.008,30.998 C0.009,30.196 0.451,29.511 1.180,29.179 L12.176,24.179 C12.949,23.828 13.816,23.985 14.417,24.586 L20.000,30.172 L25.583,24.586 C26.184,23.985 27.051,23.828 27.824,24.179 L38.820,29.179 C39.549,29.511 39.991,30.196 39.992,30.998 L40.000,37.998 C40.000,38.549 39.805,39.023 39.415,39.413 ZM37.992,31.000 L26.997,26.000 L20.000,33.000 L13.003,26.000 L2.007,31.000 L1.999,38.000 L38.001,38.000 L37.992,31.000 ZM20.000,23.999 C15.049,23.999 11.004,19.953 11.004,15.000 L11.004,9.000 C11.004,4.046 15.048,-0.000 20.000,-0.000 C24.951,-0.000 28.996,4.046 28.996,9.000 L28.996,15.000 C28.996,19.952 24.950,23.999 20.000,23.999 ZM26.997,9.000 C26.997,5.151 23.848,2.000 20.000,2.000 L20.000,2.000 C16.151,2.000 13.003,5.150 13.003,9.000 L13.003,15.000 C13.003,18.850 16.153,22.000 20.000,22.000 L20.000,22.000 C23.847,22.000 26.997,18.848 26.997,15.000 L26.997,9.000 Z" class="seopult-icon people-i"/>
</svg>
