<svg xmlns="http://www.w3.org/2000/svg" xmlns:xlink="http://www.w3.org/1999/xlink" preserveAspectRatio="xMidYMid" width="40" height="40" viewBox="0 0 40 40">
  <defs>
    <style>
      .piggy-i {
        fill: #f90;
        fill-rule: evenodd;
      }
    </style>
  </defs>
  <path d="M38.000,25.000 L36.785,25.000 C33.879,31.960 26.449,36.000 19.000,36.000 C11.666,36.000 4.351,32.118 1.320,25.241 C0.451,23.269 -0.000,21.156 -0.000,19.000 C-0.000,16.845 0.451,14.731 1.320,12.759 C4.351,5.882 11.666,2.001 19.000,2.001 C21.346,2.001 23.681,2.383 25.894,3.154 L29.850,0.627 C30.643,0.121 31.032,0.001 31.999,0.001 C34.332,-0.000 35.000,2.089 35.000,3.994 C35.007,5.948 35.020,7.902 35.022,9.856 C35.932,11.131 36.658,12.523 37.165,14.000 L38.000,14.000 C39.102,14.000 40.000,14.899 40.000,16.000 L40.000,23.000 C40.000,24.101 39.102,25.000 38.000,25.000 ZM38.000,16.000 L35.660,16.000 C35.200,14.000 34.288,12.144 33.023,10.519 C33.023,8.338 33.000,4.000 33.000,4.000 C33.000,3.354 33.000,2.000 32.000,2.001 C31.250,2.001 31.237,2.115 30.927,2.313 L26.126,5.378 C23.958,4.494 21.545,4.000 19.000,4.000 C9.611,4.000 2.000,10.716 2.000,19.000 C2.000,27.284 9.611,34.000 19.000,34.000 C26.819,34.000 33.404,29.342 35.388,23.000 L38.000,23.000 L38.000,16.000 ZM15.000,8.000 L14.000,8.000 L14.000,6.000 L15.000,6.000 L23.000,6.000 L24.000,6.000 L24.000,8.000 L23.000,8.000 L15.000,8.000 ZM10.000,38.000 C10.665,38.000 18.000,38.000 18.000,38.000 C18.000,39.100 17.100,40.000 16.000,40.000 L10.000,40.000 C8.899,40.000 8.000,39.099 8.000,38.000 L8.000,35.187 C8.644,35.546 9.312,35.874 10.000,36.170 L10.000,38.000 ZM28.000,36.170 C28.688,35.875 29.356,35.546 30.000,35.186 L30.000,38.000 C30.000,39.100 29.101,40.000 28.000,40.000 L22.000,40.000 C20.900,40.000 20.000,39.100 20.000,38.000 L28.000,38.000 L28.000,36.170 Z" class="seopult-icon piggy-i"/>
</svg>
