<svg xmlns="http://www.w3.org/2000/svg" xmlns:xlink="http://www.w3.org/1999/xlink" preserveAspectRatio="xMidYMid" width="40" height="40" viewBox="0 0 40 40">
  <defs>
    <style>
      .question-i {
        fill: #f90;
        fill-rule: evenodd;
      }
    </style>
  </defs>
  <path d="M9.605,37.088 L4.330,37.973 C3.672,38.083 3.057,37.886 2.585,37.415 C2.114,36.943 1.917,36.328 2.027,35.670 L2.912,30.395 C1.002,27.263 -0.000,23.682 -0.000,20.000 C-0.000,8.955 8.955,-0.000 20.000,-0.000 C31.045,-0.000 40.000,8.955 40.000,20.000 C40.000,31.045 31.045,40.000 20.000,40.000 C16.318,40.000 12.737,38.998 9.605,37.088 L9.605,37.088 ZM13.000,17.000 L15.000,17.000 C15.000,15.616 15.558,14.366 16.461,13.464 L16.464,13.460 C17.366,12.558 18.617,12.000 20.000,12.000 C21.383,12.000 22.634,12.558 23.536,13.460 L23.539,13.464 C24.442,14.366 25.000,15.616 25.000,17.000 C25.000,18.383 24.442,19.633 23.539,20.535 L23.536,20.539 C22.634,21.441 21.383,22.000 20.000,22.000 L19.000,22.000 L19.000,26.000 L21.000,26.000 L21.000,23.929 C22.529,23.709 23.900,22.994 24.946,21.949 L24.950,21.946 C26.217,20.677 27.000,18.928 27.000,17.000 C27.000,15.071 26.217,13.323 24.950,12.054 L24.946,12.050 C23.677,10.783 21.928,10.000 20.000,10.000 C18.072,10.000 16.323,10.783 15.054,12.050 L15.050,12.054 C13.783,13.323 13.000,15.071 13.000,17.000 L13.000,17.000 ZM19.000,28.000 L19.000,30.000 L21.000,30.000 L21.000,28.000 L19.000,28.000 L19.000,28.000 ZM20.000,2.000 C10.059,2.000 2.000,10.058 2.000,20.000 C2.000,23.687 3.109,27.115 5.011,29.969 L3.999,36.001 L10.031,34.989 C12.885,36.891 16.313,38.000 20.000,38.000 C29.941,38.000 38.000,29.941 38.000,20.000 C38.000,10.058 29.941,2.000 20.000,2.000 Z" class="seopult-icon question-i"/>
</svg>
