<svg xmlns="http://www.w3.org/2000/svg" xmlns:xlink="http://www.w3.org/1999/xlink" preserveAspectRatio="xMidYMid" width="40" height="40" viewBox="0 0 40 40">
  <defs>
    <style>
      .rep-i {
        fill: #f90;
        fill-rule: evenodd;
      }
    </style>
  </defs>
  <path d="M20.000,34.986 L34.778,20.775 C36.769,18.786 38.000,16.038 38.000,13.003 C38.000,6.932 33.075,2.011 27.000,2.011 C24.341,2.011 21.902,2.954 20.000,4.524 C18.098,2.954 15.659,2.011 13.000,2.011 C6.925,2.011 2.000,6.932 2.000,13.003 C2.000,16.038 3.231,18.786 5.222,20.775 L6.247,21.723 L4.790,23.095 L3.808,22.188 C1.378,19.760 -0.000,16.436 -0.000,13.003 C-0.000,5.829 5.821,0.012 13.000,0.012 C15.471,0.012 17.918,0.733 20.000,2.060 C22.082,0.733 24.529,0.012 27.000,0.012 C34.179,0.012 40.000,5.829 40.000,13.003 C40.000,16.436 38.622,19.760 36.192,22.188 L21.414,36.399 C20.633,37.179 19.367,37.179 18.586,36.399 L13.439,31.412 L14.896,30.040 L20.000,34.986 L20.000,34.986 ZM16.459,23.034 C17.535,23.667 18.753,23.994 20.000,23.994 C23.866,23.994 27.000,20.863 27.000,17.000 C27.000,16.660 26.976,16.327 26.929,16.001 L22.625,20.016 C21.923,20.627 21.004,20.997 20.000,20.997 C17.803,20.997 16.000,19.219 16.000,17.000 C16.000,15.896 16.447,14.897 17.171,14.174 L21.475,10.160 C20.999,10.059 20.506,10.005 20.000,10.005 C16.134,10.005 13.000,13.137 13.000,17.000 C13.000,18.081 13.247,19.145 13.731,20.115 L5.170,28.165 C4.324,28.954 3.398,29.762 2.586,30.575 C2.224,30.937 2.000,31.160 2.000,31.988 C2.000,32.816 3.172,33.987 4.000,33.987 C4.829,33.987 5.052,33.763 5.414,33.401 L7.898,31.085 L16.459,23.034 L16.459,23.034 ZM16.833,25.413 C17.834,25.791 18.929,25.993 20.000,25.993 C24.970,25.993 29.000,21.966 29.000,17.000 C29.000,16.811 28.992,16.597 28.975,16.358 C28.960,16.149 28.936,15.936 28.906,15.720 C28.672,14.080 26.668,13.445 25.521,14.587 L21.469,18.366 C21.039,18.767 20.592,18.999 20.000,18.999 C18.876,18.999 18.000,18.117 18.000,17.000 C18.000,16.331 18.253,15.892 18.734,15.444 L22.834,11.620 C23.641,10.870 23.686,9.608 22.935,8.802 C22.276,8.094 20.938,8.006 20.000,8.006 C15.030,8.006 11.000,12.033 11.000,17.000 C11.000,17.864 11.132,18.753 11.380,19.579 L3.811,26.705 C3.592,26.909 1.178,29.168 1.172,29.162 C0.436,29.898 0.000,30.948 0.000,31.988 C0.000,34.195 1.791,35.985 4.000,35.985 C5.042,35.985 6.153,35.531 6.870,34.771 L9.257,32.545 L16.833,25.413 Z" transform="translate(0 1.5)" class="seopult-icon rep-i"/>
</svg>
