<svg xmlns="http://www.w3.org/2000/svg" xmlns:xlink="http://www.w3.org/1999/xlink" preserveAspectRatio="xMidYMid" width="40" height="40" viewBox="0 0 40 40">
  <defs>
    <style>
      .target-i {
        fill: #f90;
        fill-rule: evenodd;
      }
    </style>
  </defs>
  <path d="M19.989,39.985 C18.511,39.985 17.071,39.823 15.684,39.519 L16.515,37.650 C17.640,37.869 18.800,37.985 19.989,37.985 C29.932,37.985 37.992,29.931 37.992,19.996 C37.992,10.061 29.932,2.007 19.989,2.007 C10.045,2.007 1.985,10.061 1.985,19.996 C1.985,21.183 2.101,22.343 2.321,23.467 L0.450,24.297 C0.146,22.912 -0.015,21.473 -0.015,19.996 C-0.015,8.957 8.941,0.008 19.989,0.008 C31.036,0.008 39.993,8.957 39.993,19.996 C39.993,31.035 31.036,39.985 19.989,39.985 ZM23.076,17.453 L23.075,17.452 C23.036,17.405 22.996,17.359 22.955,17.314 L22.943,17.301 L22.895,17.250 L22.884,17.238 L22.872,17.225 L22.817,17.169 L22.762,17.115 L22.749,17.103 L22.737,17.092 L22.685,17.044 L22.673,17.032 C22.627,16.991 22.582,16.951 22.535,16.913 L22.533,16.911 L22.532,16.910 C21.590,16.133 20.360,15.836 19.182,16.080 L19.164,16.084 L19.133,16.091 C18.837,16.155 18.554,16.252 18.287,16.377 L14.275,18.159 C15.051,15.746 17.315,14.000 19.989,14.000 C23.303,14.000 25.990,16.684 25.990,19.996 C25.990,22.667 24.242,24.930 21.827,25.705 L23.610,21.696 C23.736,21.429 23.833,21.146 23.897,20.851 L23.904,20.820 L23.908,20.802 C24.153,19.625 23.854,18.396 23.077,17.455 L23.076,17.453 ZM7.058,21.363 C7.011,20.914 6.986,20.458 6.986,19.996 C6.986,12.821 12.808,7.004 19.989,7.004 C27.169,7.004 32.991,12.821 32.991,19.996 C32.991,27.172 27.169,32.988 19.989,32.988 C19.526,32.988 19.070,32.964 18.620,32.917 L19.482,30.978 C19.650,30.985 19.819,30.990 19.989,30.990 C26.065,30.990 30.991,26.068 30.991,19.996 C30.991,13.925 26.065,9.003 19.989,9.003 C13.912,9.003 8.986,13.925 8.986,19.996 C8.986,20.166 8.991,20.334 8.998,20.502 L7.058,21.363 ZM-0.015,28.003 C-0.020,27.190 0.430,26.493 1.173,26.163 L19.176,18.170 C19.948,17.827 20.806,17.986 21.403,18.583 C22.000,19.179 22.159,20.037 21.816,20.808 L13.817,38.797 C13.487,39.539 12.788,39.989 11.976,39.984 C11.163,39.978 10.470,39.519 10.150,38.773 L9.161,36.467 L6.814,38.813 C5.253,40.373 2.718,40.373 1.157,38.813 C-0.404,37.253 -0.404,34.721 1.157,33.160 L3.504,30.815 L1.197,29.827 C0.450,29.507 -0.009,28.815 -0.015,28.003 ZM7.008,30.141 L2.571,34.574 C1.791,35.354 1.791,36.620 2.571,37.400 C3.352,38.180 4.619,38.180 5.400,37.400 L9.836,32.967 L11.989,37.985 L19.989,19.996 L1.986,27.990 L7.008,30.141 Z" class="seopult-icon target-i"/>
</svg>
