<svg xmlns="http://www.w3.org/2000/svg" xmlns:xlink="http://www.w3.org/1999/xlink" preserveAspectRatio="xMidYMid" width="40" height="40" viewBox="0 0 40 40">
  <defs>
    <style>
      .text-i {
        fill: #f90;
        fill-rule: evenodd;
      }
    </style>
  </defs>
  <path d="M37.000,15.000 L35.207,13.207 L19.707,28.707 L18.293,27.293 L33.793,11.793 L32.000,10.000 L15.000,26.999 L15.000,29.000 L18.000,32.000 L20.000,32.000 L37.000,15.000 L37.000,15.000 ZM2.000,-0.000 L32.000,-0.000 C33.100,-0.000 34.000,0.900 34.000,2.000 C34.000,3.390 34.000,4.781 34.000,6.171 L32.000,4.172 C32.000,3.448 32.000,2.724 32.000,2.000 L2.000,2.000 L2.000,38.000 L32.000,38.000 L32.000,25.828 L34.000,23.828 C34.000,28.552 34.000,33.276 34.000,38.000 C34.000,39.099 33.100,40.000 32.000,40.000 L2.000,40.000 C0.900,40.000 -0.000,39.100 -0.000,38.000 L-0.000,2.000 C-0.000,0.900 0.900,-0.000 2.000,-0.000 L2.000,-0.000 ZM6.000,32.000 L13.000,32.000 L13.000,26.000 L32.000,7.000 L40.000,15.000 L21.000,34.000 C16.000,34.000 11.000,34.000 6.000,34.000 L6.000,32.000 L6.000,32.000 ZM6.000,28.000 L6.000,30.000 L11.000,30.000 L11.000,28.000 L6.000,28.000 L6.000,28.000 ZM6.000,24.000 L6.000,26.000 L11.000,26.000 L11.000,25.171 L12.172,24.000 L6.000,24.000 L6.000,24.000 ZM6.000,20.000 L16.172,20.000 L14.172,22.000 L6.000,22.000 L6.000,20.000 L6.000,20.000 ZM6.000,6.000 L28.000,6.000 L28.000,8.171 L26.000,10.171 L26.000,8.000 L8.000,8.000 L8.000,16.000 L20.171,16.000 L18.172,18.000 L6.000,18.000 L6.000,6.000 Z" class="seopult-icon text-i"/>
</svg>
