<svg xmlns="http://www.w3.org/2000/svg" xmlns:xlink="http://www.w3.org/1999/xlink" preserveAspectRatio="xMidYMid" width="36" height="40" viewBox="0 0 36 40">
  <defs>
    <style>
      .time-i {
        fill: #ff9b06;
        fill-rule: evenodd;
      }
    </style>
  </defs>
  <path d="M36.000,22.000 C36.000,31.941 27.941,40.000 18.000,40.000 C8.059,40.000 -0.000,31.941 -0.000,22.000 C-0.000,12.396 7.527,4.572 17.000,4.050 L17.000,2.000 L14.000,2.000 L14.000,-0.000 L22.000,-0.000 L22.000,2.000 L19.000,2.000 L19.000,4.050 C23.213,4.283 27.035,5.964 29.987,8.599 L32.849,5.737 L34.263,7.151 L31.397,10.017 C34.251,13.197 36.000,17.388 36.000,22.000 ZM18.000,6.000 C9.163,6.000 2.000,13.163 2.000,22.000 C2.000,30.837 9.163,38.000 18.000,38.000 C26.836,38.000 34.000,30.837 34.000,22.000 C34.000,13.163 26.836,6.000 18.000,6.000 ZM19.000,23.723 L19.000,26.000 L17.000,26.000 L17.000,23.723 C16.405,23.376 16.000,22.738 16.000,22.000 C16.000,21.262 16.405,20.624 17.000,20.277 L17.000,10.000 L19.000,10.000 L19.000,20.277 C19.595,20.624 20.000,21.262 20.000,22.000 C20.000,22.738 19.595,23.376 19.000,23.723 Z" class="seopult-icon time-i"/>
</svg>
