<svg xmlns="http://www.w3.org/2000/svg" xmlns:xlink="http://www.w3.org/1999/xlink" preserveAspectRatio="xMidYMid" width="40" height="40" viewBox="0 0 40 40">
  <defs>
    <style>
      .traf-i {
        fill: #f90;
        fill-rule: evenodd;
      }
    </style>
  </defs>
  <path d="M27.987,16.000 L25.986,27.000 L28.987,27.000 L29.987,38.000 L33.988,38.000 L34.988,27.000 L37.989,27.000 L35.989,16.000 L27.987,16.000 L27.987,16.000 ZM3.981,16.000 L1.981,27.000 L4.981,27.000 L5.982,38.000 L9.974,38.000 L10.006,38.360 C10.058,38.930 10.228,39.462 10.490,39.935 C10.328,39.977 10.158,40.000 9.983,40.000 L5.982,40.000 L5.982,39.992 C4.961,39.993 4.090,39.215 3.997,38.179 L3.162,29.000 L1.981,29.000 L1.981,28.992 C1.865,28.992 1.747,28.982 1.629,28.961 C0.546,28.767 -0.175,27.731 0.019,26.648 L1.989,15.817 C2.081,14.798 2.938,13.999 3.981,13.999 L8.517,13.999 C8.252,14.459 8.074,14.977 8.009,15.532 L7.924,16.000 L3.981,16.000 L3.981,16.000 ZM7.982,1.999 C8.327,1.999 8.662,2.043 8.982,2.126 C9.325,1.508 9.747,0.940 10.234,0.437 C9.539,0.155 8.779,-0.000 7.982,-0.000 C4.668,-0.000 1.981,2.686 1.981,5.999 C1.981,9.314 4.668,12.000 7.982,12.000 C8.778,12.000 9.538,11.844 10.234,11.563 C9.746,11.059 9.324,10.491 8.982,9.874 C8.662,9.956 8.327,10.000 7.982,10.000 C5.772,10.000 3.981,8.209 3.981,5.999 C3.981,3.790 5.772,1.999 7.982,1.999 L7.982,1.999 ZM11.983,16.000 L15.926,16.000 L16.011,15.532 C16.076,14.977 16.253,14.459 16.519,13.999 L11.983,13.999 C10.940,13.999 10.083,14.798 9.991,15.817 L8.021,26.648 C7.827,27.731 8.548,28.767 9.631,28.961 C9.749,28.982 9.866,28.992 9.982,28.992 L9.982,29.000 L11.164,29.000 L11.999,38.179 C12.092,39.215 12.963,39.993 13.983,39.992 L13.983,40.000 L17.984,40.000 C18.160,40.000 18.330,39.977 18.492,39.935 C18.230,39.462 18.060,38.930 18.008,38.360 L17.975,38.000 L13.983,38.000 L12.983,27.000 L9.982,27.000 L11.983,16.000 L11.983,16.000 ZM15.984,1.999 C13.774,1.999 11.983,3.790 11.983,5.999 C11.983,8.209 13.774,10.000 15.984,10.000 C16.329,10.000 16.664,9.956 16.984,9.874 C17.326,10.491 17.748,11.059 18.236,11.563 C17.540,11.844 16.780,12.000 15.984,12.000 C12.669,12.000 9.982,9.314 9.982,5.999 C9.982,2.686 12.669,-0.000 15.984,-0.000 C16.780,-0.000 17.541,0.155 18.236,0.437 C17.749,0.940 17.327,1.508 16.984,2.126 C16.664,2.043 16.329,1.999 15.984,1.999 L15.984,1.999 ZM19.985,16.000 L17.984,27.000 L20.985,27.000 L21.986,38.000 L25.977,38.000 L26.010,38.360 C26.062,38.930 26.232,39.462 26.494,39.935 C26.332,39.977 26.162,40.000 25.986,40.000 L21.986,40.000 L21.986,39.992 C20.965,39.993 20.094,39.215 20.000,38.179 L19.166,29.000 L17.984,29.000 L17.984,28.992 C17.868,28.992 17.751,28.982 17.633,28.961 C16.549,28.767 15.829,27.731 16.023,26.648 L17.993,15.817 C18.085,14.798 18.942,13.999 19.985,13.999 L24.521,13.999 C24.255,14.459 24.078,14.977 24.013,15.532 L23.928,16.000 L19.985,16.000 L19.985,16.000 ZM23.986,1.999 C24.331,1.999 24.666,2.043 24.986,2.126 C25.329,1.508 25.750,0.940 26.238,0.437 C25.543,0.155 24.782,-0.000 23.986,-0.000 C20.671,-0.000 17.984,2.686 17.984,5.999 C17.984,9.314 20.671,12.000 23.986,12.000 C24.782,12.000 25.542,11.844 26.238,11.563 C25.750,11.059 25.328,10.491 24.986,9.874 C24.666,9.956 24.331,10.000 23.986,10.000 C21.776,10.000 19.985,8.209 19.985,5.999 C19.985,3.790 21.776,1.999 23.986,1.999 L23.986,1.999 ZM31.988,1.999 C34.197,1.999 35.989,3.790 35.989,5.999 C35.989,8.209 34.197,10.000 31.988,10.000 C29.778,10.000 27.987,8.209 27.987,5.999 C27.987,3.790 29.778,1.999 31.988,1.999 L31.988,1.999 ZM25.986,5.999 C25.986,2.686 28.673,-0.000 31.988,-0.000 C35.302,-0.000 37.989,2.686 37.989,5.999 C37.989,9.314 35.302,12.000 31.988,12.000 C28.673,12.000 25.986,9.314 25.986,5.999 L25.986,5.999 ZM24.025,26.648 L25.995,15.817 C26.087,14.798 26.944,13.999 27.987,13.999 L35.989,13.999 L35.989,14.007 C36.936,14.006 37.777,14.683 37.950,15.648 L39.917,26.465 C39.964,26.635 39.990,26.815 39.990,27.000 C39.990,28.104 39.094,29.000 37.989,29.000 L36.808,29.000 L35.989,38.009 C35.984,39.109 35.090,40.000 33.988,40.000 L29.987,40.000 L29.987,39.992 C28.967,39.993 28.096,39.215 28.002,38.179 L27.168,29.000 L25.986,29.000 L25.986,28.992 C25.870,28.992 25.753,28.982 25.634,28.961 C24.551,28.767 23.831,27.731 24.025,26.648 Z" class="seopult-icon traf-i"/>
</svg>
