<svg xmlns="http://www.w3.org/2000/svg" xmlns:xlink="http://www.w3.org/1999/xlink" preserveAspectRatio="xMidYMid" width="40" height="40" viewBox="0 0 40 40">
  <defs>
    <style>
      .university-i {
        fill: #f90;
        fill-rule: evenodd;
      }
    </style>
  </defs>
  <path d="M40.000,36.000 L40.000,38.000 C40.000,39.104 39.105,40.000 38.000,40.000 L2.000,40.000 C0.895,40.000 -0.000,39.104 -0.000,38.000 L-0.000,36.000 C-0.000,34.895 0.895,34.000 2.000,34.000 L4.000,34.000 C4.000,34.000 4.000,33.999 4.000,33.999 L4.000,11.999 L2.000,11.999 C0.895,11.999 -0.000,11.104 -0.000,9.999 L-0.000,7.999 C-0.000,6.895 0.895,6.624 2.000,5.999 L20.000,-0.001 L38.000,5.999 C39.167,6.499 40.000,6.895 40.000,7.999 L40.000,9.999 C40.000,11.104 39.105,11.999 38.000,11.999 L36.000,11.999 L36.000,33.999 C36.000,33.999 36.000,34.000 36.000,34.000 L38.000,34.000 C39.105,34.000 40.000,34.895 40.000,36.000 ZM2.000,38.000 L38.000,38.000 L38.000,36.000 L2.000,36.000 L2.000,38.000 ZM21.000,11.999 L19.000,11.999 L19.000,33.999 L21.000,33.999 L21.000,11.999 ZM17.000,34.000 C17.000,34.000 17.000,33.999 17.000,33.999 L17.000,11.999 L10.000,11.999 L10.000,33.999 C10.000,33.999 10.000,34.000 10.000,34.000 L17.000,34.000 ZM6.000,33.999 L8.000,33.999 L8.000,11.999 L6.000,11.999 L6.000,33.999 ZM38.000,9.999 L38.000,7.999 L20.000,1.999 L2.000,7.999 L2.000,9.999 L6.000,9.999 L8.000,9.999 L19.000,9.999 L21.000,9.999 L32.000,9.999 L34.000,9.999 L38.000,9.999 ZM32.000,11.999 L32.000,33.999 L34.000,33.999 L34.000,11.999 L32.000,11.999 ZM30.000,33.999 L30.000,11.999 L23.000,11.999 L23.000,33.999 C23.000,33.999 23.000,34.000 23.000,34.000 L30.000,34.000 C30.000,34.000 30.000,33.999 30.000,33.999 Z" class="seopult-icon university-i"/>
</svg>
