<svg xmlns="http://www.w3.org/2000/svg" xmlns:xlink="http://www.w3.org/1999/xlink" preserveAspectRatio="xMidYMid" width="40" height="40" viewBox="0 0 40 40">
  <defs>
    <style>
      .wallet-i {
        fill: #f90;
        fill-rule: evenodd;
      }
    </style>
  </defs>
  <path d="M38.000,40.000 L2.000,40.000 C0.895,40.000 -0.000,39.104 -0.000,37.999 L-0.000,7.999 C-0.000,6.895 0.895,5.999 2.000,5.999 L12.138,5.999 L28.071,0.119 C29.106,-0.263 30.251,0.279 30.628,1.328 L32.305,5.999 L38.000,5.999 C39.104,5.999 40.000,6.895 40.000,7.999 L40.000,18.999 L40.000,26.999 L40.000,37.999 C40.000,39.104 39.104,40.000 38.000,40.000 ZM28.753,2.020 L17.970,5.999 L30.182,5.999 L28.753,2.020 ZM38.000,18.999 L30.000,18.999 L30.000,26.999 L38.000,26.999 L38.000,18.999 ZM38.000,28.999 L30.000,28.999 C28.895,28.999 28.000,28.104 28.000,26.999 L28.000,18.999 C28.000,17.894 28.895,16.999 30.000,16.999 L38.000,16.999 L38.000,7.999 L2.000,7.999 L2.000,37.999 L38.000,37.999 L38.000,28.999 ZM34.000,21.999 C34.552,21.999 35.000,22.447 35.000,23.000 C35.000,23.552 34.552,23.999 34.000,23.999 C33.448,23.999 33.000,23.552 33.000,23.000 C33.000,22.447 33.448,21.999 34.000,21.999 Z" class="seopult-icon wallet-i"/>
</svg>
