<svg xmlns="http://www.w3.org/2000/svg" preserveAspectRatio="xMidYMid" width="22" height="22" viewBox="0 0 22 22"><defs><style>.cls-1{fill:#d7dbdf;fill-rule:evenodd}</style></defs><path d="M11 22C4.925 22 0 17.075 0 11S4.925 0 11 0s11 4.925 11 11-4.925 11-11 11zm0-20a9 9 0 1 0 0 18 9 9 0 0 0 0-18zm1 10.873V14h-2v-3.001h1c.552 0 1.053-.224 1.414-.585h.004c.359-.36.582-.86.582-1.415s-.223-1.055-.582-1.414l-.004-.003A1.989 1.989 0 0 0 11 6.999c-.555 0-1.055.223-1.414.583l-.004.003A1.992 1.992 0 0 0 9 8.999H7c0-1.1.448-2.099 1.172-2.824l.004-.004A3.986 3.986 0 0 1 11 5c1.1 0 2.099.447 2.824 1.171l.004.004a3.987 3.987 0 0 1-.002 5.651A3.964 3.964 0 0 1 12 12.873zM12 17h-2v-2h2v2z" class="cls-1"/></svg>