<svg xmlns="http://www.w3.org/2000/svg" preserveAspectRatio="xMidYMid" width="19.719" height="20" viewBox="0 0 19.719 20"><defs><style>.home-icon{fill:#73787f;fill-rule:evenodd}</style></defs><path d="M1.971 11.998a1.936 1.936 0 0 1-1.82-1.234 1.989 1.989 0 0 1 .427-2.18l7.883-8a1.952 1.952 0 0 1 2.787 0l7.882 8c.576.584.739 1.416.428 2.18a1.937 1.937 0 0 1-1.82 1.234L17.737 18c0 1.102-.885 2-1.97 2H3.942c-1.085 0-1.97-.898-1.97-2l-.001-6.002zm.001-2l1.97.001V18h11.825V9.999l1.97-.001-7.882-7.999-7.883 7.999z" class="home-icon"/></svg>