<svg xmlns="http://www.w3.org/2000/svg" preserveAspectRatio="xMidYMid" width="16.031" height="16" viewBox="0 0 16.031 16"><defs><style>.cls-1{fill:#d7dbdf;fill-rule:evenodd}</style></defs><path d="M15.704 15.703a1.038 1.038 0 0 1-1.469 0l-2.237-2.236c-1.256.949-2.803 1.532-4.498 1.532A7.5 7.5 0 1 1 15 7.498c0 1.696-.584 3.242-1.533 4.499l2.237 2.237a1.04 1.04 0 0 1 0 1.469zM7.5 1.998a5.5 5.5 0 0 0 0 11.001c1.367 0 2.602-.517 3.564-1.343a1.02 1.02 0 0 1 .593-.593C12.482 10.101 13 8.867 13 7.498a5.5 5.5 0 0 0-5.5-5.5z" class="cls-1"/></svg>