<svg id="map" xmlns="http://www.w3.org/2000/svg" width="39" height="43" viewBox="0 0 39 43"><defs><style>.icon-location-1{fill:#313436}.icon-location-1,.icon-location-2,.icon-location-3{fill-rule:evenodd}.icon-location-2{fill:#f90}.icon-location-3{fill:#babcc2}</style></defs><path id="_3" data-name="3" class="icon-location-1" d="M501 755h35a2 2 0 0 1 2 2v35a2 2 0 0 1-2 2h-13l-4 4h-1l-4-4h-13a2 2 0 0 1-2-2v-35a2 2 0 0 1 2-2z" transform="translate(-499 -755)"/><path id="_2" data-name="2" class="icon-location-2" d="M520 761.089a13.511 13.511 0 0 1 2 26.431v-3.042a10.607 10.607 0 0 0-2-20.46v-2.929zm-5 26.461a13.511 13.511 0 0 1 2-26.473V764a10.606 10.606 0 0 0-2 20.513v3.034z" transform="translate(-499 -755)"/><path id="_1" data-name="1" class="icon-location-3" d="M517 778v10h3v-10h-3z" transform="translate(-499 -755)"/></svg>