<svg xmlns="http://www.w3.org/2000/svg" xmlns:xlink="http://www.w3.org/1999/xlink" preserveAspectRatio="xMidYMid" width="12" height="15" viewBox="0 0 12 15">
  <defs>
    <style>
      .cls-1 {
        fill: #ffb400;
        fill-rule: evenodd;
      }
    </style>
  </defs>
  <path d="M7.000,11.897 L7.000,12.998 L10.000,12.998 L10.000,14.998 L2.000,14.998 L2.000,12.998 L5.000,12.998 L5.000,11.897 C2.165,11.419 -0.000,8.970 -0.000,5.999 C-0.000,2.685 2.686,-0.002 6.000,-0.002 C9.314,-0.002 12.000,2.685 12.000,5.999 C12.000,8.970 9.835,11.419 7.000,11.897 ZM6.000,1.998 C3.791,1.998 2.000,3.789 2.000,5.999 C2.000,8.207 3.791,9.998 6.000,9.998 C8.209,9.998 10.000,8.207 10.000,5.999 C10.000,3.789 8.209,1.998 6.000,1.998 ZM6.000,8.998 C4.343,8.998 3.000,7.655 3.000,5.999 C3.000,4.342 4.343,2.998 6.000,2.998 C6.307,2.998 6.597,3.058 6.876,3.143 C6.361,3.381 6.000,3.894 6.000,4.498 C6.000,5.326 6.671,5.999 7.500,5.999 C8.104,5.999 8.617,5.637 8.855,5.122 C8.940,5.401 9.000,5.691 9.000,5.999 C9.000,7.655 7.657,8.998 6.000,8.998 Z" class="cls-1"/>
</svg>
