<svg xmlns="http://www.w3.org/2000/svg" xmlns:xlink="http://www.w3.org/1999/xlink" preserveAspectRatio="xMidYMid" width="22" height="22" viewBox="0 0 22 22">
  <defs>
    <style>
      .cls-1 {
        fill: #d7dbdf;
        fill-rule: evenodd;
      }
    </style>
  </defs>
  <path d="M11.000,22.000 C4.925,22.000 -0.000,17.075 -0.000,11.000 C-0.000,4.925 4.925,-0.000 11.000,-0.000 C17.075,-0.000 22.000,4.925 22.000,11.000 C22.000,17.075 17.075,22.000 11.000,22.000 ZM11.000,2.000 C6.029,2.000 2.000,6.029 2.000,11.000 C2.000,15.970 6.029,20.000 11.000,20.000 C15.970,20.000 20.000,15.970 20.000,11.000 C20.000,6.029 15.970,2.000 11.000,2.000 ZM12.000,12.873 L12.000,14.000 L10.000,14.000 L10.000,10.999 L11.000,10.999 C11.552,10.999 12.053,10.775 12.414,10.414 L12.418,10.414 C12.777,10.054 13.000,9.554 13.000,8.999 C13.000,8.444 12.777,7.944 12.418,7.585 L12.414,7.582 C12.055,7.222 11.555,6.999 11.000,6.999 C10.445,6.999 9.945,7.222 9.586,7.582 L9.582,7.585 C9.223,7.944 9.000,8.444 9.000,8.999 L7.000,8.999 C7.000,7.899 7.448,6.900 8.172,6.175 L8.176,6.171 C8.901,5.447 9.900,5.000 11.000,5.000 C12.100,5.000 13.099,5.447 13.824,6.171 L13.828,6.175 C14.552,6.900 15.000,7.899 15.000,8.999 C15.000,10.100 14.551,11.100 13.826,11.826 C13.331,12.325 12.703,12.692 12.000,12.873 ZM12.000,17.000 L10.000,17.000 L10.000,15.000 L12.000,15.000 L12.000,17.000 Z" class="cls-1"/>
</svg>
