<svg xmlns="http://www.w3.org/2000/svg" xmlns:xlink="http://www.w3.org/1999/xlink" preserveAspectRatio="xMidYMid" width="12" height="16" viewBox="0 0 12 16">
  <defs>
    <style>
      .cls-1 {
        fill: #ffb400;
        fill-rule: evenodd;
      }
    </style>
  </defs>
  <path d="M7.000,12.897 L7.000,13.998 L9.000,13.998 L9.000,15.998 L3.000,15.998 L3.000,13.998 L5.000,13.998 L5.000,12.897 C2.165,12.419 -0.000,9.970 -0.000,6.998 L2.000,6.998 C2.000,9.207 3.791,10.998 6.000,10.998 C8.209,10.998 10.000,9.207 10.000,6.998 L12.000,6.998 C12.000,9.970 9.835,12.419 7.000,12.897 ZM6.000,9.998 C4.343,9.998 3.000,8.655 3.000,6.998 L3.000,2.998 C3.000,1.341 4.343,-0.002 6.000,-0.002 C7.657,-0.002 9.000,1.341 9.000,2.998 L9.000,6.998 C9.000,8.655 7.657,9.998 6.000,9.998 Z" class="cls-1"/>
</svg>
