<svg xmlns="http://www.w3.org/2000/svg" xmlns:xlink="http://www.w3.org/1999/xlink" preserveAspectRatio="xMidYMid" width="19.906" height="19.906" viewBox="0 0 19.906 19.906">
  <defs>
    <style>
      .search-icon {
        fill: #73787f;
        fill-rule: evenodd;
      }
    </style>
  </defs>
  <path d="M8.962,-0.006 C13.911,-0.006 17.922,4.006 17.922,8.955 C17.922,11.070 17.188,13.015 15.962,14.547 L19.621,18.206 C20.010,18.595 20.010,19.226 19.621,19.614 C19.233,20.003 18.602,20.003 18.214,19.614 L14.554,15.955 C13.021,17.181 11.077,17.915 8.962,17.915 C4.013,17.915 0.001,13.903 0.001,8.955 C0.001,4.006 4.013,-0.006 8.962,-0.006 L8.962,-0.006 ZM8.961,1.985 C5.112,1.985 1.992,5.105 1.992,8.954 C1.992,12.804 5.112,15.924 8.961,15.924 C12.810,15.924 15.931,12.804 15.931,8.954 C15.931,5.105 12.810,1.985 8.961,1.985 Z" class="search-icon"/>
</svg>
