<svg xmlns="http://www.w3.org/2000/svg" xmlns:xlink="http://www.w3.org/1999/xlink" preserveAspectRatio="xMidYMid" width="16" height="20" viewBox="0 0 16 20">
  <defs>
    <style>
      .svg-timetoread {
        fill: #ff9b00;
        fill-rule: evenodd;
      }
    </style>
  </defs>
  <path d="M16.000,12.000 C16.000,16.418 12.418,20.000 8.000,20.000 C3.582,20.000 -0.000,16.418 -0.000,12.000 C-0.000,7.921 3.055,4.562 7.000,4.069 L7.000,2.000 L6.000,2.000 L6.000,-0.000 L7.000,-0.000 L9.000,-0.000 L10.000,-0.000 L10.000,2.000 L9.000,2.000 L9.000,4.069 C10.459,4.251 11.793,4.830 12.899,5.687 L14.364,4.222 L15.778,5.636 L14.297,7.117 C15.350,8.470 16.000,10.151 16.000,12.000 ZM8.000,6.000 C4.686,6.000 2.000,8.686 2.000,12.000 C2.000,15.313 4.686,18.000 8.000,18.000 C11.314,18.000 14.000,15.313 14.000,12.000 C14.000,8.686 11.314,6.000 8.000,6.000 ZM7.000,8.000 L9.000,8.000 L9.000,13.000 L7.000,13.000 L7.000,8.000 Z" class="svg-timetoread"/>
</svg>
